Moonface-Bold.ufo
<glyph name="hyphen" format="1">
	<unicode hex="002D"/>
	<advance width="414"/>
	<outline>
		<contour>
			<point x="10" y="321" type="line"/>
			<point x="10" y="203" type="line"/>
			<point x="404" y="203" type="line"/>
			<point x="404" y="321" type="line"/>
		</contour>
	</outline>
</glyph>
<glyph name="NameMe.31" format="1">
  <advance width="569"/>
  <unicode hex="0053"/>
  <outline>
    <contour>
      <point x="533.38" y="598.53" type="line"/>
      <point x="503.77" y="625.32"/>
      <point x="440.53" y="669.34"/>
      <point x="346.06" y="669.34" type="curve" smooth="yes"/>
      <point x="196.86" y="669.34"/>
      <point x="135.1" y="567.08"/>
      <point x="135.1" y="482.48" type="curve" smooth="yes"/>
      <point x="135.1" y="283.67"/>
      <point x="418.64" y="305.7"/>
      <point x="418.64" y="163.92" type="curve" smooth="yes"/>
      <point x="418.64" y="114.44"/>
      <point x="374.08" y="81.1104"/>
      <point x="306.14" y="81.1104" type="curve" smooth="yes"/>
      <point x="208.85" y="81.1104"/>
      <point x="135.2" y="134.97"/>
      <point x="135.2" y="134.97" type="curve"/>
      <point x="121.1" y="81.3896"/>
      <point x="116.77" y="68.9404"/>
      <point x="111" y="21" type="curve"/>
      <point x="111" y="21"/>
      <point x="181.11" y="-25.5303"/>
      <point x="298.14" y="-25.5303" type="curve" smooth="yes"/>
      <point x="471.57" y="-25.5303"/>
      <point x="532.897" y="57.4098"/>
      <point x="534.89" y="163.15" type="curve" smooth="yes"/>
      <point x="539.12" y="387.6"/>
      <point x="248.84" y="373.78"/>
      <point x="248.84" y="495.3" type="curve" smooth="yes"/>
      <point x="248.84" y="546.32"/>
      <point x="290.772" y="571.428"/>
      <point x="336.47" y="571.29" type="curve" smooth="yes"/>
      <point x="406.479" y="571.079"/>
      <point x="460.484" y="543.176"/>
      <point x="497.21" y="508.99" type="curve"/>
    </contour>
  </outline>
</glyph>
<glyph name="a" format="1">
  <advance width="541"/>
  <unicode hex="0061"/>
  <outline>
    <contour>
      <point x="332" y="228" type="line"/>
      <point x="383" y="171" type="line"/>
      <point x="335.405" y="197.057"/>
      <point x="299.871" y="209.511"/>
      <point x="265" y="208.958" type="curve" smooth="yes"/>
      <point x="219.966" y="208.244"/>
      <point x="198" y="186.868"/>
      <point x="198" y="160" type="curve" smooth="yes"/>
      <point x="198" y="143"/>
      <point x="206.98" y="122.937"/>
      <point x="247" y="123" type="curve" smooth="yes"/>
      <point x="293.969" y="123.074"/>
      <point x="330" y="151"/>
      <point x="332" y="184" type="curve"/>
    </contour>
    <contour>
      <point x="307" y="491" type="curve" smooth="yes"/>
      <point x="407" y="491"/>
      <point x="483" y="445"/>
      <point x="483" y="357" type="curve" smooth="yes"/>
      <point x="483" y="278"/>
      <point x="480" y="107"/>
      <point x="490" y="0" type="curve"/>
      <point x="345" y="0" type="line"/>
      <point x="343.22" y="53" type="line"/>
      <point x="339.306" y="53.3262"/>
      <point x="335.392" y="55.6162"/>
      <point x="331.478" y="52" type="curve"/>
      <point x="345" y="108" type="line"/>
      <point x="359" y="96" type="line"/>
      <point x="345" y="45"/>
      <point x="270" y="-6"/>
      <point x="200" y="-6" type="curve" smooth="yes"/>
      <point x="91" y="-6"/>
      <point x="46" y="68"/>
      <point x="46" y="135" type="curve" smooth="yes"/>
      <point x="46" y="250.334"/>
      <point x="140.697" y="300.98"/>
      <point x="259" y="301.584" type="curve" smooth="yes"/>
      <point x="319.112" y="301.891"/>
      <point x="347.557" y="292.27"/>
      <point x="372" y="287" type="curve"/>
      <point x="330" y="244" type="line"/>
      <point x="330" y="293" type="line"/>
      <point x="330" y="361"/>
      <point x="281.011" y="361.038"/>
      <point x="235" y="361" type="curve" smooth="yes"/>
      <point x="207.969" y="360.978"/>
      <point x="165" y="348"/>
      <point x="115" y="330" type="curve"/>
      <point x="93" y="432" type="line"/>
      <point x="143" y="467"/>
      <point x="218" y="491"/>
    </contour>
  </outline>
</glyph>
<glyph name="c" format="1">
	<unicode hex="0063"/>
	<advance width="442"/>
	<outline>
		<contour>
			<point x="383" y="341" type="curve"/>
			<point x="422" y="432" type="line"/>
			<point x="396" y="452"/>
			<point x="350" y="482"/>
			<point x="266" y="482" type="curve" smooth="yes"/>
			<point x="133" y="482"/>
			<point x="36" y="390"/>
			<point x="36" y="223" type="curve" smooth="yes"/>
			<point x="36" y="60"/>
			<point x="132" y="-19"/>
			<point x="273" y="-19" type="curve" smooth="yes"/>
			<point x="347" y="-19"/>
			<point x="407" y="19"/>
			<point x="426" y="51" type="curve"/>
			<point x="396" y="126" type="line"/>
			<point x="362" y="104"/>
			<point x="338" y="91"/>
			<point x="292" y="91" type="curve" smooth="yes"/>
			<point x="218" y="91"/>
			<point x="163" y="134"/>
			<point x="162" y="227" type="curve" smooth="yes"/>
			<point x="161" y="321"/>
			<point x="213" y="372"/>
			<point x="285" y="372" type="curve" smooth="yes"/>
			<point x="319" y="372"/>
			<point x="358" y="357"/>
		</contour>
	</outline>
</glyph>
<glyph name="d" format="1">
	<unicode hex="0064"/>
	<advance width="703"/>
	<outline>
		<contour>
			<point x="423" y="0" type="line"/>
			<point x="623" y="0" type="line"/>
			<point x="622" y="56"/>
			<point x="621" y="113"/>
			<point x="621" y="169" type="curve"/>
			<point x="623" y="680" type="line"/>
			<point x="403" y="670" type="line"/>
			<point x="403" y="99" type="line"/>
		</contour>
		<contour>
			<point x="403" y="210" type="line"/>
			<point x="405" y="153"/>
			<point x="373" y="119"/>
			<point x="338" y="119" type="curve" smooth="yes"/>
			<point x="278" y="119"/>
			<point x="256" y="177"/>
			<point x="256" y="230" type="curve" smooth="yes"/>
			<point x="256" y="302"/>
			<point x="287" y="362"/>
			<point x="349" y="362" type="curve" smooth="yes"/>
			<point x="359" y="362"/>
			<point x="417" y="358"/>
			<point x="438" y="312" type="curve"/>
			<point x="496" y="381" type="line"/>
			<point x="459" y="431"/>
			<point x="389" y="482"/>
			<point x="264" y="482" type="curve" smooth="yes"/>
			<point x="150" y="482"/>
			<point x="37" y="404"/>
			<point x="37" y="234" type="curve" smooth="yes"/>
			<point x="37" y="36"/>
			<point x="165" y="-17"/>
			<point x="285" y="-17" type="curve" smooth="yes"/>
			<point x="379" y="-17"/>
			<point x="429" y="42"/>
			<point x="446" y="125" type="curve"/>
		</contour>
	</outline>
</glyph>
<glyph name="e" format="1">
  <advance width="510"/>
  <unicode hex="0065"/>
  <outline>
    <contour>
      <point x="359" y="295" type="line"/>
      <point x="360" y="352"/>
      <point x="313" y="388"/>
      <point x="265" y="388" type="curve" smooth="yes"/>
      <point x="226" y="388"/>
      <point x="176" y="370"/>
      <point x="163" y="295" type="curve"/>
    </contour>
    <contour>
      <point x="381" y="207" type="line"/>
      <point x="159" y="207" type="line"/>
      <point x="162" y="114"/>
      <point x="236.964" y="93.6249"/>
      <point x="290" y="94" type="curve" smooth="yes"/>
      <point x="356.96" y="94.4736"/>
      <point x="382" y="111"/>
      <point x="420" y="131" type="curve"/>
      <point x="453" y="63" type="line"/>
      <point x="452" y="52"/>
      <point x="445" y="41"/>
      <point x="438" y="36" type="curve"/>
      <point x="406" y="12"/>
      <point x="349" y="-19"/>
      <point x="267" y="-19" type="curve" smooth="yes"/>
      <point x="160" y="-19"/>
      <point x="40" y="50"/>
      <point x="40" y="225" type="curve" smooth="yes"/>
      <point x="40" y="400"/>
      <point x="146" y="486"/>
      <point x="269" y="486" type="curve" smooth="yes"/>
      <point x="417" y="486"/>
      <point x="491" y="360"/>
      <point x="481" y="207" type="curve"/>
      <point x="457" y="207" type="line"/>
    </contour>
  </outline>
</glyph>
<glyph name="g" format="1">
	<unicode hex="0067"/>
	<advance width="490"/>
	<outline>
		<contour>
			<point x="54" y="300" type="curve" smooth="yes"/>
			<point x="53" y="231"/>
			<point x="95" y="133"/>
			<point x="253" y="133" type="curve" smooth="yes"/>
			<point x="345" y="133"/>
			<point x="436" y="186"/>
			<point x="436" y="312" type="curve" smooth="yes"/>
			<point x="436" y="404"/>
			<point x="350" y="475"/>
			<point x="248" y="474" type="curve" smooth="yes"/>
			<point x="125" y="473"/>
			<point x="55" y="393"/>
		</contour>
		<contour>
			<point x="153" y="301" type="curve" smooth="yes"/>
			<point x="153" y="340"/>
			<point x="180" y="374"/>
			<point x="246" y="373" type="curve" smooth="yes"/>
			<point x="292" y="373"/>
			<point x="339" y="353"/>
			<point x="339" y="299" type="curve" smooth="yes"/>
			<point x="339" y="268"/>
			<point x="314" y="231"/>
			<point x="251" y="230" type="curve" smooth="yes"/>
			<point x="182" y="229"/>
			<point x="153" y="265"/>
		</contour>
		<contour>
			<point x="282" y="185" type="line"/>
			<point x="188" y="175" type="line"/>
			<point x="187" y="18" type="line"/>
			<point x="185" y="11"/>
			<point x="369" y="18"/>
			<point x="369" y="-28" type="curve" smooth="yes"/>
			<point x="369" y="-83"/>
			<point x="319" y="-103"/>
			<point x="239" y="-103" type="curve" smooth="yes"/>
			<point x="211" y="-103"/>
			<point x="152" y="-93"/>
			<point x="152" y="-51" type="curve" smooth="yes"/>
			<point x="152" y="-7"/>
			<point x="211" y="12"/>
			<point x="255" y="12" type="curve"/>
			<point x="220" y="73" type="line"/>
			<point x="123" y="77"/>
			<point x="49" y="10"/>
			<point x="49" y="-58" type="curve" smooth="yes"/>
			<point x="49" y="-125"/>
			<point x="85" y="-207"/>
			<point x="263" y="-201" type="curve" smooth="yes"/>
			<point x="401" y="-197"/>
			<point x="469" y="-130"/>
			<point x="468" y="-37" type="curve" smooth="yes"/>
			<point x="467" y="89"/>
			<point x="323" y="94"/>
			<point x="284" y="86" type="curve"/>
		</contour>
		<contour>
			<point x="312" y="423" type="curve"/>
			<point x="365" y="408" type="line"/>
			<point x="385" y="374" type="line"/>
			<point x="429" y="396"/>
			<point x="475" y="405"/>
			<point x="510" y="405" type="curve"/>
			<point x="486" y="497" type="line"/>
			<point x="433" y="497"/>
			<point x="350" y="441"/>
		</contour>
	</outline>
</glyph>
<glyph name="h" format="1">
	<unicode hex="0068"/>
	<advance width="619"/>
	<outline>
		<contour>
			<point x="337" y="0" type="curve"/>
			<point x="554" y="0" type="line"/>
			<point x="554" y="126"/>
			<point x="554" y="242"/>
			<point x="554" y="355" type="curve"/>
			<point x="554" y="442"/>
			<point x="487" y="487"/>
			<point x="404" y="487" type="curve" smooth="yes"/>
			<point x="323" y="487"/>
			<point x="237" y="436"/>
			<point x="202" y="386" type="curve"/>
			<point x="230" y="227" type="line"/>
			<point x="239" y="273"/>
			<point x="260" y="306"/>
			<point x="289" y="306" type="curve" smooth="yes"/>
			<point x="307" y="306"/>
			<point x="330" y="291"/>
			<point x="334" y="249" type="curve" smooth="yes"/>
			<point x="339" y="193"/>
			<point x="337" y="110"/>
		</contour>
		<contour>
			<point x="13" y="0" type="curve"/>
			<point x="233" y="0" type="line"/>
			<point x="230" y="111"/>
			<point x="230" y="264"/>
			<point x="231" y="394" type="curve"/>
			<point x="221" y="406" type="line"/>
			<point x="220" y="680" type="line"/>
			<point x="10" y="670" type="line"/>
			<point x="10" y="504"/>
			<point x="11" y="161"/>
		</contour>
	</outline>
</glyph>
<glyph name="i" format="1">
  <advance width="278"/>
  <unicode hex="0069"/>
  <outline>
    <contour>
      <point x="56.5127" y="631.141" type="curve" smooth="yes"/>
      <point x="56.5127" y="681.257"/>
      <point x="96.6045" y="721.351"/>
      <point x="146.722" y="721.351" type="curve" smooth="yes"/>
      <point x="196.838" y="721.351"/>
      <point x="236.931" y="681.257"/>
      <point x="236.931" y="631.141" type="curve" smooth="yes"/>
      <point x="236.931" y="581.024"/>
      <point x="196.838" y="540.932"/>
      <point x="146.722" y="540.932" type="curve" smooth="yes"/>
      <point x="96.6045" y="540.932"/>
      <point x="56.5127" y="581.024"/>
    </contour>
    <contour>
      <point x="69" y="479" type="curve"/>
      <point x="223" y="479" type="line"/>
      <point x="218.494" y="312.857"/>
      <point x="227.532" y="72.8984"/>
      <point x="232" y="0" type="curve"/>
      <point x="73" y="0" type="line"/>
      <point x="72.7393" y="158.44"/>
      <point x="72.3975" y="317.948"/>
    </contour>
  </outline>
</glyph>
<glyph name="k" format="1">
  <advance width="527"/>
  <unicode hex="006B"/>
  <outline>
    <contour>
      <point x="553" y="0" type="line"/>
      <point x="485.102" y="87.5947"/>
      <point x="428" y="202"/>
      <point x="386" y="289" type="curve"/>
      <point x="221" y="233" type="line"/>
      <point x="277.681" y="158.08"/>
      <point x="330.997" y="68.8242"/>
      <point x="369" y="0" type="curve"/>
    </contour>
    <contour>
      <point x="221" y="0" type="line"/>
      <point x="214.469" y="171.354"/>
      <point x="214.637" y="429.097"/>
      <point x="224" y="624" type="curve"/>
      <point x="224" y="684" type="line"/>
      <point x="52" y="682" type="line"/>
      <point x="61" y="509"/>
      <point x="59" y="114"/>
      <point x="56" y="0" type="curve"/>
    </contour>
    <contour>
      <point x="338" y="197" type="line"/>
      <point x="338" y="338" type="line"/>
      <point x="212" y="337" type="line"/>
      <point x="212" y="197" type="line"/>
    </contour>
    <contour>
      <point x="504" y="476" type="curve"/>
      <point x="326" y="476" type="line"/>
      <point x="296.603" y="414.029"/>
      <point x="284.085" y="334.034"/>
      <point x="248" y="303" type="curve"/>
      <point x="369" y="245" type="line"/>
      <point x="411.55" y="285.533"/>
      <point x="458.769" y="395.555"/>
    </contour>
  </outline>
</glyph>
<glyph name="l" format="1">
	<unicode hex="006C"/>
	<advance width="220"/>
	<outline>
		<contour>
			<point x="56" y="0" type="line"/>
			<point x="166" y="0" type="line"/>
			<point x="168" y="678" type="line"/>
			<point x="52" y="676" type="line"/>
		</contour>
	</outline>
</glyph>
<glyph name="m" format="1">
	<unicode hex="006D"/>
	<advance width="904"/>
	<outline>
		<contour>
			<point x="358" y="0" type="curve"/>
			<point x="574" y="0" type="line"/>
			<point x="574" y="126"/>
			<point x="574" y="242"/>
			<point x="574" y="355" type="curve"/>
			<point x="574" y="442"/>
			<point x="507" y="487"/>
			<point x="424" y="487" type="curve" smooth="yes"/>
			<point x="343" y="487"/>
			<point x="277" y="436"/>
			<point x="222" y="386" type="curve"/>
			<point x="270" y="227" type="line"/>
			<point x="289" y="273"/>
			<point x="300" y="306"/>
			<point x="329" y="306" type="curve" smooth="yes"/>
			<point x="347" y="306"/>
			<point x="351" y="291"/>
			<point x="355" y="249" type="curve" smooth="yes"/>
			<point x="360" y="193"/>
			<point x="358" y="110"/>
		</contour>
		<contour>
			<point x="33" y="0" type="curve"/>
			<point x="273" y="0" type="line"/>
			<point x="270" y="111"/>
			<point x="270" y="264"/>
			<point x="271" y="394" type="curve"/>
			<point x="261" y="406" type="line"/>
			<point x="260" y="480" type="line"/>
			<point x="30" y="476" type="line"/>
			<point x="30" y="310"/>
			<point x="31" y="161"/>
		</contour>
		<contour>
			<point x="658" y="0" type="curve"/>
			<point x="874" y="0" type="line"/>
			<point x="874" y="126"/>
			<point x="874" y="242"/>
			<point x="874" y="355" type="curve"/>
			<point x="874" y="442"/>
			<point x="807" y="487"/>
			<point x="724" y="487" type="curve" smooth="yes"/>
			<point x="643" y="487"/>
			<point x="577" y="436"/>
			<point x="522" y="386" type="curve"/>
			<point x="570" y="227" type="line"/>
			<point x="589" y="273"/>
			<point x="600" y="306"/>
			<point x="629" y="306" type="curve" smooth="yes"/>
			<point x="647" y="306"/>
			<point x="651" y="291"/>
			<point x="655" y="249" type="curve" smooth="yes"/>
			<point x="660" y="193"/>
			<point x="658" y="110"/>
		</contour>
	</outline>
</glyph>
<glyph name="n" format="1">
	<unicode hex="006E"/>
	<advance width="604"/>
	<outline>
		<contour>
			<point x="358" y="0" type="curve"/>
			<point x="574" y="0" type="line"/>
			<point x="574" y="126"/>
			<point x="574" y="242"/>
			<point x="574" y="355" type="curve"/>
			<point x="574" y="442"/>
			<point x="507" y="487"/>
			<point x="424" y="487" type="curve" smooth="yes"/>
			<point x="343" y="487"/>
			<point x="277" y="436"/>
			<point x="222" y="386" type="curve"/>
			<point x="270" y="227" type="line"/>
			<point x="278" y="273"/>
			<point x="300" y="306"/>
			<point x="329" y="306" type="curve" smooth="yes"/>
			<point x="347" y="306"/>
			<point x="351" y="291"/>
			<point x="355" y="249" type="curve" smooth="yes"/>
			<point x="360" y="193"/>
			<point x="358" y="110"/>
		</contour>
		<contour>
			<point x="33" y="0" type="curve"/>
			<point x="273" y="0" type="line"/>
			<point x="270" y="111"/>
			<point x="270" y="264"/>
			<point x="271" y="394" type="curve"/>
			<point x="261" y="406" type="line"/>
			<point x="260" y="480" type="line"/>
			<point x="30" y="476" type="line"/>
			<point x="30" y="310"/>
			<point x="31" y="161"/>
		</contour>
	</outline>
</glyph>
<glyph name="o" format="1">
	<unicode hex="006F"/>
	<advance width="555"/>
	<outline>
		<contour>
			<point x="278" y="-12" type="curve" smooth="yes"/>
			<point x="429" y="-12"/>
			<point x="514" y="96"/>
			<point x="514" y="242" type="curve" smooth="yes"/>
			<point x="514" y="377"/>
			<point x="434" y="486"/>
			<point x="277" y="486" type="curve" smooth="yes"/>
			<point x="140" y="486"/>
			<point x="40" y="385"/>
			<point x="40" y="229" type="curve" smooth="yes"/>
			<point x="40" y="95"/>
			<point x="124" y="-12"/>
		</contour>
		<contour>
			<point x="283" y="103" type="curve" smooth="yes"/>
			<point x="216" y="103"/>
			<point x="159" y="150"/>
			<point x="159" y="235" type="curve" smooth="yes"/>
			<point x="159" y="316"/>
			<point x="205" y="369"/>
			<point x="274" y="369" type="curve" smooth="yes"/>
			<point x="337" y="369"/>
			<point x="393" y="323"/>
			<point x="393" y="233" type="curve" smooth="yes"/>
			<point x="393" y="152"/>
			<point x="350" y="103"/>
		</contour>
	</outline>
</glyph>
<glyph name="p" format="1">
	<unicode hex="0070"/>
	<advance width="636"/>
	<outline>
		<contour>
			<point x="220" y="473" type="line"/>
			<point x="20" y="473" type="line"/>
			<point x="21" y="417"/>
			<point x="22" y="360"/>
			<point x="22" y="304" type="curve"/>
			<point x="20" y="-207" type="line"/>
			<point x="240" y="-197" type="line"/>
			<point x="240" y="374" type="line"/>
		</contour>
		<contour>
			<point x="240" y="263" type="line"/>
			<point x="238" y="320"/>
			<point x="270" y="354"/>
			<point x="305" y="354" type="curve" smooth="yes"/>
			<point x="365" y="354"/>
			<point x="387" y="296"/>
			<point x="387" y="243" type="curve" smooth="yes"/>
			<point x="387" y="171"/>
			<point x="356" y="111"/>
			<point x="294" y="111" type="curve" smooth="yes"/>
			<point x="284" y="111"/>
			<point x="226" y="115"/>
			<point x="205" y="161" type="curve"/>
			<point x="147" y="92" type="line"/>
			<point x="184" y="42"/>
			<point x="254" y="-9"/>
			<point x="379" y="-9" type="curve" smooth="yes"/>
			<point x="493" y="-9"/>
			<point x="606" y="69"/>
			<point x="606" y="239" type="curve" smooth="yes"/>
			<point x="606" y="437"/>
			<point x="478" y="490"/>
			<point x="358" y="490" type="curve" smooth="yes"/>
			<point x="264" y="490"/>
			<point x="214" y="431"/>
			<point x="197" y="348" type="curve"/>
		</contour>
	</outline>
</glyph>
<glyph name="q" format="1">
  <advance width="1058"/>
  <unicode hex="0071"/>
  <outline>
    <contour>
      <point x="604" y="647" type="curve" smooth="yes"/>
      <point x="604" y="712"/>
      <point x="656" y="764"/>
      <point x="721" y="764" type="curve" smooth="yes"/>
      <point x="786" y="764"/>
      <point x="838" y="712"/>
      <point x="838" y="647" type="curve" smooth="yes"/>
      <point x="838" y="582"/>
      <point x="786" y="530"/>
      <point x="721" y="530" type="curve" smooth="yes"/>
      <point x="656" y="530"/>
      <point x="604" y="582"/>
    </contour>
    <contour>
      <point x="124" y="242" type="curve" smooth="yes"/>
      <point x="124" y="398"/>
      <point x="250" y="524"/>
      <point x="406" y="524" type="curve" smooth="yes"/>
      <point x="562" y="524"/>
      <point x="688" y="398"/>
      <point x="688" y="242" type="curve" smooth="yes"/>
      <point x="688" y="86"/>
      <point x="562" y="-40"/>
      <point x="406" y="-40" type="curve" smooth="yes"/>
      <point x="250" y="-40"/>
      <point x="124" y="86"/>
    </contour>
  </outline>
</glyph>
<glyph name="r" format="1">
  <advance width="395"/>
  <unicode hex="0072"/>
  <outline>
    <contour>
      <point x="192" y="277" type="curve"/>
      <point x="166" y="358" type="line"/>
      <point x="170.953" y="366.805"/>
      <point x="180.492" y="399.705"/>
      <point x="191" y="414" type="curve"/>
      <point x="194" y="410"/>
      <point x="197.913" y="403.515"/>
      <point x="201" y="407.365" type="curve"/>
      <point x="241.662" y="458.088"/>
      <point x="301.27" y="514.923"/>
      <point x="397" y="474" type="curve"/>
      <point x="363" y="347" type="line"/>
      <point x="253" y="386"/>
      <point x="206" y="318"/>
    </contour>
    <contour>
      <point x="76" y="482" type="line"/>
      <point x="194" y="484" type="line"/>
      <point x="191" y="409" type="line"/>
      <point x="194" y="364" type="line"/>
      <point x="193.394" y="241.455"/>
      <point x="187.564" y="108.46"/>
      <point x="194" y="0" type="curve"/>
      <point x="80" y="0" type="line"/>
    </contour>
  </outline>
</glyph>
<glyph name="s" format="1">
  <advance width="386"/>
  <unicode hex="0073"/>
  <outline>
    <contour>
      <point x="363" y="444" type="line"/>
      <point x="342" y="463"/>
      <point x="287" y="485"/>
      <point x="220" y="485" type="curve" smooth="yes"/>
      <point x="100" y="485"/>
      <point x="55" y="399"/>
      <point x="55" y="339" type="curve" smooth="yes"/>
      <point x="55" y="198"/>
      <point x="249" y="181"/>
      <point x="249" y="123" type="curve" smooth="yes"/>
      <point x="249" y="95"/>
      <point x="233" y="82"/>
      <point x="199" y="82" type="curve" smooth="yes"/>
      <point x="130" y="82"/>
      <point x="65" y="128"/>
      <point x="65" y="128" type="curve"/>
      <point x="55" y="90"/>
      <point x="42" y="45"/>
      <point x="45" y="11" type="curve"/>
      <point x="45" y="11"/>
      <point x="116" y="-22"/>
      <point x="199" y="-22" type="curve" smooth="yes"/>
      <point x="322" y="-22"/>
      <point x="373" y="51"/>
      <point x="374" y="126" type="curve" smooth="yes"/>
      <point x="377" y="271"/>
      <point x="169" y="269"/>
      <point x="169" y="341" type="curve" smooth="yes"/>
      <point x="169" y="363"/>
      <point x="186.706" y="381.901"/>
      <point x="212" y="383" type="curve" smooth="yes"/>
      <point x="272.929" y="385.646"/>
      <point x="289.953" y="370.061"/>
      <point x="326" y="350" type="curve"/>
    </contour>
  </outline>
</glyph>
<glyph name="t" format="1">
	<unicode hex="0074"/>
	<advance width="422"/>
	<outline>
		<contour>
			<point x="281" y="-16" type="curve" smooth="yes"/>
			<point x="318" y="-16"/>
			<point x="369" y="-1"/>
			<point x="392" y="13" type="curve"/>
			<point x="379" y="95" type="line"/>
			<point x="379" y="95"/>
			<point x="357" y="86"/>
			<point x="320" y="83" type="curve" smooth="yes"/>
			<point x="271" y="79"/>
			<point x="265" y="139"/>
			<point x="265" y="168" type="curve" smooth="yes"/>
			<point x="268" y="443" type="line"/>
			<point x="269" y="474" type="line"/>
			<point x="269" y="634" type="line"/>
			<point x="61" y="622" type="line"/>
			<point x="52" y="455" type="line"/>
			<point x="51" y="155" type="line"/>
			<point x="51" y="8"/>
			<point x="190" y="-16"/>
		</contour>
		<contour>
			<point x="0" y="367" type="line"/>
			<point x="371" y="367" type="line"/>
			<point x="371" y="480" type="line"/>
			<point x="0" y="480" type="line"/>
		</contour>
	</outline>
</glyph>
<glyph name="v" format="1">
	<unicode hex="0076"/>
	<advance width="438"/>
	<outline>
		<contour>
			<point x="157" y="2" type="line"/>
			<point x="227" y="2" type="line"/>
			<point x="204" y="252" type="line"/>
			<point x="133" y="479" type="line"/>
			<point x="6" y="479" type="line"/>
		</contour>
		<contour>
			<point x="166" y="2" type="line"/>
			<point x="272" y="2" type="line"/>
			<point x="434" y="479" type="line"/>
			<point x="326" y="479" type="line"/>
			<point x="197" y="90" type="line"/>
		</contour>
	</outline>
</glyph>
<glyph name="w" format="1">
	<unicode hex="0077"/>
	<advance width="668"/>
	<outline>
		<contour>
			<point x="51" y="2" type="line"/>
			<point x="211" y="2" type="line"/>
			<point x="193" y="252" type="line"/>
			<point x="120" y="479" type="line"/>
			<point x="-90" y="479" type="line"/>
		</contour>
		<contour>
			<point x="60" y="2" type="line"/>
			<point x="266" y="2" type="line"/>
			<point x="374" y="388" type="line"/>
			<point x="359" y="479" type="line"/>
			<point x="290" y="479" type="line"/>
			<point x="181" y="90" type="line"/>
		</contour>
		<contour>
			<point x="411" y="2" type="line"/>
			<point x="481" y="2" type="line"/>
			<point x="458" y="241" type="line"/>
			<point x="378" y="479" type="line"/>
			<point x="300" y="479" type="line"/>
			<point x="294" y="344" type="line"/>
		</contour>
		<contour>
			<point x="420" y="2" type="line"/>
			<point x="529" y="2" type="line"/>
			<point x="668" y="479" type="line"/>
			<point x="560" y="479" type="line"/>
			<point x="451" y="90" type="line"/>
		</contour>
	</outline>
</glyph>
<glyph name="logo.scribble" format="1">
	<unicode hex="E007"/>
	<advance width="4320"/>
	<outline>
		<contour>
			<point x="50" y="810" type="line"/>
			<point x="50" y="-304" type="line"/>
			<point x="4270" y="-304" type="line"/>
			<point x="4270" y="810" type="line"/>
		</contour>
		<contour>
			<point x="149" y="710" type="line"/>
			<point x="4169" y="710" type="line"/>
			<point x="4169" y="-201" type="line"/>
			<point x="149" y="-201" type="line"/>
		</contour>
		<component base="logo.scribbletext" xOffset="1305"/>
		<component base="logo.scribblehand" xScale="0.983" yScale="0.983" xOffset="105" yOffset="-42"/>
	</outline>
</glyph>
<glyph name="logo.eventer" format="1">
	<advance width="3740"/>
	<outline>
		<contour>
			<point x="766" y="521" type="line"/>
			<point x="766" y="1" type="line"/>
			<point x="930" y="1" type="line"/>
			<point x="930" y="521" type="line"/>
		</contour>
		<contour>
			<point x="1053" y="521" type="line"/>
			<point x="789" y="63" type="line"/>
			<point x="930" y="3" type="line"/>
			<point x="1255" y="521" type="line"/>
		</contour>
		<contour>
			<point x="152" y="145" type="line"/>
			<point x="152" y="354" type="line"/>
			<point x="558" y="354" type="line"/>
			<point x="558" y="313" type="line"/>
			<point x="199" y="313" type="line"/>
			<point x="199" y="184" type="line"/>
			<point x="712" y="184" type="line"/>
			<point x="712" y="521" type="line"/>
			<point x="-2" y="521" type="line"/>
			<point x="-2" y="0" type="line"/>
			<point x="715" y="0" type="line"/>
			<point x="715" y="145" type="line"/>
		</contour>
		<contour>
			<point x="2090" y="521" type="line"/>
			<point x="2090" y="0" type="line"/>
			<point x="2245" y="0" type="line"/>
			<point x="2245" y="521" type="line"/>
		</contour>
		<contour>
			<point x="2088" y="521" type="line"/>
			<point x="2088" y="368" type="line"/>
			<point x="2523" y="368" type="line"/>
			<point x="2523" y="521" type="line"/>
		</contour>
		<contour>
			<point x="2374" y="521" type="line"/>
			<point x="2374" y="0" type="line"/>
			<point x="2535" y="0" type="line"/>
			<point x="2535" y="521" type="line"/>
		</contour>
		<contour>
			<point x="2652" y="521" type="line"/>
			<point x="2652" y="0" type="line"/>
			<point x="2855" y="0" type="line"/>
			<point x="2855" y="521" type="line"/>
		</contour>
		<contour>
			<point x="2585" y="419" type="line"/>
			<point x="2585" y="263" type="line"/>
			<point x="2941" y="263" type="line"/>
			<point x="2941" y="419" type="line"/>
		</contour>
		<contour>
			<point x="1452" y="145" type="line"/>
			<point x="1452" y="354" type="line"/>
			<point x="1858" y="354" type="line"/>
			<point x="1858" y="313" type="line"/>
			<point x="1499" y="313" type="line"/>
			<point x="1499" y="184" type="line"/>
			<point x="2012" y="184" type="line"/>
			<point x="2012" y="521" type="line"/>
			<point x="1298" y="521" type="line"/>
			<point x="1298" y="0" type="line"/>
			<point x="2015" y="0" type="line"/>
			<point x="2015" y="145" type="line"/>
		</contour>
		<contour>
			<point x="3157" y="145" type="line"/>
			<point x="3157" y="354" type="line"/>
			<point x="3563" y="354" type="line"/>
			<point x="3563" y="313" type="line"/>
			<point x="3204" y="313" type="line"/>
			<point x="3204" y="184" type="line"/>
			<point x="3717" y="184" type="line"/>
			<point x="3717" y="521" type="line"/>
			<point x="3003" y="521" type="line"/>
			<point x="3003" y="0" type="line"/>
			<point x="3720" y="0" type="line"/>
			<point x="3720" y="145" type="line"/>
		</contour>
	</outline>
</glyph>
<glyph name="logo.mooniak.tml" format="1">
	<advance width="3305"/>
	<outline>
		<contour>
			<point x="375" y="-209" type="curve" smooth="yes"/>
			<point x="519" y="-209"/>
			<point x="722" y="-150"/>
			<point x="725" y="55" type="curve"/>
			<point x="604" y="55" type="line"/>
			<point x="604" y="-76"/>
			<point x="469" y="-111"/>
			<point x="395" y="-111" type="curve" smooth="yes"/>
			<point x="221" y="-111"/>
			<point x="108" y="15"/>
			<point x="108" y="178" type="curve" smooth="yes"/>
			<point x="108" y="261"/>
			<point x="111" y="399"/>
			<point x="205" y="399" type="curve" smooth="yes"/>
			<point x="233" y="399"/>
			<point x="254" y="379"/>
			<point x="254" y="354" type="curve" smooth="yes"/>
			<point x="254" y="318"/>
			<point x="229" y="302"/>
			<point x="202" y="302" type="curve" smooth="yes"/>
			<point x="170" y="302"/>
			<point x="118" y="323"/>
			<point x="108" y="358" type="curve"/>
			<point x="81" y="295" type="line"/>
			<point x="90" y="245"/>
			<point x="139" y="217"/>
			<point x="201" y="217" type="curve" smooth="yes"/>
			<point x="309" y="217"/>
			<point x="348" y="290"/>
			<point x="348" y="360" type="curve" smooth="yes"/>
			<point x="348" y="430"/>
			<point x="291" y="487"/>
			<point x="210" y="487" type="curve" smooth="yes"/>
			<point x="73" y="487"/>
			<point x="10" y="339"/>
			<point x="10" y="178" type="curve" smooth="yes"/>
			<point x="10" y="-41"/>
			<point x="146" y="-209"/>
		</contour>
		<contour>
			<point x="376" y="9" type="line"/>
			<point x="740" y="9" type="line"/>
			<point x="745" y="110" type="line"/>
			<point x="496" y="110" type="line"/>
			<point x="496" y="475" type="line"/>
			<point x="376" y="469" type="line"/>
		</contour>
		<contour>
			<point x="736" y="9" type="line"/>
			<point x="880" y="9"/>
			<point x="959" y="101"/>
			<point x="958" y="236" type="curve" smooth="yes"/>
			<point x="957" y="367"/>
			<point x="885" y="492"/>
			<point x="735" y="490" type="curve" smooth="yes"/>
			<point x="660" y="489"/>
			<point x="607" y="445"/>
			<point x="607" y="369" type="curve" smooth="yes"/>
			<point x="607" y="71" type="line"/>
			<point x="722" y="71" type="line"/>
			<point x="722" y="338" type="line" smooth="yes"/>
			<point x="722" y="370"/>
			<point x="730" y="389"/>
			<point x="756" y="389" type="curve" smooth="yes"/>
			<point x="809" y="389"/>
			<point x="860" y="321"/>
			<point x="860" y="243" type="curve" smooth="yes"/>
			<point x="860" y="183"/>
			<point x="838" y="109"/>
			<point x="738" y="110" type="curve"/>
		</contour>
		<contour>
			<point x="1041" y="-208" type="curve"/>
			<point x="1153" y="-224" type="line"/>
			<point x="1154" y="-189"/>
			<point x="1174" y="-155"/>
			<point x="1235" y="-154" type="curve" smooth="yes"/>
			<point x="1341" y="-153" type="line" smooth="yes"/>
			<point x="1533" y="-151"/>
			<point x="1632" y="-29"/>
			<point x="1632" y="122" type="curve" smooth="yes"/>
			<point x="1632" y="247"/>
			<point x="1569" y="323"/>
			<point x="1469" y="324" type="curve" smooth="yes"/>
			<point x="1377" y="325"/>
			<point x="1341" y="239"/>
			<point x="1339" y="196" type="curve"/>
			<point x="1393" y="169" type="line"/>
			<point x="1393" y="205"/>
			<point x="1410" y="232"/>
			<point x="1447" y="232" type="curve" smooth="yes"/>
			<point x="1491" y="232"/>
			<point x="1515" y="179"/>
			<point x="1514" y="127" type="curve" smooth="yes"/>
			<point x="1511" y="-7"/>
			<point x="1446" y="-60"/>
			<point x="1316" y="-60" type="curve" smooth="yes"/>
			<point x="1210" y="-60" type="line" smooth="yes"/>
			<point x="1082" y="-60"/>
			<point x="1042" y="-120"/>
		</contour>
		<contour>
			<point x="1047" y="-5" type="line"/>
			<point x="1163" y="-5" type="line"/>
			<point x="1163" y="380" type="line"/>
			<point x="1293" y="380" type="line"/>
			<point x="1293" y="-5" type="line"/>
			<point x="1403" y="-5" type="line"/>
			<point x="1403" y="380" type="line"/>
			<point x="1493" y="380" type="line"/>
			<point x="1498" y="481" type="line"/>
			<point x="1047" y="481" type="line"/>
		</contour>
		<contour>
			<point x="1683" y="-6" type="line"/>
			<point x="1784" y="-6" type="line"/>
			<point x="1782" y="406" type="line" smooth="yes"/>
			<point x="1781" y="594"/>
			<point x="1662" y="694"/>
			<point x="1502" y="692" type="curve" smooth="yes"/>
			<point x="1402" y="691"/>
			<point x="1292" y="637"/>
			<point x="1292" y="526" type="curve" smooth="yes"/>
			<point x="1292" y="462"/>
			<point x="1329" y="417"/>
			<point x="1375" y="417" type="curve"/>
			<point x="1423" y="460" type="line"/>
			<point x="1407" y="460"/>
			<point x="1383" y="482"/>
			<point x="1383" y="505" type="curve" smooth="yes"/>
			<point x="1383" y="550"/>
			<point x="1432" y="572"/>
			<point x="1498" y="572" type="curve" smooth="yes"/>
			<point x="1596" y="572"/>
			<point x="1682" y="505"/>
			<point x="1682" y="389" type="curve" smooth="yes"/>
		</contour>
		<contour>
			<point x="2210" y="126" type="line"/>
			<point x="2185" y="41"/>
			<point x="2137" y="-27"/>
			<point x="2030" y="-27" type="curve" smooth="yes"/>
			<point x="1966" y="-27"/>
			<point x="1901" y="19"/>
			<point x="1901" y="111" type="curve" smooth="yes"/>
			<point x="1901" y="463" type="line"/>
			<point x="2013" y="473" type="line"/>
			<point x="2013" y="154" type="line" smooth="yes"/>
			<point x="2013" y="98"/>
			<point x="2042" y="72"/>
			<point x="2075" y="72" type="curve" smooth="yes"/>
			<point x="2114" y="72"/>
			<point x="2158" y="100"/>
			<point x="2158" y="153" type="curve"/>
		</contour>
		<contour>
			<point x="2544" y="-11" type="line"/>
			<point x="2175" y="-11" type="line"/>
			<point x="2148" y="75" type="line"/>
			<point x="2148" y="463" type="line"/>
			<point x="2266" y="473" type="line"/>
			<point x="2266" y="83" type="line"/>
			<point x="2427" y="83" type="line"/>
			<point x="2427" y="463" type="line"/>
			<point x="2544" y="473" type="line"/>
		</contour>
		<contour>
			<point x="2636" y="145" type="curve" smooth="yes"/>
			<point x="2636" y="253"/>
			<point x="2698" y="309"/>
			<point x="2816" y="309" type="curve" smooth="yes"/>
			<point x="3067" y="309" type="line" smooth="yes"/>
			<point x="3141" y="309"/>
			<point x="3253" y="280"/>
			<point x="3253" y="146" type="curve" smooth="yes"/>
			<point x="3253" y="16"/>
			<point x="3154" y="-21"/>
			<point x="3072" y="-21" type="curve" smooth="yes"/>
			<point x="3051" y="-21" type="line"/>
			<point x="3041" y="57" type="line"/>
			<point x="3112" y="59"/>
			<point x="3139" y="106"/>
			<point x="3139" y="147" type="curve" smooth="yes"/>
			<point x="3139" y="204"/>
			<point x="3084" y="219"/>
			<point x="3043" y="219" type="curve" smooth="yes"/>
			<point x="2807" y="221" type="line" smooth="yes"/>
			<point x="2754" y="221"/>
			<point x="2726" y="192"/>
			<point x="2726" y="152" type="curve" smooth="yes"/>
			<point x="2726" y="109"/>
			<point x="2768" y="68"/>
			<point x="2829" y="68" type="curve" smooth="yes"/>
			<point x="2884" y="68"/>
			<point x="2928" y="109"/>
			<point x="2928" y="186" type="curve" smooth="yes"/>
			<point x="2928" y="257" type="line"/>
			<point x="2938" y="269" type="line"/>
			<point x="2938" y="398" type="line"/>
			<point x="2840" y="398" type="line"/>
			<point x="2840" y="277" type="line"/>
			<point x="2755" y="277" type="line"/>
			<point x="2755" y="480" type="line"/>
			<point x="3144" y="480" type="line"/>
			<point x="3137" y="398" type="line"/>
			<point x="3041" y="398" type="line"/>
			<point x="3041" y="176" type="line" smooth="yes"/>
			<point x="3041" y="72"/>
			<point x="2981" y="-23"/>
			<point x="2838" y="-23" type="curve" smooth="yes"/>
			<point x="2698" y="-23"/>
			<point x="2636" y="70"/>
		</contour>
		<contour>
			<point x="2982" y="550" type="curve" smooth="yes"/>
			<point x="3024" y="550"/>
			<point x="3056" y="583"/>
			<point x="3056" y="624" type="curve" smooth="yes"/>
			<point x="3056" y="666"/>
			<point x="3024" y="700"/>
			<point x="2982" y="700" type="curve" smooth="yes"/>
			<point x="2940" y="700"/>
			<point x="2908" y="666"/>
			<point x="2908" y="624" type="curve" smooth="yes"/>
			<point x="2908" y="583"/>
			<point x="2940" y="550"/>
		</contour>
	</outline>
</glyph>
<glyph name="logo.scribblehand" format="1">
	<advance width="1147"/>
	<outline>
		<contour>
			<point x="744" y="-91" type="curve"/>
			<point x="745" y="-91"/>
			<point x="746" y="-92"/>
			<point x="747" y="-91" type="curve" smooth="yes"/>
			<point x="752" y="-87"/>
			<point x="747" y="-79"/>
			<point x="753" y="-76" type="curve" smooth="yes"/>
			<point x="755" y="-74"/>
			<point x="757" y="-72"/>
			<point x="757" y="-70" type="curve" smooth="yes"/>
			<point x="757" y="-69"/>
			<point x="756" y="-69"/>
			<point x="755" y="-68" type="curve" smooth="yes"/>
			<point x="753" y="-66"/>
			<point x="749" y="-70"/>
			<point x="749" y="-66" type="curve" smooth="yes"/>
			<point x="749" y="-65"/>
			<point x="751" y="-67"/>
			<point x="749" y="-67" type="curve" smooth="yes"/>
			<point x="747" y="-67"/>
			<point x="745" y="-67"/>
			<point x="745" y="-66" type="curve" smooth="yes"/>
			<point x="745" y="-63"/>
			<point x="747" y="-62"/>
			<point x="746" y="-62" type="curve" smooth="yes"/>
			<point x="743" y="-62"/>
			<point x="742" y="-58"/>
			<point x="743" y="-57" type="curve" smooth="yes"/>
			<point x="744" y="-56"/>
			<point x="746" y="-55"/>
			<point x="745" y="-54" type="curve" smooth="yes"/>
			<point x="744" y="-52"/>
			<point x="746" y="-48"/>
			<point x="744" y="-48" type="curve" smooth="yes"/>
			<point x="743" y="-48"/>
			<point x="742" y="-50"/>
			<point x="741" y="-49" type="curve" smooth="yes"/>
			<point x="737" y="-46"/>
			<point x="736" y="-44"/>
			<point x="734" y="-40" type="curve"/>
			<point x="733" y="-41"/>
			<point x="730" y="-40"/>
			<point x="730" y="-39" type="curve" smooth="yes"/>
			<point x="730" y="-34"/>
			<point x="729" y="-32"/>
			<point x="727" y="-29" type="curve" smooth="yes"/>
			<point x="725" y="-25"/>
			<point x="725" y="-18"/>
			<point x="721" y="-18" type="curve" smooth="yes"/>
			<point x="720" y="-18"/>
			<point x="719" y="-17"/>
			<point x="718" y="-18" type="curve"/>
			<point x="716" y="-15"/>
			<point x="714" y="-14"/>
			<point x="713" y="-12" type="curve" smooth="yes"/>
			<point x="713" y="-12"/>
			<point x="711" y="-12"/>
			<point x="711" y="-11" type="curve" smooth="yes"/>
			<point x="711" y="-6"/>
			<point x="704" y="-7"/>
			<point x="704" y="-3" type="curve" smooth="yes"/>
			<point x="704" y="-2"/>
			<point x="705" y="0"/>
			<point x="704" y="3" type="curve" smooth="yes"/>
			<point x="702" y="6"/>
			<point x="696" y="5"/>
			<point x="696" y="9" type="curve" smooth="yes"/>
			<point x="696" y="10"/>
			<point x="698" y="10"/>
			<point x="697" y="11" type="curve" smooth="yes"/>
			<point x="696" y="12"/>
			<point x="692" y="10"/>
			<point x="691" y="14" type="curve" smooth="yes"/>
			<point x="690" y="17"/>
			<point x="694" y="18"/>
			<point x="693" y="20" type="curve" smooth="yes"/>
			<point x="692" y="22"/>
			<point x="693" y="26"/>
			<point x="690" y="26" type="curve" smooth="yes"/>
			<point x="689" y="26"/>
			<point x="687" y="27"/>
			<point x="687" y="28" type="curve" smooth="yes"/>
			<point x="687" y="29"/>
			<point x="688" y="30"/>
			<point x="687" y="30" type="curve" smooth="yes"/>
			<point x="683" y="30"/>
			<point x="678" y="36"/>
			<point x="681" y="36" type="curve" smooth="yes"/>
			<point x="682" y="36"/>
			<point x="682" y="38"/>
			<point x="681" y="39" type="curve" smooth="yes"/>
			<point x="679" y="41"/>
			<point x="681" y="47"/>
			<point x="678" y="45" type="curve" smooth="yes"/>
			<point x="672" y="43"/>
			<point x="674" y="52"/>
			<point x="669" y="53" type="curve" smooth="yes"/>
			<point x="664" y="54"/>
			<point x="660" y="61"/>
			<point x="656" y="61" type="curve" smooth="yes"/>
			<point x="650" y="61"/>
			<point x="643" y="58"/>
			<point x="643" y="64" type="curve" smooth="yes"/>
			<point x="643" y="66"/>
			<point x="642" y="67"/>
			<point x="641" y="67" type="curve"/>
			<point x="641" y="70"/>
			<point x="643" y="71"/>
			<point x="641" y="72" type="curve" smooth="yes"/>
			<point x="638" y="73"/>
			<point x="634" y="71"/>
			<point x="632" y="73" type="curve"/>
			<point x="632" y="71"/>
			<point x="630" y="66"/>
			<point x="628" y="70" type="curve" smooth="yes"/>
			<point x="627" y="73"/>
			<point x="633" y="74"/>
			<point x="632" y="75" type="curve" smooth="yes"/>
			<point x="630" y="77"/>
			<point x="628" y="80"/>
			<point x="626" y="82" type="curve" smooth="yes"/>
			<point x="625" y="83"/>
			<point x="624" y="81"/>
			<point x="623" y="81" type="curve" smooth="yes"/>
			<point x="620" y="81"/>
			<point x="626" y="86"/>
			<point x="624" y="87" type="curve" smooth="yes"/>
			<point x="621" y="88"/>
			<point x="617" y="92"/>
			<point x="615" y="92" type="curve" smooth="yes"/>
			<point x="614" y="92"/>
			<point x="613" y="91"/>
			<point x="613" y="92" type="curve" smooth="yes"/>
			<point x="613" y="93"/>
			<point x="615" y="92"/>
			<point x="614" y="94" type="curve" smooth="yes"/>
			<point x="613" y="96"/>
			<point x="609" y="96"/>
			<point x="609" y="99" type="curve" smooth="yes"/>
			<point x="609" y="105"/>
			<point x="601" y="104"/>
			<point x="601" y="108" type="curve" smooth="yes"/>
			<point x="601" y="114"/>
			<point x="597" y="114"/>
			<point x="593" y="115" type="curve"/>
			<point x="595" y="117"/>
			<point x="593" y="120"/>
			<point x="592" y="121" type="curve" smooth="yes"/>
			<point x="590" y="124"/>
			<point x="590" y="119"/>
			<point x="589" y="120" type="curve" smooth="yes"/>
			<point x="588" y="121"/>
			<point x="587" y="121"/>
			<point x="587" y="122" type="curve" smooth="yes"/>
			<point x="587" y="124"/>
			<point x="589" y="124"/>
			<point x="588" y="126" type="curve" smooth="yes"/>
			<point x="587" y="128"/>
			<point x="583" y="128"/>
			<point x="583" y="130" type="curve" smooth="yes"/>
			<point x="583" y="138"/>
			<point x="572" y="138"/>
			<point x="573" y="144" type="curve" smooth="yes"/>
			<point x="575" y="150"/>
			<point x="565" y="149"/>
			<point x="566" y="152" type="curve" smooth="yes"/>
			<point x="568" y="159"/>
			<point x="555" y="163"/>
			<point x="560" y="163" type="curve" smooth="yes"/>
			<point x="561" y="163"/>
			<point x="564" y="163"/>
			<point x="562" y="164" type="curve" smooth="yes"/>
			<point x="561" y="165"/>
			<point x="564" y="169"/>
			<point x="561" y="170" type="curve" smooth="yes"/>
			<point x="558" y="171"/>
			<point x="560" y="175"/>
			<point x="556" y="177" type="curve" smooth="yes"/>
			<point x="554" y="179"/>
			<point x="551" y="180"/>
			<point x="550" y="182" type="curve" smooth="yes"/>
			<point x="549" y="184"/>
			<point x="549" y="186"/>
			<point x="548" y="187" type="curve" smooth="yes"/>
			<point x="547" y="188"/>
			<point x="545" y="188"/>
			<point x="545" y="191" type="curve" smooth="yes"/>
			<point x="545" y="192"/>
			<point x="547" y="194"/>
			<point x="546" y="195" type="curve" smooth="yes"/>
			<point x="545" y="196"/>
			<point x="544" y="197"/>
			<point x="545" y="199" type="curve" smooth="yes"/>
			<point x="548" y="207"/>
			<point x="556" y="212"/>
			<point x="564" y="217" type="curve" smooth="yes"/>
			<point x="564" y="217"/>
			<point x="564" y="218"/>
			<point x="564" y="218" type="curve" smooth="yes"/>
			<point x="565" y="219"/>
			<point x="566" y="219"/>
			<point x="567" y="220" type="curve" smooth="yes"/>
			<point x="568" y="221"/>
			<point x="566" y="224"/>
			<point x="567" y="224" type="curve" smooth="yes"/>
			<point x="568" y="224"/>
			<point x="568" y="221"/>
			<point x="570" y="223" type="curve" smooth="yes"/>
			<point x="573" y="225"/>
			<point x="577" y="230"/>
			<point x="582" y="230" type="curve" smooth="yes"/>
			<point x="588" y="230"/>
			<point x="592" y="235"/>
			<point x="597" y="230" type="curve" smooth="yes"/>
			<point x="599" y="228"/>
			<point x="606" y="229"/>
			<point x="610" y="229" type="curve" smooth="yes"/>
			<point x="613" y="229"/>
			<point x="615" y="224"/>
			<point x="619" y="224" type="curve" smooth="yes"/>
			<point x="626" y="224"/>
			<point x="631" y="214"/>
			<point x="635" y="218" type="curve" smooth="yes"/>
			<point x="636" y="219"/>
			<point x="632" y="221"/>
			<point x="634" y="221" type="curve" smooth="yes"/>
			<point x="635" y="221"/>
			<point x="636" y="220"/>
			<point x="636" y="221" type="curve" smooth="yes"/>
			<point x="636" y="223"/>
			<point x="635" y="225"/>
			<point x="636" y="225" type="curve" smooth="yes"/>
			<point x="639" y="225"/>
			<point x="637" y="219"/>
			<point x="639" y="217" type="curve" smooth="yes"/>
			<point x="641" y="216"/>
			<point x="642" y="214"/>
			<point x="644" y="212" type="curve" smooth="yes"/>
			<point x="645" y="210"/>
			<point x="646" y="210"/>
			<point x="648" y="209" type="curve" smooth="yes"/>
			<point x="650" y="208"/>
			<point x="653" y="206"/>
			<point x="655" y="205" type="curve" smooth="yes"/>
			<point x="655" y="205"/>
			<point x="656" y="204"/>
			<point x="657" y="204" type="curve" smooth="yes"/>
			<point x="659" y="204"/>
			<point x="660" y="202"/>
			<point x="663" y="199" type="curve" smooth="yes"/>
			<point x="664" y="198"/>
			<point x="667" y="198"/>
			<point x="667" y="197" type="curve" smooth="yes"/>
			<point x="667" y="196"/>
			<point x="668" y="197"/>
			<point x="668" y="197" type="curve" smooth="yes"/>
			<point x="669" y="196"/>
			<point x="669" y="195"/>
			<point x="670" y="195" type="curve" smooth="yes"/>
			<point x="671" y="195"/>
			<point x="672" y="196"/>
			<point x="674" y="195" type="curve" smooth="yes"/>
			<point x="678" y="191"/>
			<point x="688" y="195"/>
			<point x="689" y="190" type="curve" smooth="yes"/>
			<point x="690" y="185"/>
			<point x="693" y="185"/>
			<point x="696" y="183" type="curve"/>
			<point x="696" y="184"/>
			<point x="697" y="185"/>
			<point x="698" y="184" type="curve" smooth="yes"/>
			<point x="699" y="183"/>
			<point x="700" y="177"/>
			<point x="702" y="180" type="curve" smooth="yes"/>
			<point x="703" y="181"/>
			<point x="703" y="181"/>
			<point x="704" y="181" type="curve" smooth="yes"/>
			<point x="705" y="181"/>
			<point x="704" y="180"/>
			<point x="707" y="177" type="curve" smooth="yes"/>
			<point x="709" y="175"/>
			<point x="714" y="175"/>
			<point x="715" y="172" type="curve"/>
			<point x="719" y="172"/>
			<point x="721" y="165"/>
			<point x="723" y="168" type="curve" smooth="yes"/>
			<point x="724" y="169"/>
			<point x="724" y="170"/>
			<point x="725" y="170" type="curve" smooth="yes"/>
			<point x="727" y="170"/>
			<point x="727" y="166"/>
			<point x="727" y="165" type="curve" smooth="yes"/>
			<point x="727" y="164"/>
			<point x="723" y="162"/>
			<point x="725" y="162" type="curve" smooth="yes"/>
			<point x="727" y="162"/>
			<point x="730" y="160"/>
			<point x="732" y="160" type="curve"/>
			<point x="732" y="165"/>
			<point x="733" y="161"/>
			<point x="737" y="161" type="curve" smooth="yes"/>
			<point x="740" y="161"/>
			<point x="742" y="161"/>
			<point x="742" y="160" type="curve" smooth="yes"/>
			<point x="742" y="157"/>
			<point x="744" y="154"/>
			<point x="746" y="153" type="curve"/>
			<point x="745" y="152"/>
			<point x="743" y="150"/>
			<point x="744" y="149" type="curve" smooth="yes"/>
			<point x="747" y="146"/>
			<point x="748" y="141"/>
			<point x="753" y="141" type="curve" smooth="yes"/>
			<point x="754" y="141"/>
			<point x="755" y="142"/>
			<point x="755" y="141" type="curve" smooth="yes"/>
			<point x="755" y="140"/>
			<point x="755" y="139"/>
			<point x="756" y="139" type="curve" smooth="yes"/>
			<point x="758" y="139"/>
			<point x="758" y="140"/>
			<point x="760" y="139" type="curve" smooth="yes"/>
			<point x="763" y="138"/>
			<point x="762" y="131"/>
			<point x="764" y="132" type="curve" smooth="yes"/>
			<point x="768" y="135"/>
			<point x="767" y="127"/>
			<point x="770" y="127" type="curve" smooth="yes"/>
			<point x="773" y="127"/>
			<point x="773" y="128"/>
			<point x="775" y="127" type="curve"/>
			<point x="775" y="130"/>
			<point x="777" y="131"/>
			<point x="779" y="132" type="curve"/>
			<point x="780" y="129"/>
			<point x="784" y="127"/>
			<point x="780" y="124" type="curve" smooth="yes"/>
			<point x="779" y="122"/>
			<point x="778" y="121"/>
			<point x="778" y="120" type="curve"/>
			<point x="781" y="120"/>
			<point x="781" y="117"/>
			<point x="786" y="118" type="curve"/>
			<point x="786" y="114"/>
			<point x="790" y="114"/>
			<point x="792" y="111" type="curve" smooth="yes"/>
			<point x="793" y="110"/>
			<point x="795" y="109"/>
			<point x="796" y="108" type="curve" smooth="yes"/>
			<point x="798" y="106"/>
			<point x="801" y="109"/>
			<point x="802" y="106" type="curve" smooth="yes"/>
			<point x="803" y="104"/>
			<point x="802" y="100"/>
			<point x="803" y="99" type="curve" smooth="yes"/>
			<point x="804" y="98"/>
			<point x="806" y="98"/>
			<point x="807" y="97" type="curve" smooth="yes"/>
			<point x="810" y="94"/>
			<point x="809" y="83"/>
			<point x="814" y="84" type="curve" smooth="yes"/>
			<point x="820" y="85"/>
			<point x="819" y="78"/>
			<point x="822" y="78" type="curve" smooth="yes"/>
			<point x="825" y="78"/>
			<point x="831" y="84"/>
			<point x="831" y="81" type="curve" smooth="yes"/>
			<point x="831" y="77"/>
			<point x="835" y="75"/>
			<point x="833" y="75" type="curve" smooth="yes"/>
			<point x="832" y="75"/>
			<point x="831" y="73"/>
			<point x="830" y="74" type="curve" smooth="yes"/>
			<point x="829" y="75"/>
			<point x="833" y="76"/>
			<point x="831" y="76" type="curve" smooth="yes"/>
			<point x="829" y="76"/>
			<point x="826" y="76"/>
			<point x="823" y="76" type="curve"/>
			<point x="826" y="71"/>
			<point x="836" y="72"/>
			<point x="836" y="65" type="curve" smooth="yes"/>
			<point x="836" y="63"/>
			<point x="837" y="61"/>
			<point x="839" y="61" type="curve" smooth="yes"/>
			<point x="841" y="61"/>
			<point x="843" y="63"/>
			<point x="844" y="62" type="curve" smooth="yes"/>
			<point x="845" y="61"/>
			<point x="843" y="56"/>
			<point x="845" y="55" type="curve" smooth="yes"/>
			<point x="847" y="54"/>
			<point x="847" y="56"/>
			<point x="847" y="55" type="curve" smooth="yes"/>
			<point x="847" y="54"/>
			<point x="847" y="52"/>
			<point x="848" y="52" type="curve" smooth="yes"/>
			<point x="853" y="52"/>
			<point x="852" y="42"/>
			<point x="856" y="42" type="curve" smooth="yes"/>
			<point x="858" y="42"/>
			<point x="859" y="38"/>
			<point x="862" y="40" type="curve" smooth="yes"/>
			<point x="864" y="42"/>
			<point x="870" y="41"/>
			<point x="868" y="39" type="curve" smooth="yes"/>
			<point x="867" y="38"/>
			<point x="865" y="36"/>
			<point x="866" y="34" type="curve" smooth="yes"/>
			<point x="867" y="33"/>
			<point x="866" y="31"/>
			<point x="868" y="31" type="curve" smooth="yes"/>
			<point x="870" y="31"/>
			<point x="872" y="36"/>
			<point x="872" y="33" type="curve" smooth="yes"/>
			<point x="872" y="32"/>
			<point x="874" y="33"/>
			<point x="874" y="32" type="curve" smooth="yes"/>
			<point x="874" y="26"/>
			<point x="872" y="22"/>
			<point x="877" y="17" type="curve" smooth="yes"/>
			<point x="878" y="16"/>
			<point x="883" y="17"/>
			<point x="884" y="17" type="curve"/>
			<point x="884" y="18"/>
			<point x="883" y="21"/>
			<point x="884" y="21" type="curve" smooth="yes"/>
			<point x="886" y="21"/>
			<point x="888" y="22"/>
			<point x="888" y="19" type="curve" smooth="yes"/>
			<point x="888" y="18"/>
			<point x="887" y="18"/>
			<point x="887" y="16" type="curve" smooth="yes"/>
			<point x="887" y="11"/>
			<point x="895" y="16"/>
			<point x="895" y="11" type="curve" smooth="yes"/>
			<point x="895" y="9"/>
			<point x="889" y="11"/>
			<point x="891" y="9" type="curve" smooth="yes"/>
			<point x="892" y="8"/>
			<point x="891" y="5"/>
			<point x="892" y="5" type="curve" smooth="yes"/>
			<point x="896" y="5"/>
			<point x="899" y="10"/>
			<point x="899" y="7" type="curve" smooth="yes"/>
			<point x="899" y="4"/>
			<point x="901" y="1"/>
			<point x="900" y="-1" type="curve"/>
			<point x="902" y="-1"/>
			<point x="901" y="-4"/>
			<point x="903" y="-6" type="curve" smooth="yes"/>
			<point x="906" y="-8"/>
			<point x="909" y="-5"/>
			<point x="909" y="-2" type="curve"/>
			<point x="913" y="-2"/>
			<point x="921" y="-4"/>
			<point x="919" y="-6" type="curve" smooth="yes"/>
			<point x="918" y="-7"/>
			<point x="914" y="-10"/>
			<point x="917" y="-10" type="curve" smooth="yes"/>
			<point x="919" y="-10"/>
			<point x="921" y="-11"/>
			<point x="921" y="-13" type="curve" smooth="yes"/>
			<point x="921" y="-14"/>
			<point x="921" y="-15"/>
			<point x="921" y="-15" type="curve" smooth="yes"/>
			<point x="924" y="-14"/>
			<point x="929" y="-14"/>
			<point x="931" y="-15" type="curve"/>
			<point x="932" y="-13"/>
			<point x="929" y="-12"/>
			<point x="931" y="-11" type="curve" smooth="yes"/>
			<point x="933" y="-10"/>
			<point x="938" y="-7"/>
			<point x="939" y="-11" type="curve" smooth="yes"/>
			<point x="940" y="-13"/>
			<point x="939" y="-15"/>
			<point x="939" y="-17" type="curve"/>
			<point x="936" y="-16"/>
			<point x="932" y="-12"/>
			<point x="932" y="-15" type="curve" smooth="yes"/>
			<point x="932" y="-16"/>
			<point x="932" y="-17"/>
			<point x="931" y="-17" type="curve"/>
			<point x="931" y="-19"/>
			<point x="930" y="-24"/>
			<point x="932" y="-24" type="curve" smooth="yes"/>
			<point x="939" y="-24"/>
			<point x="941" y="-22"/>
			<point x="947" y="-22" type="curve" smooth="yes"/>
			<point x="951" y="-22"/>
			<point x="952" y="-24"/>
			<point x="953" y="-24" type="curve" smooth="yes"/>
			<point x="957" y="-24"/>
			<point x="962" y="-25"/>
			<point x="964" y="-23" type="curve" smooth="yes"/>
			<point x="965" y="-22"/>
			<point x="964" y="-19"/>
			<point x="965" y="-18" type="curve" smooth="yes"/>
			<point x="969" y="-14"/>
			<point x="976" y="-2"/>
			<point x="969" y="-2" type="curve" smooth="yes"/>
			<point x="968" y="-2"/>
			<point x="966" y="0"/>
			<point x="968" y="1" type="curve" smooth="yes"/>
			<point x="972" y="4"/>
			<point x="976" y="10"/>
			<point x="972" y="15" type="curve" smooth="yes"/>
			<point x="971" y="16"/>
			<point x="967" y="16"/>
			<point x="968" y="17" type="curve" smooth="yes"/>
			<point x="973" y="21"/>
			<point x="975" y="31"/>
			<point x="971" y="36" type="curve" smooth="yes"/>
			<point x="969" y="37"/>
			<point x="969" y="37"/>
			<point x="968" y="38" type="curve" smooth="yes"/>
			<point x="966" y="40"/>
			<point x="961" y="38"/>
			<point x="958" y="40" type="curve" smooth="yes"/>
			<point x="957" y="41"/>
			<point x="961" y="44"/>
			<point x="958" y="44" type="curve" smooth="yes"/>
			<point x="957" y="44"/>
			<point x="956" y="44"/>
			<point x="956" y="44" type="curve" smooth="yes"/>
			<point x="956" y="45"/>
			<point x="956" y="48"/>
			<point x="956" y="48" type="curve" smooth="yes"/>
			<point x="960" y="47" type="line"/>
			<point x="960" y="45"/>
			<point x="957" y="44"/>
			<point x="958" y="44" type="curve" smooth="yes"/>
			<point x="961" y="44"/>
			<point x="963" y="44"/>
			<point x="963" y="45" type="curve" smooth="yes"/>
			<point x="963" y="48"/>
			<point x="965" y="51"/>
			<point x="962" y="52" type="curve" smooth="yes"/>
			<point x="960" y="53"/>
			<point x="955" y="54"/>
			<point x="954" y="59" type="curve"/>
			<point x="952" y="58"/>
			<point x="951" y="62"/>
			<point x="946" y="63" type="curve" smooth="yes"/>
			<point x="941" y="64"/>
			<point x="925" y="70"/>
			<point x="934" y="70" type="curve" smooth="yes"/>
			<point x="935" y="70"/>
			<point x="936" y="70"/>
			<point x="936" y="70" type="curve" smooth="yes"/>
			<point x="935" y="72"/>
			<point x="933" y="76"/>
			<point x="935" y="78" type="curve" smooth="yes"/>
			<point x="936" y="80"/>
			<point x="940" y="84"/>
			<point x="938" y="84" type="curve" smooth="yes"/>
			<point x="936" y="84"/>
			<point x="935" y="85"/>
			<point x="934" y="84" type="curve" smooth="yes"/>
			<point x="931" y="81"/>
			<point x="924" y="75"/>
			<point x="924" y="82" type="curve" smooth="yes"/>
			<point x="924" y="83"/>
			<point x="928" y="84"/>
			<point x="925" y="85" type="curve" smooth="yes"/>
			<point x="922" y="86"/>
			<point x="919" y="87"/>
			<point x="919" y="91" type="curve" smooth="yes"/>
			<point x="919" y="92"/>
			<point x="917" y="91"/>
			<point x="917" y="92" type="curve" smooth="yes"/>
			<point x="917" y="93"/>
			<point x="918" y="96"/>
			<point x="916" y="96" type="curve" smooth="yes"/>
			<point x="912" y="96"/>
			<point x="909" y="98"/>
			<point x="909" y="99" type="curve" smooth="yes"/>
			<point x="909" y="104"/>
			<point x="902" y="107"/>
			<point x="906" y="110" type="curve" smooth="yes"/>
			<point x="907" y="111"/>
			<point x="910" y="115"/>
			<point x="908" y="115" type="curve" smooth="yes"/>
			<point x="905" y="115"/>
			<point x="902" y="110"/>
			<point x="900" y="113" type="curve" smooth="yes"/>
			<point x="897" y="116"/>
			<point x="898" y="120"/>
			<point x="891" y="122" type="curve" smooth="yes"/>
			<point x="884" y="125"/>
			<point x="877" y="128"/>
			<point x="873" y="137" type="curve" smooth="yes"/>
			<point x="872" y="139"/>
			<point x="872" y="141"/>
			<point x="870" y="142" type="curve" smooth="yes"/>
			<point x="868" y="144"/>
			<point x="869" y="146"/>
			<point x="865" y="148" type="curve" smooth="yes"/>
			<point x="863" y="149"/>
			<point x="861" y="148"/>
			<point x="859" y="147" type="curve"/>
			<point x="857" y="151"/>
			<point x="850" y="149"/>
			<point x="850" y="155" type="curve" smooth="yes"/>
			<point x="850" y="157"/>
			<point x="848" y="157"/>
			<point x="848" y="158" type="curve" smooth="yes"/>
			<point x="848" y="159"/>
			<point x="851" y="159"/>
			<point x="851" y="160" type="curve" smooth="yes"/>
			<point x="851" y="160"/>
			<point x="851" y="161"/>
			<point x="851" y="161" type="curve" smooth="yes"/>
			<point x="850" y="164"/>
			<point x="844" y="166"/>
			<point x="842" y="164" type="curve" smooth="yes"/>
			<point x="841" y="163"/>
			<point x="839" y="161"/>
			<point x="839" y="162" type="curve" smooth="yes"/>
			<point x="839" y="165"/>
			<point x="836" y="166"/>
			<point x="835" y="169" type="curve" smooth="yes"/>
			<point x="834" y="171"/>
			<point x="839" y="170"/>
			<point x="836" y="172" type="curve" smooth="yes"/>
			<point x="835" y="173"/>
			<point x="834" y="174"/>
			<point x="833" y="174" type="curve" smooth="yes"/>
			<point x="831" y="174"/>
			<point x="831" y="170"/>
			<point x="830" y="171" type="curve" smooth="yes"/>
			<point x="829" y="172"/>
			<point x="828" y="172"/>
			<point x="829" y="173" type="curve" smooth="yes"/>
			<point x="829" y="173"/>
			<point x="831" y="173"/>
			<point x="831" y="174" type="curve" smooth="yes"/>
			<point x="831" y="179"/>
			<point x="824" y="179"/>
			<point x="824" y="184" type="curve" smooth="yes"/>
			<point x="824" y="186"/>
			<point x="824" y="190"/>
			<point x="823" y="190" type="curve" smooth="yes"/>
			<point x="822" y="190"/>
			<point x="820" y="186"/>
			<point x="820" y="188" type="curve" smooth="yes"/>
			<point x="820" y="191"/>
			<point x="820" y="194"/>
			<point x="818" y="196" type="curve" smooth="yes"/>
			<point x="815" y="198"/>
			<point x="810" y="198"/>
			<point x="810" y="201" type="curve" smooth="yes"/>
			<point x="810" y="202"/>
			<point x="812" y="202"/>
			<point x="811" y="202" type="curve" smooth="yes"/>
			<point x="808" y="202"/>
			<point x="810" y="209"/>
			<point x="806" y="209" type="curve"/>
			<point x="806" y="209"/>
			<point x="806" y="212"/>
			<point x="804" y="212" type="curve" smooth="yes"/>
			<point x="803" y="212"/>
			<point x="801" y="213"/>
			<point x="801" y="212" type="curve" smooth="yes"/>
			<point x="801" y="209"/>
			<point x="801" y="206"/>
			<point x="799" y="206" type="curve" smooth="yes"/>
			<point x="795" y="206"/>
			<point x="801" y="212"/>
			<point x="799" y="214" type="curve" smooth="yes"/>
			<point x="796" y="217"/>
			<point x="797" y="219"/>
			<point x="792" y="224" type="curve" smooth="yes"/>
			<point x="791" y="225"/>
			<point x="790" y="227"/>
			<point x="789" y="227" type="curve" smooth="yes"/>
			<point x="788" y="227"/>
			<point x="787" y="226"/>
			<point x="786" y="227" type="curve" smooth="yes"/>
			<point x="784" y="229"/>
			<point x="784" y="234"/>
			<point x="781" y="234" type="curve" smooth="yes"/>
			<point x="780" y="234"/>
			<point x="779" y="234"/>
			<point x="779" y="235" type="curve" smooth="yes"/>
			<point x="779" y="235"/>
			<point x="780" y="237"/>
			<point x="779" y="237" type="curve" smooth="yes"/>
			<point x="776" y="237"/>
			<point x="775" y="241"/>
			<point x="773" y="241" type="curve" smooth="yes"/>
			<point x="766" y="241"/>
			<point x="766" y="251"/>
			<point x="762" y="251" type="curve" smooth="yes"/>
			<point x="759" y="251"/>
			<point x="757" y="251"/>
			<point x="757" y="252" type="curve" smooth="yes"/>
			<point x="757" y="253"/>
			<point x="758" y="254"/>
			<point x="757" y="254" type="curve" smooth="yes"/>
			<point x="752" y="254"/>
			<point x="747" y="257"/>
			<point x="742" y="262" type="curve" smooth="yes"/>
			<point x="741" y="263"/>
			<point x="737" y="263"/>
			<point x="735" y="264" type="curve" smooth="yes"/>
			<point x="731" y="267"/>
			<point x="727" y="272"/>
			<point x="721" y="272" type="curve" smooth="yes"/>
			<point x="719" y="272"/>
			<point x="715" y="269"/>
			<point x="715" y="271" type="curve" smooth="yes"/>
			<point x="715" y="272"/>
			<point x="716" y="274"/>
			<point x="715" y="274" type="curve" smooth="yes"/>
			<point x="711" y="274"/>
			<point x="709" y="274"/>
			<point x="704" y="279" type="curve" smooth="yes"/>
			<point x="703" y="280"/>
			<point x="703" y="282"/>
			<point x="702" y="282" type="curve" smooth="yes"/>
			<point x="697" y="282"/>
			<point x="693" y="286"/>
			<point x="691" y="286" type="curve" smooth="yes"/>
			<point x="690" y="286"/>
			<point x="690" y="286"/>
			<point x="689" y="286" type="curve" smooth="yes"/>
			<point x="688" y="286"/>
			<point x="688" y="287"/>
			<point x="687" y="289" type="curve" smooth="yes"/>
			<point x="685" y="291"/>
			<point x="681" y="290"/>
			<point x="681" y="291" type="curve" smooth="yes"/>
			<point x="681" y="295"/>
			<point x="675" y="293"/>
			<point x="671" y="294" type="curve" smooth="yes"/>
			<point x="669" y="295"/>
			<point x="667" y="295"/>
			<point x="665" y="297" type="curve" smooth="yes"/>
			<point x="664" y="298"/>
			<point x="665" y="298"/>
			<point x="664" y="300" type="curve" smooth="yes"/>
			<point x="659" y="304"/>
			<point x="648" y="300"/>
			<point x="644" y="306" type="curve" smooth="yes"/>
			<point x="641" y="312"/>
			<point x="632" y="309"/>
			<point x="631" y="315" type="curve" smooth="yes"/>
			<point x="630" y="319"/>
			<point x="633" y="320"/>
			<point x="636" y="324" type="curve" smooth="yes"/>
			<point x="639" y="327"/>
			<point x="646" y="323"/>
			<point x="647" y="326" type="curve" smooth="yes"/>
			<point x="648" y="328"/>
			<point x="653" y="329"/>
			<point x="654" y="327" type="curve" smooth="yes"/>
			<point x="655" y="324"/>
			<point x="659" y="327"/>
			<point x="661" y="325" type="curve" smooth="yes"/>
			<point x="664" y="323"/>
			<point x="666" y="322"/>
			<point x="669" y="322" type="curve" smooth="yes"/>
			<point x="674" y="322"/>
			<point x="685" y="313"/>
			<point x="685" y="318" type="curve" smooth="yes"/>
			<point x="685" y="320"/>
			<point x="687" y="318"/>
			<point x="689" y="318" type="curve" smooth="yes"/>
			<point x="691" y="318"/>
			<point x="690" y="322"/>
			<point x="691" y="320" type="curve" smooth="yes"/>
			<point x="692" y="319"/>
			<point x="694" y="319"/>
			<point x="693" y="318" type="curve" smooth="yes"/>
			<point x="690" y="315"/>
			<point x="696" y="313"/>
			<point x="699" y="313" type="curve" smooth="yes"/>
			<point x="700" y="313"/>
			<point x="700" y="314"/>
			<point x="701" y="314" type="curve" smooth="yes"/>
			<point x="705" y="314"/>
			<point x="708" y="313"/>
			<point x="710" y="309" type="curve" smooth="yes"/>
			<point x="712" y="306"/>
			<point x="715" y="305"/>
			<point x="719" y="305" type="curve" smooth="yes"/>
			<point x="720" y="305"/>
			<point x="721" y="306"/>
			<point x="722" y="306" type="curve" smooth="yes"/>
			<point x="723" y="306"/>
			<point x="724" y="304"/>
			<point x="726" y="304" type="curve" smooth="yes"/>
			<point x="727" y="304"/>
			<point x="729" y="308"/>
			<point x="729" y="306" type="curve" smooth="yes"/>
			<point x="729" y="305"/>
			<point x="727" y="303"/>
			<point x="729" y="303" type="curve" smooth="yes"/>
			<point x="733" y="303"/>
			<point x="740" y="305"/>
			<point x="744" y="303" type="curve" smooth="yes"/>
			<point x="748" y="301"/>
			<point x="756" y="303"/>
			<point x="760" y="297" type="curve" smooth="yes"/>
			<point x="763" y="294"/>
			<point x="766" y="291"/>
			<point x="769" y="292" type="curve" smooth="yes"/>
			<point x="776" y="294"/>
			<point x="785" y="282"/>
			<point x="790" y="287" type="curve" smooth="yes"/>
			<point x="791" y="289"/>
			<point x="789" y="293"/>
			<point x="792" y="293" type="curve" smooth="yes"/>
			<point x="793" y="293"/>
			<point x="795" y="293"/>
			<point x="795" y="292" type="curve" smooth="yes"/>
			<point x="795" y="290"/>
			<point x="793" y="289"/>
			<point x="793" y="287" type="curve" smooth="yes"/>
			<point x="793" y="283"/>
			<point x="802" y="282"/>
			<point x="808" y="282" type="curve" smooth="yes"/>
			<point x="809" y="282"/>
			<point x="809" y="281"/>
			<point x="810" y="281" type="curve" smooth="yes"/>
			<point x="811" y="281"/>
			<point x="812" y="282"/>
			<point x="813" y="283" type="curve"/>
			<point x="813" y="282"/>
			<point x="814" y="283"/>
			<point x="814" y="282" type="curve" smooth="yes"/>
			<point x="814" y="280"/>
			<point x="812" y="280"/>
			<point x="813" y="279" type="curve" smooth="yes"/>
			<point x="819" y="273"/>
			<point x="824" y="276"/>
			<point x="831" y="275" type="curve"/>
			<point x="831" y="274"/>
			<point x="830" y="274"/>
			<point x="830" y="273" type="curve" smooth="yes"/>
			<point x="830" y="270"/>
			<point x="840" y="271"/>
			<point x="840" y="269" type="curve" smooth="yes"/>
			<point x="840" y="268"/>
			<point x="842" y="268"/>
			<point x="843" y="267" type="curve" smooth="yes"/>
			<point x="846" y="263"/>
			<point x="848" y="264"/>
			<point x="853" y="262" type="curve" smooth="yes"/>
			<point x="855" y="261"/>
			<point x="862" y="263"/>
			<point x="862" y="260" type="curve" smooth="yes"/>
			<point x="862" y="258"/>
			<point x="861" y="257"/>
			<point x="862" y="257" type="curve" smooth="yes"/>
			<point x="866" y="257"/>
			<point x="872" y="257"/>
			<point x="877" y="253" type="curve" smooth="yes"/>
			<point x="877" y="253"/>
			<point x="878" y="254"/>
			<point x="879" y="253" type="curve" smooth="yes"/>
			<point x="880" y="252"/>
			<point x="880" y="250"/>
			<point x="881" y="249" type="curve" smooth="yes"/>
			<point x="883" y="248"/>
			<point x="883" y="246"/>
			<point x="885" y="248" type="curve" smooth="yes"/>
			<point x="886" y="249"/>
			<point x="886" y="251"/>
			<point x="888" y="251" type="curve" smooth="yes"/>
			<point x="891" y="251"/>
			<point x="887" y="247"/>
			<point x="889" y="245" type="curve" smooth="yes"/>
			<point x="890" y="243"/>
			<point x="890" y="247"/>
			<point x="892" y="246" type="curve" smooth="yes"/>
			<point x="896" y="243"/>
			<point x="898" y="240"/>
			<point x="902" y="239" type="curve" smooth="yes"/>
			<point x="902" y="239"/>
			<point x="902" y="236"/>
			<point x="903" y="237" type="curve" smooth="yes"/>
			<point x="906" y="239"/>
			<point x="907" y="241"/>
			<point x="909" y="240" type="curve" smooth="yes"/>
			<point x="912" y="239"/>
			<point x="912" y="235"/>
			<point x="914" y="235" type="curve" smooth="yes"/>
			<point x="919" y="235"/>
			<point x="922" y="234"/>
			<point x="923" y="230" type="curve"/>
			<point x="925" y="231"/>
			<point x="925" y="227"/>
			<point x="928" y="227" type="curve" smooth="yes"/>
			<point x="931" y="227"/>
			<point x="933" y="225"/>
			<point x="932" y="221" type="curve"/>
			<point x="939" y="220"/>
			<point x="947" y="223"/>
			<point x="949" y="216" type="curve"/>
			<point x="951" y="217"/>
			<point x="953" y="218"/>
			<point x="953" y="216" type="curve" smooth="yes"/>
			<point x="953" y="213"/>
			<point x="955" y="210"/>
			<point x="958" y="210" type="curve" smooth="yes"/>
			<point x="961" y="210"/>
			<point x="964" y="212"/>
			<point x="964" y="210" type="curve" smooth="yes"/>
			<point x="964" y="209"/>
			<point x="964" y="208"/>
			<point x="964" y="208" type="curve" smooth="yes"/>
			<point x="967" y="208"/>
			<point x="967" y="207"/>
			<point x="968" y="207" type="curve" smooth="yes"/>
			<point x="971" y="207"/>
			<point x="972" y="212"/>
			<point x="973" y="210" type="curve" smooth="yes"/>
			<point x="975" y="208"/>
			<point x="978" y="207"/>
			<point x="976" y="206" type="curve"/>
			<point x="976" y="203" type="line"/>
			<point x="978" y="202"/>
			<point x="977" y="197"/>
			<point x="979" y="198" type="curve" smooth="yes"/>
			<point x="983" y="199"/>
			<point x="986" y="201"/>
			<point x="988" y="203" type="curve"/>
			<point x="989" y="201"/>
			<point x="991" y="203"/>
			<point x="994" y="201" type="curve"/>
			<point x="995" y="205"/>
			<point x="1004" y="204"/>
			<point x="1004" y="201" type="curve" smooth="yes"/>
			<point x="1004" y="199"/>
			<point x="999" y="197"/>
			<point x="1002" y="196" type="curve" smooth="yes"/>
			<point x="1005" y="195"/>
			<point x="1004" y="193"/>
			<point x="1004" y="191" type="curve"/>
			<point x="1002" y="191"/>
			<point x="1001" y="192"/>
			<point x="1001" y="191" type="curve" smooth="yes"/>
			<point x="1001" y="188"/>
			<point x="1001" y="184"/>
			<point x="1001" y="182" type="curve"/>
			<point x="1004" y="182"/>
			<point x="1004" y="180"/>
			<point x="1006" y="181" type="curve" smooth="yes"/>
			<point x="1008" y="182"/>
			<point x="1009" y="186"/>
			<point x="1012" y="185" type="curve" smooth="yes"/>
			<point x="1016" y="184"/>
			<point x="1019" y="183"/>
			<point x="1021" y="185" type="curve"/>
			<point x="1022" y="182"/>
			<point x="1028" y="181"/>
			<point x="1028" y="179" type="curve" smooth="yes"/>
			<point x="1028" y="177"/>
			<point x="1024" y="179"/>
			<point x="1024" y="177" type="curve" smooth="yes"/>
			<point x="1024" y="176"/>
			<point x="1024" y="175"/>
			<point x="1023" y="174" type="curve" smooth="yes"/>
			<point x="1022" y="173"/>
			<point x="1018" y="175"/>
			<point x="1019" y="173" type="curve" smooth="yes"/>
			<point x="1020" y="170"/>
			<point x="1027" y="170"/>
			<point x="1029" y="172" type="curve" smooth="yes"/>
			<point x="1030" y="173"/>
			<point x="1028" y="174"/>
			<point x="1028" y="175" type="curve" smooth="yes"/>
			<point x="1028" y="177"/>
			<point x="1034" y="176"/>
			<point x="1034" y="180" type="curve" smooth="yes"/>
			<point x="1034" y="181"/>
			<point x="1031" y="183"/>
			<point x="1033" y="183" type="curve" smooth="yes"/>
			<point x="1035" y="183"/>
			<point x="1039" y="187"/>
			<point x="1039" y="184" type="curve" smooth="yes"/>
			<point x="1039" y="183"/>
			<point x="1040" y="182"/>
			<point x="1041" y="182" type="curve"/>
			<point x="1042" y="182"/>
			<point x="1044" y="184"/>
			<point x="1044" y="183" type="curve" smooth="yes"/>
			<point x="1044" y="181"/>
			<point x="1048" y="183"/>
			<point x="1048" y="180" type="curve"/>
			<point x="1048" y="180" type="line"/>
			<point x="1043" y="180"/>
			<point x="1042" y="177"/>
			<point x="1038" y="177" type="curve"/>
			<point x="1039" y="174"/>
			<point x="1038" y="174"/>
			<point x="1037" y="172" type="curve"/>
			<point x="1038" y="172"/>
			<point x="1041" y="171"/>
			<point x="1043" y="172" type="curve" smooth="yes"/>
			<point x="1048" y="174"/>
			<point x="1051" y="182"/>
			<point x="1056" y="181" type="curve" smooth="yes"/>
			<point x="1062" y="180"/>
			<point x="1065" y="183"/>
			<point x="1070" y="184" type="curve" smooth="yes"/>
			<point x="1077" y="186"/>
			<point x="1082" y="183"/>
			<point x="1086" y="187" type="curve" smooth="yes"/>
			<point x="1087" y="188"/>
			<point x="1087" y="191"/>
			<point x="1087" y="192" type="curve"/>
			<point x="1086" y="192"/>
			<point x="1085" y="188"/>
			<point x="1085" y="192" type="curve"/>
			<point x="1086" y="192"/>
			<point x="1087" y="196"/>
			<point x="1089" y="194" type="curve" smooth="yes"/>
			<point x="1090" y="193"/>
			<point x="1092" y="190"/>
			<point x="1092" y="192" type="curve" smooth="yes"/>
			<point x="1092" y="193"/>
			<point x="1088" y="202"/>
			<point x="1093" y="202" type="curve" smooth="yes"/>
			<point x="1095" y="202"/>
			<point x="1095" y="198"/>
			<point x="1096" y="199" type="curve" smooth="yes"/>
			<point x="1099" y="203"/>
			<point x="1098" y="208"/>
			<point x="1101" y="210" type="curve" smooth="yes"/>
			<point x="1106" y="214"/>
			<point x="1111" y="218"/>
			<point x="1111" y="223" type="curve" smooth="yes"/>
			<point x="1111" y="228"/>
			<point x="1117" y="230"/>
			<point x="1117" y="235" type="curve" smooth="yes"/>
			<point x="1117" y="240"/>
			<point x="1123" y="240"/>
			<point x="1127" y="245" type="curve"/>
			<point x="1126" y="245"/>
			<point x="1121" y="241"/>
			<point x="1121" y="243" type="curve" smooth="yes"/>
			<point x="1121" y="245"/>
			<point x="1120" y="245"/>
			<point x="1120" y="245" type="curve" smooth="yes"/>
			<point x="1121" y="246"/>
			<point x="1122" y="248"/>
			<point x="1121" y="248" type="curve" smooth="yes"/>
			<point x="1118" y="248"/>
			<point x="1115" y="247"/>
			<point x="1112" y="250" type="curve" smooth="yes"/>
			<point x="1109" y="254"/>
			<point x="1094" y="257"/>
			<point x="1092" y="252" type="curve" smooth="yes"/>
			<point x="1089" y="248"/>
			<point x="1074" y="253"/>
			<point x="1078" y="253" type="curve" smooth="yes"/>
			<point x="1079" y="253"/>
			<point x="1083" y="253"/>
			<point x="1082" y="254" type="curve" smooth="yes"/>
			<point x="1079" y="257"/>
			<point x="1073" y="256"/>
			<point x="1070" y="258" type="curve" smooth="yes"/>
			<point x="1067" y="259"/>
			<point x="1063" y="259"/>
			<point x="1063" y="261" type="curve" smooth="yes"/>
			<point x="1063" y="262"/>
			<point x="1063" y="263"/>
			<point x="1063" y="263" type="curve" smooth="yes"/>
			<point x="1057" y="268"/>
			<point x="1046" y="280"/>
			<point x="1043" y="273" type="curve" smooth="yes"/>
			<point x="1042" y="271"/>
			<point x="1040" y="271"/>
			<point x="1038" y="270" type="curve"/>
			<point x="1037" y="272"/>
			<point x="1032" y="269"/>
			<point x="1032" y="271" type="curve" smooth="yes"/>
			<point x="1032" y="273"/>
			<point x="1034" y="274"/>
			<point x="1033" y="274" type="curve" smooth="yes"/>
			<point x="1027" y="274"/>
			<point x="1019" y="276"/>
			<point x="1016" y="282" type="curve" smooth="yes"/>
			<point x="1015" y="284"/>
			<point x="1016" y="284"/>
			<point x="1016" y="285" type="curve"/>
			<point x="1013" y="286"/>
			<point x="1012" y="287"/>
			<point x="1010" y="287" type="curve" smooth="yes"/>
			<point x="1008" y="287"/>
			<point x="1008" y="283"/>
			<point x="1006" y="284" type="curve" smooth="yes"/>
			<point x="1004" y="285"/>
			<point x="1002" y="286"/>
			<point x="1002" y="287" type="curve" smooth="yes"/>
			<point x="1002" y="289"/>
			<point x="1000" y="287"/>
			<point x="1000" y="289" type="curve" smooth="yes"/>
			<point x="1000" y="291"/>
			<point x="997" y="293"/>
			<point x="998" y="294" type="curve" smooth="yes"/>
			<point x="1002" y="298"/>
			<point x="987" y="295"/>
			<point x="987" y="300" type="curve" smooth="yes"/>
			<point x="987" y="302"/>
			<point x="987" y="304"/>
			<point x="987" y="306" type="curve" smooth="yes"/>
			<point x="987" y="306"/>
			<point x="986" y="307"/>
			<point x="986" y="307" type="curve" smooth="yes"/>
			<point x="982" y="307"/>
			<point x="979" y="311"/>
			<point x="976" y="308" type="curve" smooth="yes"/>
			<point x="973" y="306"/>
			<point x="966" y="294"/>
			<point x="966" y="301" type="curve" smooth="yes"/>
			<point x="966" y="302"/>
			<point x="967" y="304"/>
			<point x="966" y="304" type="curve" smooth="yes"/>
			<point x="965" y="304"/>
			<point x="965" y="303"/>
			<point x="964" y="304" type="curve" smooth="yes"/>
			<point x="963" y="305"/>
			<point x="965" y="307"/>
			<point x="964" y="307" type="curve" smooth="yes"/>
			<point x="962" y="307"/>
			<point x="960" y="306"/>
			<point x="958" y="307" type="curve" smooth="yes"/>
			<point x="956" y="309"/>
			<point x="961" y="314"/>
			<point x="957" y="315" type="curve" smooth="yes"/>
			<point x="955" y="316"/>
			<point x="953" y="315"/>
			<point x="952" y="314" type="curve"/>
			<point x="952" y="316"/>
			<point x="950" y="315"/>
			<point x="950" y="317" type="curve"/>
			<point x="949" y="316"/>
			<point x="945" y="317"/>
			<point x="945" y="316" type="curve" smooth="yes"/>
			<point x="945" y="311"/>
			<point x="950" y="312"/>
			<point x="951" y="307" type="curve"/>
			<point x="949" y="308"/>
			<point x="944" y="307"/>
			<point x="944" y="308" type="curve" smooth="yes"/>
			<point x="944" y="311"/>
			<point x="944" y="312"/>
			<point x="943" y="312" type="curve" smooth="yes"/>
			<point x="941" y="312"/>
			<point x="940" y="313"/>
			<point x="939" y="312" type="curve" smooth="yes"/>
			<point x="938" y="311"/>
			<point x="936" y="309"/>
			<point x="935" y="309" type="curve" smooth="yes"/>
			<point x="931" y="309"/>
			<point x="935" y="317"/>
			<point x="931" y="322" type="curve" smooth="yes"/>
			<point x="930" y="323"/>
			<point x="930" y="320"/>
			<point x="929" y="322" type="curve" smooth="yes"/>
			<point x="927" y="324"/>
			<point x="928" y="329"/>
			<point x="924" y="329" type="curve" smooth="yes"/>
			<point x="923" y="329"/>
			<point x="923" y="335"/>
			<point x="921" y="333" type="curve" smooth="yes"/>
			<point x="920" y="331"/>
			<point x="919" y="333"/>
			<point x="918" y="334" type="curve"/>
			<point x="917" y="331"/>
			<point x="913" y="335"/>
			<point x="912" y="334" type="curve" smooth="yes"/>
			<point x="908" y="329"/>
			<point x="902" y="330"/>
			<point x="901" y="334" type="curve" smooth="yes"/>
			<point x="900" y="336"/>
			<point x="905" y="338"/>
			<point x="902" y="340" type="curve" smooth="yes"/>
			<point x="901" y="341"/>
			<point x="899" y="342"/>
			<point x="896" y="342" type="curve"/>
			<point x="897" y="347"/>
			<point x="891" y="345"/>
			<point x="892" y="349" type="curve"/>
			<point x="891" y="349"/>
			<point x="888" y="352"/>
			<point x="888" y="350" type="curve" smooth="yes"/>
			<point x="888" y="348"/>
			<point x="890" y="348"/>
			<point x="889" y="347" type="curve" smooth="yes"/>
			<point x="886" y="344"/>
			<point x="880" y="351"/>
			<point x="877" y="348" type="curve" smooth="yes"/>
			<point x="875" y="346"/>
			<point x="873" y="347"/>
			<point x="869" y="347" type="curve" smooth="yes"/>
			<point x="867" y="347"/>
			<point x="868" y="350"/>
			<point x="867" y="350" type="curve" smooth="yes"/>
			<point x="863" y="350"/>
			<point x="862" y="355"/>
			<point x="858" y="353" type="curve"/>
			<point x="858" y="356"/>
			<point x="859" y="358"/>
			<point x="858" y="358" type="curve" smooth="yes"/>
			<point x="856" y="358"/>
			<point x="854" y="360"/>
			<point x="855" y="363" type="curve"/>
			<point x="850" y="362"/>
			<point x="841" y="362"/>
			<point x="843" y="366" type="curve" smooth="yes"/>
			<point x="844" y="368"/>
			<point x="843" y="371"/>
			<point x="842" y="371" type="curve" smooth="yes"/>
			<point x="839" y="371"/>
			<point x="839" y="373"/>
			<point x="834" y="374" type="curve" smooth="yes"/>
			<point x="831" y="375"/>
			<point x="830" y="373"/>
			<point x="828" y="373" type="curve" smooth="yes"/>
			<point x="826" y="373"/>
			<point x="824" y="372"/>
			<point x="825" y="371" type="curve" smooth="yes"/>
			<point x="826" y="370"/>
			<point x="829" y="367"/>
			<point x="826" y="368" type="curve" smooth="yes"/>
			<point x="820" y="371"/>
			<point x="829" y="378"/>
			<point x="826" y="382" type="curve"/>
			<point x="822" y="381"/>
			<point x="814" y="377"/>
			<point x="811" y="380" type="curve" smooth="yes"/>
			<point x="810" y="381"/>
			<point x="810" y="385"/>
			<point x="808" y="383" type="curve" smooth="yes"/>
			<point x="806" y="381"/>
			<point x="801" y="382"/>
			<point x="801" y="384" type="curve" smooth="yes"/>
			<point x="801" y="385"/>
			<point x="802" y="388"/>
			<point x="801" y="388" type="curve" smooth="yes"/>
			<point x="795" y="388"/>
			<point x="786" y="383"/>
			<point x="786" y="390" type="curve"/>
			<point x="782" y="389"/>
			<point x="780" y="385"/>
			<point x="777" y="386" type="curve" smooth="yes"/>
			<point x="774" y="388"/>
			<point x="771" y="385"/>
			<point x="768" y="386" type="curve" smooth="yes"/>
			<point x="764" y="388"/>
			<point x="764" y="391"/>
			<point x="764" y="395" type="curve" smooth="yes"/>
			<point x="764" y="396"/>
			<point x="767" y="395"/>
			<point x="766" y="396" type="curve" smooth="yes"/>
			<point x="763" y="400"/>
			<point x="756" y="403"/>
			<point x="759" y="405" type="curve" smooth="yes"/>
			<point x="762" y="406"/>
			<point x="760" y="412"/>
			<point x="763" y="410" type="curve" smooth="yes"/>
			<point x="764" y="408"/>
			<point x="763" y="405"/>
			<point x="764" y="405" type="curve" smooth="yes"/>
			<point x="766" y="405"/>
			<point x="767" y="407"/>
			<point x="767" y="406" type="curve" smooth="yes"/>
			<point x="767" y="403"/>
			<point x="771" y="401"/>
			<point x="773" y="402" type="curve" smooth="yes"/>
			<point x="774" y="403"/>
			<point x="773" y="404"/>
			<point x="773" y="405" type="curve" smooth="yes"/>
			<point x="773" y="410"/>
			<point x="781" y="412"/>
			<point x="781" y="407" type="curve" smooth="yes"/>
			<point x="781" y="404"/>
			<point x="782" y="402"/>
			<point x="784" y="402" type="curve" smooth="yes"/>
			<point x="785" y="402"/>
			<point x="786" y="403"/>
			<point x="787" y="403" type="curve"/>
			<point x="787" y="404"/>
			<point x="791" y="403"/>
			<point x="790" y="405" type="curve" smooth="yes"/>
			<point x="789" y="407"/>
			<point x="789" y="410"/>
			<point x="790" y="411" type="curve" smooth="yes"/>
			<point x="791" y="412"/>
			<point x="792" y="413"/>
			<point x="793" y="412" type="curve" smooth="yes"/>
			<point x="795" y="411"/>
			<point x="795" y="410"/>
			<point x="796" y="410" type="curve" smooth="yes"/>
			<point x="798" y="410"/>
			<point x="801" y="410"/>
			<point x="801" y="408" type="curve" smooth="yes"/>
			<point x="801" y="406"/>
			<point x="798" y="403"/>
			<point x="800" y="401" type="curve" smooth="yes"/>
			<point x="801" y="400"/>
			<point x="806" y="399"/>
			<point x="806" y="401" type="curve" smooth="yes"/>
			<point x="806" y="403"/>
			<point x="807" y="404"/>
			<point x="808" y="405" type="curve"/>
			<point x="807" y="406"/>
			<point x="806" y="406"/>
			<point x="807" y="407" type="curve" smooth="yes"/>
			<point x="809" y="410"/>
			<point x="808" y="406"/>
			<point x="809" y="406" type="curve" smooth="yes"/>
			<point x="811" y="406"/>
			<point x="815" y="405"/>
			<point x="815" y="408" type="curve" smooth="yes"/>
			<point x="815" y="411"/>
			<point x="813" y="411"/>
			<point x="814" y="412" type="curve" smooth="yes"/>
			<point x="817" y="414"/>
			<point x="820" y="412"/>
			<point x="820" y="407" type="curve" smooth="yes"/>
			<point x="820" y="407"/>
			<point x="822" y="408"/>
			<point x="822" y="407" type="curve" smooth="yes"/>
			<point x="822" y="405"/>
			<point x="821" y="404"/>
			<point x="822" y="403" type="curve" smooth="yes"/>
			<point x="824" y="401"/>
			<point x="828" y="401"/>
			<point x="828" y="396" type="curve"/>
			<point x="830" y="397"/>
			<point x="833" y="396"/>
			<point x="835" y="396" type="curve"/>
			<point x="834" y="399"/>
			<point x="833" y="403"/>
			<point x="835" y="402" type="curve" smooth="yes"/>
			<point x="839" y="401"/>
			<point x="848" y="400"/>
			<point x="847" y="403" type="curve" smooth="yes"/>
			<point x="846" y="405"/>
			<point x="846" y="408"/>
			<point x="848" y="408" type="curve" smooth="yes"/>
			<point x="851" y="408"/>
			<point x="855" y="408"/>
			<point x="856" y="411" type="curve"/>
			<point x="856" y="410"/>
			<point x="857" y="410"/>
			<point x="857" y="410" type="curve"/>
			<point x="859" y="411"/>
			<point x="863" y="410"/>
			<point x="863" y="412" type="curve" smooth="yes"/>
			<point x="863" y="413"/>
			<point x="862" y="414"/>
			<point x="862" y="415" type="curve" smooth="yes"/>
			<point x="862" y="415"/>
			<point x="862" y="416"/>
			<point x="863" y="416" type="curve" smooth="yes"/>
			<point x="865" y="416"/>
			<point x="865" y="414"/>
			<point x="867" y="414" type="curve" smooth="yes"/>
			<point x="869" y="414"/>
			<point x="868" y="415"/>
			<point x="870" y="415" type="curve" smooth="yes"/>
			<point x="874" y="415"/>
			<point x="874" y="406"/>
			<point x="877" y="410" type="curve" smooth="yes"/>
			<point x="878" y="411"/>
			<point x="874" y="413"/>
			<point x="876" y="414" type="curve" smooth="yes"/>
			<point x="880" y="416"/>
			<point x="887" y="413"/>
			<point x="887" y="408" type="curve"/>
			<point x="896" y="410"/>
			<point x="903" y="411"/>
			<point x="909" y="411" type="curve" smooth="yes"/>
			<point x="910" y="411"/>
			<point x="910" y="408"/>
			<point x="911" y="410" type="curve" smooth="yes"/>
			<point x="912" y="411"/>
			<point x="914" y="414"/>
			<point x="917" y="412" type="curve" smooth="yes"/>
			<point x="921" y="407"/>
			<point x="935" y="411"/>
			<point x="943" y="411" type="curve" smooth="yes"/>
			<point x="944" y="411"/>
			<point x="943" y="413"/>
			<point x="944" y="413" type="curve" smooth="yes"/>
			<point x="946" y="413"/>
			<point x="946" y="411"/>
			<point x="947" y="411" type="curve" smooth="yes"/>
			<point x="952" y="411"/>
			<point x="954" y="411"/>
			<point x="958" y="413" type="curve" smooth="yes"/>
			<point x="961" y="414"/>
			<point x="965" y="414"/>
			<point x="967" y="414" type="curve" smooth="yes"/>
			<point x="968" y="414"/>
			<point x="969" y="416"/>
			<point x="971" y="416" type="curve" smooth="yes"/>
			<point x="977" y="416"/>
			<point x="984" y="414"/>
			<point x="989" y="416" type="curve" smooth="yes"/>
			<point x="993" y="417"/>
			<point x="995" y="419"/>
			<point x="998" y="419" type="curve"/>
			<point x="998" y="421"/>
			<point x="997" y="423"/>
			<point x="998" y="423" type="curve" smooth="yes"/>
			<point x="999" y="423"/>
			<point x="1000" y="422"/>
			<point x="1000" y="423" type="curve" smooth="yes"/>
			<point x="1000" y="425"/>
			<point x="1001" y="424"/>
			<point x="1004" y="426" type="curve" smooth="yes"/>
			<point x="1005" y="427"/>
			<point x="1005" y="428"/>
			<point x="1005" y="428" type="curve" smooth="yes"/>
			<point x="1008" y="428"/>
			<point x="1015" y="427"/>
			<point x="1015" y="425" type="curve" smooth="yes"/>
			<point x="1015" y="424"/>
			<point x="1012" y="424"/>
			<point x="1013" y="423" type="curve" smooth="yes"/>
			<point x="1016" y="421"/>
			<point x="1020" y="419"/>
			<point x="1021" y="422" type="curve" smooth="yes"/>
			<point x="1022" y="425"/>
			<point x="1022" y="432"/>
			<point x="1021" y="433" type="curve" smooth="yes"/>
			<point x="1020" y="434"/>
			<point x="1020" y="432"/>
			<point x="1019" y="432" type="curve" smooth="yes"/>
			<point x="1018" y="432"/>
			<point x="1017" y="432"/>
			<point x="1017" y="433" type="curve" smooth="yes"/>
			<point x="1017" y="434"/>
			<point x="1018" y="436"/>
			<point x="1017" y="436" type="curve" smooth="yes"/>
			<point x="1015" y="436"/>
			<point x="1012" y="434"/>
			<point x="1011" y="434" type="curve" smooth="yes"/>
			<point x="1008" y="434"/>
			<point x="1008" y="439"/>
			<point x="1010" y="439" type="curve" smooth="yes"/>
			<point x="1011" y="439"/>
			<point x="1012" y="439"/>
			<point x="1012" y="440" type="curve" smooth="yes"/>
			<point x="1012" y="444"/>
			<point x="1005" y="449"/>
			<point x="1009" y="447" type="curve" smooth="yes"/>
			<point x="1011" y="446"/>
			<point x="1012" y="449"/>
			<point x="1013" y="447" type="curve" smooth="yes"/>
			<point x="1015" y="445"/>
			<point x="1021" y="446"/>
			<point x="1021" y="448" type="curve" smooth="yes"/>
			<point x="1021" y="454"/>
			<point x="1019" y="455"/>
			<point x="1018" y="458" type="curve"/>
			<point x="1019" y="458"/>
			<point x="1019" y="459"/>
			<point x="1019" y="458" type="curve" smooth="yes"/>
			<point x="1019" y="457"/>
			<point x="1020" y="457"/>
			<point x="1020" y="457" type="curve" smooth="yes"/>
			<point x="1022" y="457"/>
			<point x="1024" y="457"/>
			<point x="1028" y="457" type="curve" smooth="yes"/>
			<point x="1028" y="457"/>
			<point x="1029" y="454"/>
			<point x="1029" y="455" type="curve" smooth="yes"/>
			<point x="1029" y="458"/>
			<point x="1035" y="461"/>
			<point x="1035" y="466" type="curve" smooth="yes"/>
			<point x="1035" y="467"/>
			<point x="1034" y="468"/>
			<point x="1034" y="469" type="curve" smooth="yes"/>
			<point x="1034" y="469"/>
			<point x="1035" y="470"/>
			<point x="1035" y="471" type="curve" smooth="yes"/>
			<point x="1035" y="476"/>
			<point x="1034" y="481"/>
			<point x="1035" y="487" type="curve"/>
			<point x="1031" y="487"/>
			<point x="1029" y="489"/>
			<point x="1026" y="490" type="curve" smooth="yes"/>
			<point x="1019" y="492"/>
			<point x="1011" y="489"/>
			<point x="1004" y="489" type="curve" smooth="yes"/>
			<point x="1002" y="489"/>
			<point x="1002" y="487"/>
			<point x="1001" y="487" type="curve" smooth="yes"/>
			<point x="999" y="487"/>
			<point x="999" y="490"/>
			<point x="998" y="490" type="curve" smooth="yes"/>
			<point x="989" y="490"/>
			<point x="971" y="500"/>
			<point x="971" y="490" type="curve" smooth="yes"/>
			<point x="971" y="488"/>
			<point x="971" y="487"/>
			<point x="972" y="487" type="curve" smooth="yes"/>
			<point x="973" y="487"/>
			<point x="973" y="488"/>
			<point x="974" y="488" type="curve" smooth="yes"/>
			<point x="975" y="488"/>
			<point x="975" y="485"/>
			<point x="975" y="485" type="curve" smooth="yes"/>
			<point x="978" y="485"/>
			<point x="984" y="485"/>
			<point x="982" y="483" type="curve" smooth="yes"/>
			<point x="980" y="482"/>
			<point x="980" y="482"/>
			<point x="980" y="482" type="curve" smooth="yes"/>
			<point x="976" y="482"/>
			<point x="974" y="490"/>
			<point x="971" y="487" type="curve" smooth="yes"/>
			<point x="966" y="482"/>
			<point x="977" y="478"/>
			<point x="973" y="474" type="curve" smooth="yes"/>
			<point x="969" y="472"/>
			<point x="962" y="473"/>
			<point x="965" y="477" type="curve" smooth="yes"/>
			<point x="966" y="478"/>
			<point x="969" y="480"/>
			<point x="967" y="480" type="curve" smooth="yes"/>
			<point x="966" y="480"/>
			<point x="964" y="479"/>
			<point x="964" y="480" type="curve" smooth="yes"/>
			<point x="964" y="483"/>
			<point x="964" y="485"/>
			<point x="961" y="489" type="curve" smooth="yes"/>
			<point x="955" y="494"/>
			<point x="943" y="492"/>
			<point x="935" y="492" type="curve" smooth="yes"/>
			<point x="931" y="492"/>
			<point x="925" y="495"/>
			<point x="925" y="492" type="curve" smooth="yes"/>
			<point x="925" y="490"/>
			<point x="925" y="488"/>
			<point x="924" y="488" type="curve" smooth="yes"/>
			<point x="921" y="488"/>
			<point x="923" y="491"/>
			<point x="921" y="492" type="curve" smooth="yes"/>
			<point x="913" y="495"/>
			<point x="907" y="490"/>
			<point x="898" y="490" type="curve" smooth="yes"/>
			<point x="896" y="490"/>
			<point x="896" y="485"/>
			<point x="894" y="487" type="curve" smooth="yes"/>
			<point x="890" y="488"/>
			<point x="886" y="491"/>
			<point x="883" y="488" type="curve" smooth="yes"/>
			<point x="881" y="487"/>
			<point x="881" y="485"/>
			<point x="880" y="484" type="curve" smooth="yes"/>
			<point x="880" y="484"/>
			<point x="879" y="484"/>
			<point x="878" y="484" type="curve"/>
			<point x="878" y="485"/>
			<point x="878" y="485"/>
			<point x="877" y="487" type="curve" smooth="yes"/>
			<point x="875" y="489"/>
			<point x="874" y="484"/>
			<point x="870" y="484" type="curve" smooth="yes"/>
			<point x="869" y="484"/>
			<point x="868" y="483"/>
			<point x="867" y="484" type="curve" smooth="yes"/>
			<point x="863" y="489"/>
			<point x="852" y="491"/>
			<point x="847" y="487" type="curve" smooth="yes"/>
			<point x="846" y="485"/>
			<point x="847" y="480"/>
			<point x="846" y="481" type="curve" smooth="yes"/>
			<point x="844" y="483"/>
			<point x="840" y="480"/>
			<point x="840" y="482" type="curve" smooth="yes"/>
			<point x="840" y="484"/>
			<point x="842" y="485"/>
			<point x="841" y="485" type="curve" smooth="yes"/>
			<point x="836" y="485"/>
			<point x="832" y="487"/>
			<point x="828" y="487" type="curve" smooth="yes"/>
			<point x="825" y="487"/>
			<point x="823" y="488"/>
			<point x="821" y="489" type="curve" smooth="yes"/>
			<point x="818" y="490"/>
			<point x="814" y="488"/>
			<point x="811" y="489" type="curve" smooth="yes"/>
			<point x="808" y="490"/>
			<point x="803" y="495"/>
			<point x="803" y="491" type="curve" smooth="yes"/>
			<point x="803" y="490"/>
			<point x="802" y="489"/>
			<point x="803" y="488" type="curve" smooth="yes"/>
			<point x="803" y="488"/>
			<point x="804" y="488"/>
			<point x="804" y="488" type="curve" smooth="yes"/>
			<point x="804" y="485"/>
			<point x="804" y="485"/>
			<point x="803" y="485" type="curve" smooth="yes"/>
			<point x="802" y="485"/>
			<point x="803" y="488"/>
			<point x="802" y="488" type="curve" smooth="yes"/>
			<point x="797" y="488"/>
			<point x="791" y="494"/>
			<point x="787" y="490" type="curve" smooth="yes"/>
			<point x="786" y="489"/>
			<point x="788" y="489"/>
			<point x="787" y="487" type="curve" smooth="yes"/>
			<point x="787" y="487"/>
			<point x="787" y="484"/>
			<point x="786" y="485" type="curve" smooth="yes"/>
			<point x="784" y="488"/>
			<point x="780" y="487"/>
			<point x="780" y="489" type="curve" smooth="yes"/>
			<point x="780" y="491"/>
			<point x="786" y="489"/>
			<point x="786" y="490" type="curve" smooth="yes"/>
			<point x="786" y="495"/>
			<point x="785" y="504"/>
			<point x="780" y="500" type="curve" smooth="yes"/>
			<point x="779" y="499"/>
			<point x="782" y="496"/>
			<point x="781" y="496" type="curve" smooth="yes"/>
			<point x="777" y="496"/>
			<point x="778" y="487"/>
			<point x="775" y="489" type="curve" smooth="yes"/>
			<point x="773" y="490"/>
			<point x="774" y="493"/>
			<point x="775" y="493" type="curve"/>
			<point x="775" y="494"/>
			<point x="776" y="498"/>
			<point x="775" y="498" type="curve" smooth="yes"/>
			<point x="771" y="498"/>
			<point x="771" y="503"/>
			<point x="768" y="505" type="curve"/>
			<point x="767" y="504"/>
			<point x="765" y="504"/>
			<point x="765" y="503" type="curve" smooth="yes"/>
			<point x="765" y="502"/>
			<point x="766" y="498"/>
			<point x="765" y="498" type="curve" smooth="yes"/>
			<point x="760" y="498"/>
			<point x="753" y="485"/>
			<point x="753" y="493" type="curve" smooth="yes"/>
			<point x="753" y="494"/>
			<point x="752" y="495"/>
			<point x="752" y="495" type="curve" smooth="yes"/>
			<point x="751" y="495"/>
			<point x="748" y="494"/>
			<point x="748" y="495" type="curve" smooth="yes"/>
			<point x="748" y="496"/>
			<point x="747" y="498"/>
			<point x="747" y="498" type="curve" smooth="yes"/>
			<point x="743" y="499"/>
			<point x="740" y="495"/>
			<point x="737" y="494" type="curve" smooth="yes"/>
			<point x="733" y="492"/>
			<point x="725" y="499"/>
			<point x="725" y="494" type="curve" smooth="yes"/>
			<point x="725" y="488"/>
			<point x="719" y="492"/>
			<point x="719" y="496" type="curve"/>
			<point x="716" y="496"/>
			<point x="711" y="498"/>
			<point x="711" y="495" type="curve" smooth="yes"/>
			<point x="711" y="493"/>
			<point x="713" y="493"/>
			<point x="712" y="492" type="curve" smooth="yes"/>
			<point x="711" y="491"/>
			<point x="712" y="489"/>
			<point x="710" y="489" type="curve" smooth="yes"/>
			<point x="709" y="489"/>
			<point x="710" y="491"/>
			<point x="709" y="491" type="curve" smooth="yes"/>
			<point x="708" y="491"/>
			<point x="708" y="489"/>
			<point x="707" y="490" type="curve" smooth="yes"/>
			<point x="702" y="494"/>
			<point x="692" y="489"/>
			<point x="687" y="491" type="curve" smooth="yes"/>
			<point x="687" y="491"/>
			<point x="687" y="492"/>
			<point x="687" y="492" type="curve" smooth="yes"/>
			<point x="686" y="493"/>
			<point x="689" y="494"/>
			<point x="688" y="494" type="curve" smooth="yes"/>
			<point x="682" y="494"/>
			<point x="681" y="484"/>
			<point x="675" y="488" type="curve"/>
			<point x="671" y="482"/>
			<point x="668" y="489"/>
			<point x="663" y="489" type="curve" smooth="yes"/>
			<point x="660" y="489"/>
			<point x="661" y="484"/>
			<point x="658" y="485" type="curve"/>
			<point x="659" y="484"/>
			<point x="659" y="482"/>
			<point x="658" y="482" type="curve" smooth="yes"/>
			<point x="656" y="482"/>
			<point x="655" y="485"/>
			<point x="653" y="483" type="curve" smooth="yes"/>
			<point x="650" y="481"/>
			<point x="648" y="479"/>
			<point x="645" y="478" type="curve"/>
			<point x="645" y="483"/>
			<point x="642" y="479"/>
			<point x="638" y="479" type="curve" smooth="yes"/>
			<point x="636" y="479"/>
			<point x="634" y="477"/>
			<point x="633" y="479" type="curve" smooth="yes"/>
			<point x="631" y="482"/>
			<point x="634" y="484"/>
			<point x="634" y="489" type="curve" smooth="yes"/>
			<point x="634" y="489"/>
			<point x="633" y="489"/>
			<point x="631" y="489" type="curve" smooth="yes"/>
			<point x="631" y="489"/>
			<point x="632" y="484"/>
			<point x="630" y="487" type="curve" smooth="yes"/>
			<point x="628" y="488"/>
			<point x="625" y="492"/>
			<point x="625" y="489" type="curve" smooth="yes"/>
			<point x="625" y="487"/>
			<point x="627" y="485"/>
			<point x="627" y="483" type="curve" smooth="yes"/>
			<point x="627" y="482"/>
			<point x="626" y="481"/>
			<point x="625" y="481" type="curve" smooth="yes"/>
			<point x="624" y="481"/>
			<point x="624" y="483"/>
			<point x="623" y="482" type="curve" smooth="yes"/>
			<point x="620" y="479"/>
			<point x="612" y="482"/>
			<point x="609" y="479" type="curve" smooth="yes"/>
			<point x="608" y="478"/>
			<point x="608" y="473"/>
			<point x="606" y="474" type="curve" smooth="yes"/>
			<point x="604" y="477"/>
			<point x="602" y="472"/>
			<point x="601" y="474" type="curve" smooth="yes"/>
			<point x="600" y="478"/>
			<point x="598" y="479"/>
			<point x="594" y="478" type="curve" smooth="yes"/>
			<point x="592" y="477"/>
			<point x="591" y="469"/>
			<point x="589" y="473" type="curve" smooth="yes"/>
			<point x="588" y="476"/>
			<point x="592" y="477"/>
			<point x="590" y="478" type="curve" smooth="yes"/>
			<point x="587" y="479"/>
			<point x="586" y="481"/>
			<point x="581" y="481" type="curve" smooth="yes"/>
			<point x="579" y="481"/>
			<point x="579" y="479"/>
			<point x="577" y="478" type="curve" smooth="yes"/>
			<point x="577" y="478"/>
			<point x="576" y="479"/>
			<point x="575" y="478" type="curve" smooth="yes"/>
			<point x="573" y="477"/>
			<point x="571" y="476"/>
			<point x="570" y="477" type="curve" smooth="yes"/>
			<point x="568" y="479"/>
			<point x="565" y="478"/>
			<point x="562" y="476" type="curve"/>
			<point x="558" y="476" type="line"/>
			<point x="557" y="478"/>
			<point x="556" y="479"/>
			<point x="556" y="480" type="curve"/>
			<point x="557" y="481"/>
			<point x="559" y="481"/>
			<point x="559" y="482" type="curve" smooth="yes"/>
			<point x="559" y="484"/>
			<point x="561" y="487"/>
			<point x="559" y="488" type="curve" smooth="yes"/>
			<point x="557" y="489"/>
			<point x="555" y="489"/>
			<point x="551" y="488" type="curve" smooth="yes"/>
			<point x="545" y="485"/>
			<point x="553" y="469"/>
			<point x="547" y="474" type="curve" smooth="yes"/>
			<point x="546" y="476"/>
			<point x="544" y="476"/>
			<point x="544" y="477" type="curve" smooth="yes"/>
			<point x="544" y="478"/>
			<point x="545" y="478"/>
			<point x="545" y="479" type="curve"/>
			<point x="543" y="478"/>
			<point x="537" y="477"/>
			<point x="534" y="477" type="curve" smooth="yes"/>
			<point x="532" y="477"/>
			<point x="531" y="480"/>
			<point x="531" y="478" type="curve" smooth="yes"/>
			<point x="531" y="477"/>
			<point x="531" y="474"/>
			<point x="529" y="476" type="curve" smooth="yes"/>
			<point x="528" y="477"/>
			<point x="526" y="478"/>
			<point x="527" y="478" type="curve" smooth="yes"/>
			<point x="529" y="478"/>
			<point x="532" y="480"/>
			<point x="532" y="482" type="curve" smooth="yes"/>
			<point x="532" y="483"/>
			<point x="529" y="485"/>
			<point x="531" y="485" type="curve" smooth="yes"/>
			<point x="533" y="485"/>
			<point x="537" y="482"/>
			<point x="538" y="484" type="curve" smooth="yes"/>
			<point x="539" y="487"/>
			<point x="534" y="490"/>
			<point x="537" y="491" type="curve" smooth="yes"/>
			<point x="540" y="492"/>
			<point x="548" y="500"/>
			<point x="543" y="500" type="curve" smooth="yes"/>
			<point x="542" y="500"/>
			<point x="538" y="499"/>
			<point x="538" y="500" type="curve" smooth="yes"/>
			<point x="538" y="502"/>
			<point x="537" y="503"/>
			<point x="536" y="504" type="curve"/>
			<point x="538" y="505"/>
			<point x="538" y="510"/>
			<point x="539" y="512" type="curve"/>
			<point x="542" y="510"/>
			<point x="545" y="510"/>
			<point x="548" y="509" type="curve"/>
			<point x="549" y="510"/>
			<point x="549" y="510"/>
			<point x="551" y="510" type="curve"/>
			<point x="550" y="513"/>
			<point x="556" y="513"/>
			<point x="555" y="516" type="curve" smooth="yes"/>
			<point x="554" y="521"/>
			<point x="546" y="518"/>
			<point x="543" y="516" type="curve"/>
			<point x="540" y="520"/>
			<point x="543" y="523"/>
			<point x="546" y="523" type="curve" smooth="yes"/>
			<point x="547" y="523"/>
			<point x="548" y="520"/>
			<point x="549" y="521" type="curve" smooth="yes"/>
			<point x="550" y="522"/>
			<point x="551" y="522"/>
			<point x="551" y="523" type="curve" smooth="yes"/>
			<point x="551" y="525"/>
			<point x="554" y="529"/>
			<point x="551" y="528" type="curve"/>
			<point x="548" y="528" type="line"/>
			<point x="546" y="531"/>
			<point x="544" y="533"/>
			<point x="545" y="535" type="curve" smooth="yes"/>
			<point x="546" y="538"/>
			<point x="548" y="538"/>
			<point x="550" y="540" type="curve" smooth="yes"/>
			<point x="553" y="543"/>
			<point x="549" y="549"/>
			<point x="554" y="549" type="curve" smooth="yes"/>
			<point x="555" y="549"/>
			<point x="559" y="549"/>
			<point x="558" y="550" type="curve" smooth="yes"/>
			<point x="555" y="554"/>
			<point x="551" y="555"/>
			<point x="550" y="559" type="curve"/>
			<point x="547" y="556"/>
			<point x="534" y="564"/>
			<point x="542" y="564" type="curve" smooth="yes"/>
			<point x="544" y="564"/>
			<point x="547" y="561"/>
			<point x="547" y="565" type="curve" smooth="yes"/>
			<point x="547" y="567"/>
			<point x="547" y="569"/>
			<point x="548" y="569" type="curve" smooth="yes"/>
			<point x="549" y="569"/>
			<point x="549" y="570"/>
			<point x="550" y="570" type="curve"/>
			<point x="550" y="573"/>
			<point x="549" y="576"/>
			<point x="546" y="576" type="curve" smooth="yes"/>
			<point x="545" y="576"/>
			<point x="544" y="575"/>
			<point x="544" y="573" type="curve" smooth="yes"/>
			<point x="544" y="572"/>
			<point x="547" y="572"/>
			<point x="545" y="571" type="curve" smooth="yes"/>
			<point x="542" y="570"/>
			<point x="542" y="576"/>
			<point x="539" y="576" type="curve" smooth="yes"/>
			<point x="533" y="576"/>
			<point x="526" y="575"/>
			<point x="526" y="570" type="curve" smooth="yes"/>
			<point x="526" y="567"/>
			<point x="525" y="566"/>
			<point x="524" y="564" type="curve"/>
			<point x="523" y="566"/>
			<point x="514" y="569"/>
			<point x="515" y="566" type="curve" smooth="yes"/>
			<point x="517" y="560"/>
			<point x="511" y="554"/>
			<point x="506" y="555" type="curve" smooth="yes"/>
			<point x="503" y="556"/>
			<point x="501" y="555"/>
			<point x="500" y="553" type="curve" smooth="yes"/>
			<point x="499" y="550"/>
			<point x="501" y="550"/>
			<point x="499" y="548" type="curve" smooth="yes"/>
			<point x="496" y="546"/>
			<point x="495" y="549"/>
			<point x="492" y="548" type="curve" smooth="yes"/>
			<point x="490" y="547"/>
			<point x="488" y="550"/>
			<point x="485" y="548" type="curve"/>
			<point x="484" y="544" type="line"/>
			<point x="485" y="544"/>
			<point x="488" y="542"/>
			<point x="487" y="542" type="curve" smooth="yes"/>
			<point x="484" y="542"/>
			<point x="485" y="544"/>
			<point x="484" y="544" type="curve" smooth="yes"/>
			<point x="481" y="544"/>
			<point x="480" y="545"/>
			<point x="478" y="545" type="curve"/>
			<point x="478" y="542"/>
			<point x="474" y="544"/>
			<point x="473" y="542" type="curve" smooth="yes"/>
			<point x="471" y="537"/>
			<point x="476" y="536"/>
			<point x="476" y="534" type="curve" smooth="yes"/>
			<point x="476" y="533"/>
			<point x="473" y="531"/>
			<point x="472" y="531" type="curve" smooth="yes"/>
			<point x="469" y="531"/>
			<point x="467" y="537"/>
			<point x="465" y="535" type="curve" smooth="yes"/>
			<point x="463" y="534"/>
			<point x="465" y="533"/>
			<point x="463" y="533" type="curve" smooth="yes"/>
			<point x="462" y="533"/>
			<point x="459" y="533"/>
			<point x="459" y="534" type="curve" smooth="yes"/>
			<point x="459" y="535"/>
			<point x="459" y="539"/>
			<point x="458" y="538" type="curve" smooth="yes"/>
			<point x="456" y="536"/>
			<point x="454" y="535"/>
			<point x="452" y="536" type="curve" smooth="yes"/>
			<point x="450" y="538"/>
			<point x="450" y="544"/>
			<point x="447" y="543" type="curve" smooth="yes"/>
			<point x="445" y="542"/>
			<point x="444" y="542"/>
			<point x="443" y="542" type="curve"/>
			<point x="445" y="537"/>
			<point x="449" y="528"/>
			<point x="446" y="525" type="curve" smooth="yes"/>
			<point x="444" y="523"/>
			<point x="439" y="529"/>
			<point x="439" y="526" type="curve" smooth="yes"/>
			<point x="439" y="524"/>
			<point x="437" y="523"/>
			<point x="436" y="521" type="curve"/>
			<point x="435" y="523"/>
			<point x="434" y="520"/>
			<point x="432" y="521" type="curve"/>
			<point x="429" y="515"/>
			<point x="430" y="522"/>
			<point x="426" y="526" type="curve" smooth="yes"/>
			<point x="425" y="527"/>
			<point x="423" y="525"/>
			<point x="423" y="526" type="curve" smooth="yes"/>
			<point x="423" y="531"/>
			<point x="417" y="535"/>
			<point x="417" y="532" type="curve" smooth="yes"/>
			<point x="417" y="529"/>
			<point x="421" y="525"/>
			<point x="418" y="525" type="curve" smooth="yes"/>
			<point x="417" y="525"/>
			<point x="417" y="522"/>
			<point x="416" y="521" type="curve" smooth="yes"/>
			<point x="415" y="520"/>
			<point x="414" y="521"/>
			<point x="413" y="521" type="curve" smooth="yes"/>
			<point x="411" y="521"/>
			<point x="411" y="515"/>
			<point x="408" y="515" type="curve" smooth="yes"/>
			<point x="406" y="515"/>
			<point x="404" y="515"/>
			<point x="402" y="515" type="curve"/>
			<point x="403" y="516"/>
			<point x="402" y="517"/>
			<point x="401" y="516" type="curve" smooth="yes"/>
			<point x="400" y="515"/>
			<point x="396" y="515"/>
			<point x="395" y="516" type="curve"/>
			<point x="394" y="515"/>
			<point x="390" y="513"/>
			<point x="391" y="514" type="curve" smooth="yes"/>
			<point x="393" y="516"/>
			<point x="391" y="520"/>
			<point x="393" y="522" type="curve"/>
			<point x="390" y="523"/>
			<point x="385" y="521"/>
			<point x="386" y="518" type="curve" smooth="yes"/>
			<point x="388" y="516"/>
			<point x="389" y="512"/>
			<point x="386" y="512" type="curve" smooth="yes"/>
			<point x="384" y="512"/>
			<point x="384" y="510"/>
			<point x="383" y="511" type="curve" smooth="yes"/>
			<point x="381" y="513"/>
			<point x="378" y="516"/>
			<point x="375" y="514" type="curve" smooth="yes"/>
			<point x="374" y="513"/>
			<point x="377" y="513"/>
			<point x="377" y="511" type="curve" smooth="yes"/>
			<point x="377" y="510"/>
			<point x="374" y="510"/>
			<point x="374" y="509" type="curve" smooth="yes"/>
			<point x="374" y="506"/>
			<point x="378" y="505"/>
			<point x="375" y="505" type="curve" smooth="yes"/>
			<point x="373" y="505"/>
			<point x="372" y="500"/>
			<point x="370" y="502" type="curve" smooth="yes"/>
			<point x="369" y="503"/>
			<point x="366" y="506"/>
			<point x="366" y="504" type="curve" smooth="yes"/>
			<point x="366" y="500"/>
			<point x="360" y="502"/>
			<point x="359" y="499" type="curve" smooth="yes"/>
			<point x="358" y="496"/>
			<point x="353" y="495"/>
			<point x="352" y="496" type="curve" smooth="yes"/>
			<point x="350" y="499"/>
			<point x="353" y="505"/>
			<point x="351" y="505" type="curve" smooth="yes"/>
			<point x="348" y="505"/>
			<point x="347" y="507"/>
			<point x="345" y="507" type="curve" smooth="yes"/>
			<point x="342" y="507"/>
			<point x="341" y="507"/>
			<point x="339" y="509" type="curve"/>
			<point x="340" y="504"/>
			<point x="347" y="501"/>
			<point x="344" y="500" type="curve" smooth="yes"/>
			<point x="341" y="499"/>
			<point x="333" y="505"/>
			<point x="335" y="501" type="curve" smooth="yes"/>
			<point x="336" y="499"/>
			<point x="340" y="492"/>
			<point x="336" y="492" type="curve" smooth="yes"/>
			<point x="334" y="492"/>
			<point x="330" y="499"/>
			<point x="330" y="495" type="curve" smooth="yes"/>
			<point x="330" y="493"/>
			<point x="331" y="493"/>
			<point x="331" y="492" type="curve"/>
			<point x="329" y="492"/>
			<point x="328" y="487"/>
			<point x="328" y="489" type="curve" smooth="yes"/>
			<point x="328" y="490"/>
			<point x="327" y="491"/>
			<point x="326" y="490" type="curve" smooth="yes"/>
			<point x="325" y="489"/>
			<point x="320" y="484"/>
			<point x="323" y="487" type="curve" smooth="yes"/>
			<point x="325" y="489"/>
			<point x="322" y="493"/>
			<point x="320" y="496" type="curve"/>
			<point x="316" y="493"/>
			<point x="295" y="482"/>
			<point x="303" y="490" type="curve" smooth="yes"/>
			<point x="304" y="491"/>
			<point x="306" y="495"/>
			<point x="308" y="493" type="curve" smooth="yes"/>
			<point x="309" y="492"/>
			<point x="311" y="490"/>
			<point x="312" y="491" type="curve"/>
			<point x="313" y="495" type="line"/>
			<point x="311" y="498"/>
			<point x="306" y="498"/>
			<point x="306" y="502" type="curve" smooth="yes"/>
			<point x="306" y="503"/>
			<point x="306" y="504"/>
			<point x="306" y="505" type="curve" smooth="yes"/>
			<point x="306" y="505"/>
			<point x="304" y="506"/>
			<point x="304" y="505" type="curve" smooth="yes"/>
			<point x="304" y="504"/>
			<point x="306" y="502"/>
			<point x="305" y="501" type="curve" smooth="yes"/>
			<point x="303" y="499"/>
			<point x="301" y="500"/>
			<point x="301" y="499" type="curve" smooth="yes"/>
			<point x="301" y="495"/>
			<point x="302" y="491"/>
			<point x="300" y="491" type="curve" smooth="yes"/>
			<point x="298" y="491"/>
			<point x="297" y="493"/>
			<point x="296" y="492" type="curve"/>
			<point x="286" y="491" type="line"/>
			<point x="285" y="489"/>
			<point x="284" y="487"/>
			<point x="284" y="484" type="curve"/>
			<point x="283" y="485"/>
			<point x="283" y="489"/>
			<point x="281" y="488" type="curve" smooth="yes"/>
			<point x="279" y="487"/>
			<point x="278" y="484"/>
			<point x="275" y="483" type="curve" smooth="yes"/>
			<point x="275" y="483"/>
			<point x="273" y="483"/>
			<point x="273" y="484" type="curve" smooth="yes"/>
			<point x="273" y="488"/>
			<point x="279" y="488"/>
			<point x="279" y="490" type="curve" smooth="yes"/>
			<point x="279" y="495"/>
			<point x="275" y="509"/>
			<point x="271" y="504" type="curve" smooth="yes"/>
			<point x="269" y="502"/>
			<point x="269" y="498"/>
			<point x="268" y="494" type="curve"/>
			<point x="261" y="499"/>
			<point x="259" y="488"/>
			<point x="262" y="483" type="curve"/>
			<point x="260" y="482"/>
			<point x="258" y="481"/>
			<point x="257" y="482" type="curve" smooth="yes"/>
			<point x="256" y="483"/>
			<point x="254" y="484"/>
			<point x="253" y="485" type="curve" smooth="yes"/>
			<point x="252" y="487"/>
			<point x="251" y="485"/>
			<point x="251" y="484" type="curve" smooth="yes"/>
			<point x="251" y="481"/>
			<point x="258" y="473"/>
			<point x="253" y="473" type="curve" smooth="yes"/>
			<point x="252" y="473"/>
			<point x="251" y="474"/>
			<point x="251" y="472" type="curve"/>
			<point x="250" y="473"/>
			<point x="247" y="477"/>
			<point x="247" y="474" type="curve" smooth="yes"/>
			<point x="247" y="472"/>
			<point x="250" y="469"/>
			<point x="248" y="469" type="curve" smooth="yes"/>
			<point x="246" y="469"/>
			<point x="243" y="471"/>
			<point x="242" y="469" type="curve" smooth="yes"/>
			<point x="241" y="466"/>
			<point x="237" y="463"/>
			<point x="235" y="465" type="curve" smooth="yes"/>
			<point x="232" y="466"/>
			<point x="231" y="470"/>
			<point x="229" y="468" type="curve" smooth="yes"/>
			<point x="228" y="467"/>
			<point x="231" y="463"/>
			<point x="230" y="462" type="curve" smooth="yes"/>
			<point x="229" y="461"/>
			<point x="227" y="461"/>
			<point x="226" y="461" type="curve" smooth="yes"/>
			<point x="225" y="461"/>
			<point x="225" y="466"/>
			<point x="224" y="466" type="curve" smooth="yes"/>
			<point x="220" y="466"/>
			<point x="218" y="458"/>
			<point x="215" y="461" type="curve"/>
			<point x="214" y="466" type="line"/>
			<point x="212" y="468"/>
			<point x="210" y="465"/>
			<point x="208" y="467" type="curve"/>
			<point x="207" y="463"/>
			<point x="209" y="461"/>
			<point x="209" y="459" type="curve" smooth="yes"/>
			<point x="209" y="456"/>
			<point x="207" y="452"/>
			<point x="210" y="452" type="curve" smooth="yes"/>
			<point x="212" y="452"/>
			<point x="213" y="452"/>
			<point x="214" y="454" type="curve" smooth="yes"/>
			<point x="215" y="455"/>
			<point x="214" y="458"/>
			<point x="215" y="457" type="curve" smooth="yes"/>
			<point x="216" y="456"/>
			<point x="217" y="455"/>
			<point x="217" y="454" type="curve" smooth="yes"/>
			<point x="217" y="450"/>
			<point x="206" y="445"/>
			<point x="206" y="449" type="curve" smooth="yes"/>
			<point x="206" y="451"/>
			<point x="208" y="455"/>
			<point x="206" y="455" type="curve" smooth="yes"/>
			<point x="204" y="455"/>
			<point x="195" y="460"/>
			<point x="197" y="457" type="curve" smooth="yes"/>
			<point x="199" y="454"/>
			<point x="195" y="452"/>
			<point x="197" y="450" type="curve" smooth="yes"/>
			<point x="198" y="449"/>
			<point x="201" y="450"/>
			<point x="201" y="449" type="curve" smooth="yes"/>
			<point x="201" y="448"/>
			<point x="201" y="447"/>
			<point x="201" y="447" type="curve" smooth="yes"/>
			<point x="198" y="446"/>
			<point x="196" y="448"/>
			<point x="195" y="448" type="curve" smooth="yes"/>
			<point x="193" y="448"/>
			<point x="191" y="448"/>
			<point x="191" y="446" type="curve" smooth="yes"/>
			<point x="191" y="445"/>
			<point x="194" y="438"/>
			<point x="192" y="438" type="curve" smooth="yes"/>
			<point x="191" y="438"/>
			<point x="188" y="440"/>
			<point x="187" y="440" type="curve" smooth="yes"/>
			<point x="185" y="440"/>
			<point x="185" y="438"/>
			<point x="184" y="436" type="curve" smooth="yes"/>
			<point x="184" y="436"/>
			<point x="186" y="436"/>
			<point x="184" y="434" type="curve" smooth="yes"/>
			<point x="183" y="433"/>
			<point x="182" y="427"/>
			<point x="181" y="429" type="curve" smooth="yes"/>
			<point x="180" y="432"/>
			<point x="179" y="435"/>
			<point x="179" y="436" type="curve" smooth="yes"/>
			<point x="179" y="437"/>
			<point x="181" y="437"/>
			<point x="180" y="439" type="curve" smooth="yes"/>
			<point x="179" y="441"/>
			<point x="184" y="448"/>
			<point x="180" y="450" type="curve" smooth="yes"/>
			<point x="177" y="451"/>
			<point x="176" y="449"/>
			<point x="174" y="450" type="curve"/>
			<point x="175" y="447"/>
			<point x="175" y="446"/>
			<point x="173" y="441" type="curve" smooth="yes"/>
			<point x="172" y="439"/>
			<point x="169" y="438"/>
			<point x="170" y="436" type="curve" smooth="yes"/>
			<point x="171" y="434"/>
			<point x="175" y="428"/>
			<point x="173" y="429" type="curve" smooth="yes"/>
			<point x="170" y="430"/>
			<point x="169" y="433"/>
			<point x="166" y="434" type="curve"/>
			<point x="168" y="437"/>
			<point x="165" y="444"/>
			<point x="168" y="446" type="curve" smooth="yes"/>
			<point x="168" y="446"/>
			<point x="170" y="445"/>
			<point x="170" y="446" type="curve" smooth="yes"/>
			<point x="170" y="447"/>
			<point x="172" y="448"/>
			<point x="171" y="448" type="curve" smooth="yes"/>
			<point x="168" y="448"/>
			<point x="164" y="446"/>
			<point x="163" y="447" type="curve" smooth="yes"/>
			<point x="161" y="449"/>
			<point x="158" y="454"/>
			<point x="157" y="451" type="curve" smooth="yes"/>
			<point x="155" y="449"/>
			<point x="153" y="450"/>
			<point x="151" y="449" type="curve"/>
			<point x="152" y="446"/>
			<point x="147" y="441"/>
			<point x="150" y="440" type="curve" smooth="yes"/>
			<point x="152" y="439"/>
			<point x="153" y="437"/>
			<point x="153" y="435" type="curve"/>
			<point x="152" y="434"/>
			<point x="150" y="429"/>
			<point x="152" y="429" type="curve" smooth="yes"/>
			<point x="155" y="429"/>
			<point x="155" y="426"/>
			<point x="159" y="427" type="curve"/>
			<point x="159" y="426"/>
			<point x="160" y="426"/>
			<point x="160" y="425" type="curve"/>
			<point x="162" y="425"/>
			<point x="164" y="427"/>
			<point x="165" y="425" type="curve" smooth="yes"/>
			<point x="170" y="417"/>
			<point x="157" y="417"/>
			<point x="152" y="414" type="curve"/>
			<point x="152" y="415"/>
			<point x="153" y="417"/>
			<point x="151" y="417" type="curve" smooth="yes"/>
			<point x="149" y="417"/>
			<point x="149" y="419"/>
			<point x="148" y="419" type="curve" smooth="yes"/>
			<point x="144" y="419"/>
			<point x="142" y="418"/>
			<point x="142" y="422" type="curve" smooth="yes"/>
			<point x="142" y="423"/>
			<point x="143" y="423"/>
			<point x="143" y="423" type="curve" smooth="yes"/>
			<point x="144" y="427"/>
			<point x="142" y="429"/>
			<point x="142" y="433" type="curve"/>
			<point x="141" y="433"/>
			<point x="139" y="434"/>
			<point x="139" y="433" type="curve" smooth="yes"/>
			<point x="139" y="428"/>
			<point x="128" y="425"/>
			<point x="129" y="428" type="curve" smooth="yes"/>
			<point x="130" y="432"/>
			<point x="129" y="433"/>
			<point x="129" y="437" type="curve" smooth="yes"/>
			<point x="129" y="438"/>
			<point x="130" y="438"/>
			<point x="131" y="439" type="curve" smooth="yes"/>
			<point x="132" y="440"/>
			<point x="130" y="440"/>
			<point x="130" y="441" type="curve" smooth="yes"/>
			<point x="130" y="445"/>
			<point x="135" y="444"/>
			<point x="135" y="447" type="curve"/>
			<point x="130" y="445"/>
			<point x="122" y="444"/>
			<point x="122" y="439" type="curve" smooth="yes"/>
			<point x="122" y="436"/>
			<point x="124" y="434"/>
			<point x="125" y="432" type="curve"/>
			<point x="122" y="432"/>
			<point x="121" y="430"/>
			<point x="120" y="429" type="curve"/>
			<point x="119" y="432"/>
			<point x="118" y="433"/>
			<point x="118" y="436" type="curve"/>
			<point x="115" y="436"/>
			<point x="111" y="437"/>
			<point x="111" y="434" type="curve" smooth="yes"/>
			<point x="111" y="430"/>
			<point x="118" y="432"/>
			<point x="116" y="429" type="curve" smooth="yes"/>
			<point x="114" y="427"/>
			<point x="109" y="421"/>
			<point x="108" y="424" type="curve" smooth="yes"/>
			<point x="107" y="426"/>
			<point x="108" y="430"/>
			<point x="107" y="432" type="curve"/>
			<point x="106" y="430"/>
			<point x="104" y="426"/>
			<point x="102" y="426" type="curve" smooth="yes"/>
			<point x="98" y="426"/>
			<point x="96" y="424"/>
			<point x="94" y="422" type="curve"/>
			<point x="97" y="421"/>
			<point x="95" y="412"/>
			<point x="97" y="412" type="curve" smooth="yes"/>
			<point x="99" y="412"/>
			<point x="99" y="414"/>
			<point x="100" y="414" type="curve" smooth="yes"/>
			<point x="108" y="414"/>
			<point x="113" y="415"/>
			<point x="119" y="417" type="curve" smooth="yes"/>
			<point x="119" y="417"/>
			<point x="119" y="415"/>
			<point x="120" y="415" type="curve" smooth="yes"/>
			<point x="121" y="415"/>
			<point x="126" y="415"/>
			<point x="125" y="414" type="curve" smooth="yes"/>
			<point x="124" y="413"/>
			<point x="122" y="410"/>
			<point x="119" y="411" type="curve"/>
			<point x="117" y="404"/>
			<point x="107" y="408"/>
			<point x="100" y="408" type="curve" smooth="yes"/>
			<point x="98" y="408"/>
			<point x="98" y="411"/>
			<point x="97" y="411" type="curve" smooth="yes"/>
			<point x="95" y="411"/>
			<point x="94" y="410"/>
			<point x="93" y="410" type="curve" smooth="yes"/>
			<point x="89" y="410"/>
			<point x="89" y="415"/>
			<point x="93" y="414" type="curve"/>
			<point x="93" y="416"/>
			<point x="94" y="417"/>
			<point x="93" y="417" type="curve" smooth="yes"/>
			<point x="86" y="417"/>
			<point x="85" y="411"/>
			<point x="77" y="413" type="curve"/>
			<point x="77" y="411"/>
			<point x="78" y="408"/>
			<point x="80" y="408" type="curve" smooth="yes"/>
			<point x="82" y="408"/>
			<point x="82" y="413"/>
			<point x="83" y="411" type="curve" smooth="yes"/>
			<point x="84" y="408"/>
			<point x="87" y="411"/>
			<point x="89" y="408" type="curve"/>
			<point x="87" y="407"/>
			<point x="87" y="406"/>
			<point x="85" y="406" type="curve" smooth="yes"/>
			<point x="84" y="406"/>
			<point x="82" y="411"/>
			<point x="82" y="408" type="curve" smooth="yes"/>
			<point x="82" y="405"/>
			<point x="77" y="402"/>
			<point x="74" y="405" type="curve" smooth="yes"/>
			<point x="74" y="405"/>
			<point x="75" y="406"/>
			<point x="74" y="407" type="curve" smooth="yes"/>
			<point x="70" y="412"/>
			<point x="60" y="413"/>
			<point x="60" y="407" type="curve" smooth="yes"/>
			<point x="60" y="406"/>
			<point x="62" y="404"/>
			<point x="61" y="403" type="curve" smooth="yes"/>
			<point x="60" y="402"/>
			<point x="58" y="401"/>
			<point x="55" y="403" type="curve" smooth="yes"/>
			<point x="54" y="404"/>
			<point x="58" y="405"/>
			<point x="55" y="406" type="curve" smooth="yes"/>
			<point x="53" y="407"/>
			<point x="47" y="408"/>
			<point x="47" y="406" type="curve" smooth="yes"/>
			<point x="47" y="405"/>
			<point x="43" y="403"/>
			<point x="45" y="403" type="curve" smooth="yes"/>
			<point x="50" y="403"/>
			<point x="49" y="397"/>
			<point x="51" y="397" type="curve" smooth="yes"/>
			<point x="52" y="397"/>
			<point x="56" y="397"/>
			<point x="54" y="396" type="curve" smooth="yes"/>
			<point x="50" y="394"/>
			<point x="44" y="401"/>
			<point x="40" y="400" type="curve" smooth="yes"/>
			<point x="37" y="399"/>
			<point x="40" y="404"/>
			<point x="37" y="405" type="curve" smooth="yes"/>
			<point x="34" y="406"/>
			<point x="30" y="404"/>
			<point x="28" y="405" type="curve" smooth="yes"/>
			<point x="23" y="407"/>
			<point x="19" y="405"/>
			<point x="12" y="405" type="curve" smooth="yes"/>
			<point x="12" y="405" type="line" smooth="yes"/>
			<point x="12" y="401"/>
			<point x="8" y="392"/>
			<point x="12" y="392" type="curve" smooth="yes"/>
			<point x="15" y="392"/>
			<point x="14" y="390"/>
			<point x="14" y="389" type="curve" smooth="yes"/>
			<point x="12" y="378" type="line"/>
			<point x="12" y="147" type="line"/>
			<point x="23" y="146"/>
			<point x="29" y="146"/>
			<point x="30" y="147" type="curve" smooth="yes"/>
			<point x="34" y="151"/>
			<point x="43" y="150"/>
			<point x="51" y="154" type="curve" smooth="yes"/>
			<point x="56" y="158"/>
			<point x="66" y="160"/>
			<point x="73" y="160" type="curve" smooth="yes"/>
			<point x="75" y="160"/>
			<point x="75" y="159"/>
			<point x="76" y="159" type="curve" smooth="yes"/>
			<point x="77" y="159"/>
			<point x="77" y="160"/>
			<point x="78" y="160" type="curve" smooth="yes"/>
			<point x="80" y="160"/>
			<point x="80" y="159"/>
			<point x="81" y="159" type="curve" smooth="yes"/>
			<point x="86" y="159"/>
			<point x="94" y="165"/>
			<point x="102" y="161" type="curve" smooth="yes"/>
			<point x="104" y="160"/>
			<point x="107" y="162"/>
			<point x="109" y="158" type="curve" smooth="yes"/>
			<point x="110" y="155"/>
			<point x="109" y="151"/>
			<point x="111" y="151" type="curve" smooth="yes"/>
			<point x="115" y="151"/>
			<point x="116" y="150"/>
			<point x="119" y="149" type="curve" smooth="yes"/>
			<point x="121" y="148"/>
			<point x="121" y="141"/>
			<point x="124" y="143" type="curve" smooth="yes"/>
			<point x="126" y="146"/>
			<point x="129" y="147"/>
			<point x="135" y="147" type="curve" smooth="yes"/>
			<point x="137" y="147"/>
			<point x="139" y="141"/>
			<point x="140" y="144" type="curve" smooth="yes"/>
			<point x="141" y="147"/>
			<point x="141" y="150"/>
			<point x="144" y="150" type="curve" smooth="yes"/>
			<point x="148" y="150"/>
			<point x="149" y="146"/>
			<point x="152" y="146" type="curve"/>
			<point x="151" y="150"/>
			<point x="155" y="155"/>
			<point x="159" y="152" type="curve" smooth="yes"/>
			<point x="160" y="151"/>
			<point x="159" y="149"/>
			<point x="160" y="149" type="curve" smooth="yes"/>
			<point x="163" y="149"/>
			<point x="164" y="153"/>
			<point x="166" y="152" type="curve" smooth="yes"/>
			<point x="171" y="150"/>
			<point x="173" y="150"/>
			<point x="176" y="154" type="curve" smooth="yes"/>
			<point x="179" y="158"/>
			<point x="183" y="157"/>
			<point x="188" y="159" type="curve" smooth="yes"/>
			<point x="191" y="160"/>
			<point x="194" y="162"/>
			<point x="198" y="162" type="curve" smooth="yes"/>
			<point x="199" y="162"/>
			<point x="199" y="160"/>
			<point x="201" y="161" type="curve" smooth="yes"/>
			<point x="202" y="162"/>
			<point x="203" y="162"/>
			<point x="205" y="162" type="curve" smooth="yes"/>
			<point x="206" y="162"/>
			<point x="206" y="161"/>
			<point x="207" y="161" type="curve" smooth="yes"/>
			<point x="209" y="161"/>
			<point x="210" y="160"/>
			<point x="213" y="161" type="curve" smooth="yes"/>
			<point x="217" y="163"/>
			<point x="223" y="164"/>
			<point x="229" y="164" type="curve" smooth="yes"/>
			<point x="230" y="164"/>
			<point x="229" y="166"/>
			<point x="230" y="166" type="curve" smooth="yes"/>
			<point x="237" y="166"/>
			<point x="239" y="171"/>
			<point x="243" y="171" type="curve" smooth="yes"/>
			<point x="245" y="171"/>
			<point x="245" y="168"/>
			<point x="246" y="168" type="curve" smooth="yes"/>
			<point x="250" y="168"/>
			<point x="257" y="166"/>
			<point x="262" y="166" type="curve" smooth="yes"/>
			<point x="264" y="166"/>
			<point x="270" y="173"/>
			<point x="270" y="169" type="curve" smooth="yes"/>
			<point x="270" y="168"/>
			<point x="271" y="165"/>
			<point x="272" y="166" type="curve" smooth="yes"/>
			<point x="274" y="169"/>
			<point x="278" y="168"/>
			<point x="278" y="169" type="curve" smooth="yes"/>
			<point x="278" y="174"/>
			<point x="281" y="170"/>
			<point x="284" y="170" type="curve" smooth="yes"/>
			<point x="291" y="170"/>
			<point x="295" y="177"/>
			<point x="300" y="173" type="curve" smooth="yes"/>
			<point x="303" y="170"/>
			<point x="314" y="171"/>
			<point x="317" y="174" type="curve"/>
			<point x="318" y="172"/>
			<point x="322" y="169"/>
			<point x="323" y="171" type="curve" smooth="yes"/>
			<point x="325" y="175"/>
			<point x="337" y="172"/>
			<point x="344" y="175" type="curve" smooth="yes"/>
			<point x="348" y="177"/>
			<point x="353" y="180"/>
			<point x="358" y="180" type="curve" smooth="yes"/>
			<point x="359" y="180"/>
			<point x="360" y="181"/>
			<point x="361" y="181" type="curve" smooth="yes"/>
			<point x="368" y="181"/>
			<point x="375" y="191"/>
			<point x="380" y="186" type="curve" smooth="yes"/>
			<point x="383" y="183"/>
			<point x="390" y="179"/>
			<point x="393" y="182" type="curve" smooth="yes"/>
			<point x="394" y="183"/>
			<point x="393" y="184"/>
			<point x="395" y="184" type="curve" smooth="yes"/>
			<point x="396" y="184"/>
			<point x="396" y="184"/>
			<point x="397" y="183" type="curve" smooth="yes"/>
			<point x="402" y="179"/>
			<point x="410" y="181"/>
			<point x="416" y="181" type="curve" smooth="yes"/>
			<point x="419" y="181"/>
			<point x="424" y="184"/>
			<point x="425" y="183" type="curve" smooth="yes"/>
			<point x="426" y="182"/>
			<point x="427" y="181"/>
			<point x="428" y="181" type="curve" smooth="yes"/>
			<point x="433" y="181"/>
			<point x="439" y="184"/>
			<point x="439" y="180" type="curve" smooth="yes"/>
			<point x="439" y="177"/>
			<point x="436" y="177"/>
			<point x="437" y="176" type="curve" smooth="yes"/>
			<point x="441" y="172"/>
			<point x="447" y="170"/>
			<point x="452" y="170" type="curve" smooth="yes"/>
			<point x="454" y="170"/>
			<point x="455" y="173"/>
			<point x="455" y="172" type="curve" smooth="yes"/>
			<point x="455" y="164"/>
			<point x="462" y="158"/>
			<point x="470" y="158" type="curve" smooth="yes"/>
			<point x="472" y="158"/>
			<point x="476" y="157"/>
			<point x="476" y="155" type="curve" smooth="yes"/>
			<point x="476" y="154"/>
			<point x="476" y="153"/>
			<point x="477" y="152" type="curve" smooth="yes"/>
			<point x="480" y="149"/>
			<point x="477" y="141"/>
			<point x="482" y="141" type="curve" smooth="yes"/>
			<point x="485" y="141"/>
			<point x="487" y="140"/>
			<point x="488" y="142" type="curve" smooth="yes"/>
			<point x="489" y="144"/>
			<point x="490" y="147"/>
			<point x="490" y="149" type="curve"/>
			<point x="491" y="149"/>
			<point x="491" y="150"/>
			<point x="492" y="149" type="curve" smooth="yes"/>
			<point x="493" y="148"/>
			<point x="494" y="143"/>
			<point x="492" y="143" type="curve" smooth="yes"/>
			<point x="485" y="143"/>
			<point x="484" y="126"/>
			<point x="491" y="126" type="curve" smooth="yes"/>
			<point x="493" y="126"/>
			<point x="494" y="125"/>
			<point x="494" y="124" type="curve" smooth="yes"/>
			<point x="494" y="121"/>
			<point x="493" y="120"/>
			<point x="493" y="119" type="curve" smooth="yes"/>
			<point x="493" y="117"/>
			<point x="495" y="116"/>
			<point x="496" y="116" type="curve" smooth="yes"/>
			<point x="499" y="116"/>
			<point x="499" y="117"/>
			<point x="501" y="117" type="curve" smooth="yes"/>
			<point x="502" y="117"/>
			<point x="504" y="116"/>
			<point x="503" y="115" type="curve" smooth="yes"/>
			<point x="501" y="113"/>
			<point x="499" y="111"/>
			<point x="500" y="109" type="curve" smooth="yes"/>
			<point x="501" y="107"/>
			<point x="507" y="105"/>
			<point x="505" y="103" type="curve" smooth="yes"/>
			<point x="504" y="102"/>
			<point x="501" y="99"/>
			<point x="503" y="99" type="curve" smooth="yes"/>
			<point x="505" y="99"/>
			<point x="505" y="95"/>
			<point x="506" y="96" type="curve" smooth="yes"/>
			<point x="509" y="98"/>
			<point x="514" y="98"/>
			<point x="513" y="94" type="curve" smooth="yes"/>
			<point x="513" y="94"/>
			<point x="510" y="95"/>
			<point x="511" y="93" type="curve" smooth="yes"/>
			<point x="512" y="91"/>
			<point x="517" y="91"/>
			<point x="515" y="88" type="curve" smooth="yes"/>
			<point x="513" y="86"/>
			<point x="515" y="81"/>
			<point x="518" y="81" type="curve" smooth="yes"/>
			<point x="520" y="81"/>
			<point x="521" y="82"/>
			<point x="523" y="82" type="curve" smooth="yes"/>
			<point x="523" y="82"/>
			<point x="523" y="82"/>
			<point x="523" y="81" type="curve" smooth="yes"/>
			<point x="523" y="78"/>
			<point x="521" y="78"/>
			<point x="522" y="76" type="curve" smooth="yes"/>
			<point x="523" y="74"/>
			<point x="525" y="69"/>
			<point x="527" y="71" type="curve" smooth="yes"/>
			<point x="528" y="72"/>
			<point x="527" y="73"/>
			<point x="528" y="73" type="curve" smooth="yes"/>
			<point x="531" y="73"/>
			<point x="534" y="71"/>
			<point x="532" y="69" type="curve" smooth="yes"/>
			<point x="531" y="67"/>
			<point x="529" y="66"/>
			<point x="529" y="65" type="curve" smooth="yes"/>
			<point x="529" y="63"/>
			<point x="531" y="65"/>
			<point x="533" y="63" type="curve" smooth="yes"/>
			<point x="535" y="61"/>
			<point x="539" y="58"/>
			<point x="539" y="56" type="curve" smooth="yes"/>
			<point x="539" y="54"/>
			<point x="540" y="53"/>
			<point x="542" y="53" type="curve" smooth="yes"/>
			<point x="543" y="53"/>
			<point x="544" y="54"/>
			<point x="545" y="53" type="curve" smooth="yes"/>
			<point x="546" y="52"/>
			<point x="548" y="53"/>
			<point x="549" y="51" type="curve" smooth="yes"/>
			<point x="551" y="47"/>
			<point x="558" y="48"/>
			<point x="560" y="42" type="curve" smooth="yes"/>
			<point x="561" y="39"/>
			<point x="565" y="39"/>
			<point x="568" y="40" type="curve" smooth="yes"/>
			<point x="568" y="40"/>
			<point x="568" y="42"/>
			<point x="569" y="41" type="curve" smooth="yes"/>
			<point x="570" y="40"/>
			<point x="569" y="37"/>
			<point x="569" y="36" type="curve" smooth="yes"/>
			<point x="569" y="33"/>
			<point x="573" y="31"/>
			<point x="577" y="32" type="curve"/>
			<point x="577" y="28"/>
			<point x="581" y="29"/>
			<point x="584" y="27" type="curve" smooth="yes"/>
			<point x="588" y="25"/>
			<point x="595" y="27"/>
			<point x="595" y="22" type="curve" smooth="yes"/>
			<point x="595" y="20"/>
			<point x="598" y="20"/>
			<point x="600" y="18" type="curve" smooth="yes"/>
			<point x="601" y="17"/>
			<point x="602" y="19"/>
			<point x="603" y="18" type="curve" smooth="yes"/>
			<point x="605" y="16"/>
			<point x="600" y="15"/>
			<point x="602" y="14" type="curve" smooth="yes"/>
			<point x="604" y="12"/>
			<point x="606" y="11"/>
			<point x="608" y="12" type="curve"/>
			<point x="609" y="11"/>
			<point x="609" y="9"/>
			<point x="610" y="9" type="curve" smooth="yes"/>
			<point x="611" y="9"/>
			<point x="611" y="10"/>
			<point x="612" y="9" type="curve" smooth="yes"/>
			<point x="613" y="8"/>
			<point x="614" y="6"/>
			<point x="615" y="5" type="curve"/>
			<point x="615" y="7"/>
			<point x="619" y="8"/>
			<point x="619" y="7" type="curve" smooth="yes"/>
			<point x="619" y="6"/>
			<point x="622" y="6"/>
			<point x="621" y="5" type="curve" smooth="yes"/>
			<point x="620" y="4"/>
			<point x="620" y="4"/>
			<point x="620" y="1" type="curve" smooth="yes"/>
			<point x="620" y="-2"/>
			<point x="623" y="-1"/>
			<point x="625" y="-3" type="curve" smooth="yes"/>
			<point x="626" y="-4"/>
			<point x="624" y="-5"/>
			<point x="625" y="-5" type="curve" smooth="yes"/>
			<point x="630" y="-5"/>
			<point x="630" y="-11"/>
			<point x="631" y="-14" type="curve"/>
			<point x="635" y="-12"/>
			<point x="638" y="-22"/>
			<point x="642" y="-18" type="curve" smooth="yes"/>
			<point x="643" y="-17"/>
			<point x="645" y="-15"/>
			<point x="645" y="-16" type="curve" smooth="yes"/>
			<point x="645" y="-18"/>
			<point x="649" y="-23"/>
			<point x="646" y="-23" type="curve" smooth="yes"/>
			<point x="645" y="-23"/>
			<point x="643" y="-23"/>
			<point x="643" y="-24" type="curve" smooth="yes"/>
			<point x="643" y="-26"/>
			<point x="644" y="-28"/>
			<point x="646" y="-28" type="curve" smooth="yes"/>
			<point x="647" y="-28"/>
			<point x="647" y="-26"/>
			<point x="648" y="-27" type="curve" smooth="yes"/>
			<point x="652" y="-30"/>
			<point x="655" y="-43"/>
			<point x="659" y="-38" type="curve" smooth="yes"/>
			<point x="660" y="-37"/>
			<point x="665" y="-37"/>
			<point x="664" y="-38" type="curve" smooth="yes"/>
			<point x="663" y="-39"/>
			<point x="660" y="-40"/>
			<point x="661" y="-41" type="curve" smooth="yes"/>
			<point x="663" y="-43"/>
			<point x="667" y="-41"/>
			<point x="666" y="-43" type="curve" smooth="yes"/>
			<point x="664" y="-45"/>
			<point x="663" y="-49"/>
			<point x="666" y="-50" type="curve" smooth="yes"/>
			<point x="668" y="-51"/>
			<point x="669" y="-54"/>
			<point x="671" y="-54" type="curve" smooth="yes"/>
			<point x="672" y="-54"/>
			<point x="674" y="-50"/>
			<point x="674" y="-51" type="curve" smooth="yes"/>
			<point x="674" y="-52"/>
			<point x="672" y="-55"/>
			<point x="674" y="-56" type="curve" smooth="yes"/>
			<point x="677" y="-59"/>
			<point x="679" y="-68"/>
			<point x="682" y="-65" type="curve" smooth="yes"/>
			<point x="683" y="-63"/>
			<point x="686" y="-63"/>
			<point x="686" y="-65" type="curve" smooth="yes"/>
			<point x="686" y="-66"/>
			<point x="686" y="-68"/>
			<point x="687" y="-68" type="curve" smooth="yes"/>
			<point x="689" y="-68"/>
			<point x="689" y="-71"/>
			<point x="691" y="-71" type="curve" smooth="yes"/>
			<point x="692" y="-71"/>
			<point x="694" y="-69"/>
			<point x="694" y="-71" type="curve" smooth="yes"/>
			<point x="694" y="-72"/>
			<point x="694" y="-73"/>
			<point x="694" y="-73" type="curve" smooth="yes"/>
			<point x="697" y="-73"/>
			<point x="700" y="-77"/>
			<point x="701" y="-77" type="curve" smooth="yes"/>
			<point x="704" y="-77"/>
			<point x="709" y="-74"/>
			<point x="710" y="-76" type="curve" smooth="yes"/>
			<point x="712" y="-78"/>
			<point x="719" y="-73"/>
			<point x="721" y="-78" type="curve" smooth="yes"/>
			<point x="722" y="-80"/>
			<point x="722" y="-84"/>
			<point x="726" y="-83" type="curve"/>
			<point x="727" y="-87"/>
			<point x="730" y="-85"/>
			<point x="733" y="-88" type="curve" smooth="yes"/>
			<point x="735" y="-89"/>
			<point x="738" y="-92"/>
			<point x="738" y="-89" type="curve" smooth="yes"/>
			<point x="738" y="-88"/>
			<point x="740" y="-88"/>
			<point x="740" y="-88" type="curve" smooth="yes"/>
			<point x="740" y="-87"/>
			<point x="737" y="-87"/>
			<point x="737" y="-85" type="curve" smooth="yes"/>
			<point x="737" y="-83"/>
			<point x="745" y="-83"/>
			<point x="744" y="-85" type="curve" smooth="yes"/>
			<point x="743" y="-88"/>
			<point x="745" y="-88"/>
		</contour>
		<contour>
			<point x="126" y="148" type="curve" smooth="yes"/>
			<point x="126" y="149"/>
			<point x="126" y="150"/>
			<point x="127" y="150" type="curve" smooth="yes"/>
			<point x="128" y="150"/>
			<point x="128" y="148"/>
			<point x="127" y="148" type="curve" smooth="yes"/>
			<point x="127" y="148"/>
			<point x="126" y="147"/>
		</contour>
		<contour>
			<point x="21" y="389" type="curve" smooth="yes"/>
			<point x="20" y="389"/>
			<point x="20" y="390"/>
			<point x="20" y="390" type="curve" smooth="yes"/>
			<point x="22" y="391"/>
			<point x="22" y="389"/>
		</contour>
		<contour>
			<point x="19" y="397" type="curve" smooth="yes"/>
			<point x="17" y="397"/>
			<point x="19" y="406"/>
			<point x="22" y="403" type="curve" smooth="yes"/>
			<point x="25" y="401"/>
			<point x="21" y="397"/>
		</contour>
		<contour>
			<point x="28" y="392" type="curve" smooth="yes"/>
			<point x="28" y="394"/>
			<point x="27" y="395"/>
			<point x="28" y="395" type="curve" smooth="yes"/>
			<point x="31" y="395"/>
			<point x="31" y="403"/>
			<point x="34" y="400" type="curve" smooth="yes"/>
			<point x="36" y="399"/>
			<point x="36" y="395"/>
			<point x="36" y="393" type="curve"/>
			<point x="32" y="394"/>
			<point x="28" y="389"/>
		</contour>
		<contour>
			<point x="65" y="396" type="curve" smooth="yes"/>
			<point x="63" y="396"/>
			<point x="60" y="400"/>
			<point x="62" y="401" type="curve" smooth="yes"/>
			<point x="65" y="402"/>
			<point x="67" y="396"/>
		</contour>
		<contour>
			<point x="257" y="228" type="curve"/>
			<point x="257" y="229"/>
			<point x="257" y="229"/>
			<point x="257" y="230" type="curve" smooth="yes"/>
			<point x="257" y="230"/>
			<point x="259" y="231"/>
			<point x="259" y="230" type="curve" smooth="yes"/>
			<point x="259" y="229"/>
			<point x="258" y="229"/>
		</contour>
		<contour>
			<point x="121" y="418" type="curve"/>
			<point x="120" y="418"/>
			<point x="119" y="418"/>
			<point x="118" y="419" type="curve" smooth="yes"/>
			<point x="116" y="422"/>
			<point x="121" y="428"/>
			<point x="125" y="425" type="curve" smooth="yes"/>
			<point x="127" y="423"/>
			<point x="121" y="422"/>
		</contour>
		<contour>
			<point x="133" y="412" type="curve" smooth="yes"/>
			<point x="133" y="415"/>
			<point x="127" y="418"/>
			<point x="130" y="418" type="curve" smooth="yes"/>
			<point x="135" y="418"/>
			<point x="136" y="415"/>
			<point x="136" y="413" type="curve" smooth="yes"/>
			<point x="136" y="412"/>
			<point x="133" y="411"/>
		</contour>
		<contour>
			<point x="539" y="63" type="curve" smooth="yes"/>
			<point x="542" y="63"/>
			<point x="543" y="63"/>
			<point x="543" y="63" type="curve" smooth="yes"/>
			<point x="543" y="61"/>
			<point x="538" y="63"/>
		</contour>
		<contour>
			<point x="529" y="86" type="curve" smooth="yes"/>
			<point x="526" y="86"/>
			<point x="523" y="89"/>
			<point x="525" y="89" type="curve" smooth="yes"/>
			<point x="526" y="89"/>
			<point x="528" y="89"/>
			<point x="528" y="88" type="curve" smooth="yes"/>
			<point x="528" y="88"/>
			<point x="531" y="86"/>
		</contour>
		<contour>
			<point x="533" y="81" type="curve"/>
			<point x="532" y="82"/>
			<point x="531" y="82"/>
			<point x="531" y="84" type="curve" smooth="yes"/>
			<point x="531" y="87"/>
			<point x="536" y="84"/>
		</contour>
		<contour>
			<point x="516" y="103" type="curve" smooth="yes"/>
			<point x="515" y="103"/>
			<point x="513" y="103"/>
			<point x="514" y="104" type="curve" smooth="yes"/>
			<point x="515" y="105"/>
			<point x="517" y="103"/>
		</contour>
		<contour>
			<point x="547" y="70" type="curve" smooth="yes"/>
			<point x="548" y="73"/>
			<point x="554" y="73"/>
			<point x="554" y="71" type="curve" smooth="yes"/>
			<point x="554" y="67"/>
			<point x="546" y="67"/>
		</contour>
		<contour>
			<point x="544" y="76" type="curve" smooth="yes"/>
			<point x="544" y="78"/>
			<point x="547" y="78"/>
			<point x="547" y="76" type="curve" smooth="yes"/>
			<point x="547" y="76"/>
			<point x="544" y="75"/>
		</contour>
		<contour>
			<point x="580" y="42" type="curve" smooth="yes"/>
			<point x="580" y="44"/>
			<point x="581" y="45"/>
			<point x="582" y="44" type="curve" smooth="yes"/>
			<point x="583" y="43"/>
			<point x="580" y="41"/>
		</contour>
		<contour>
			<point x="500" y="125" type="curve" smooth="yes"/>
			<point x="495" y="125"/>
			<point x="496" y="130"/>
			<point x="501" y="128" type="curve" smooth="yes"/>
			<point x="503" y="127"/>
			<point x="501" y="125"/>
		</contour>
		<contour>
			<point x="624" y="11" type="curve" smooth="yes"/>
			<point x="623" y="11"/>
			<point x="621" y="11"/>
			<point x="621" y="12" type="curve" smooth="yes"/>
			<point x="621" y="15"/>
			<point x="625" y="15"/>
			<point x="625" y="14" type="curve" smooth="yes"/>
			<point x="625" y="12"/>
			<point x="625" y="11"/>
		</contour>
		<contour>
			<point x="560" y="76" type="curve" smooth="yes"/>
			<point x="559" y="76"/>
			<point x="559" y="78"/>
			<point x="560" y="78" type="curve" smooth="yes"/>
			<point x="561" y="78"/>
			<point x="561" y="76"/>
		</contour>
		<contour>
			<point x="477" y="160" type="curve" smooth="yes"/>
			<point x="476" y="162"/>
			<point x="476" y="169"/>
			<point x="480" y="166" type="curve" smooth="yes"/>
			<point x="482" y="165"/>
			<point x="482" y="163"/>
			<point x="482" y="160" type="curve" smooth="yes"/>
			<point x="482" y="157"/>
			<point x="478" y="158"/>
		</contour>
		<contour>
			<point x="690" y="-50" type="curve" smooth="yes"/>
			<point x="688" y="-50"/>
			<point x="686" y="-50"/>
			<point x="686" y="-47" type="curve"/>
			<point x="688" y="-47"/>
			<point x="688" y="-44"/>
			<point x="689" y="-45" type="curve" smooth="yes"/>
			<point x="691" y="-47"/>
			<point x="693" y="-50"/>
		</contour>
		<contour>
			<point x="654" y="-13" type="curve" smooth="yes"/>
			<point x="653" y="-13"/>
			<point x="652" y="-13"/>
			<point x="652" y="-12" type="curve" smooth="yes"/>
			<point x="652" y="-10"/>
			<point x="654" y="-7"/>
			<point x="654" y="-8" type="curve" smooth="yes"/>
			<point x="654" y="-11"/>
			<point x="656" y="-13"/>
		</contour>
		<contour>
			<point x="571" y="75" type="curve"/>
			<point x="569" y="75"/>
			<point x="564" y="76"/>
			<point x="566" y="78" type="curve" smooth="yes"/>
			<point x="567" y="80"/>
			<point x="568" y="81"/>
			<point x="569" y="80" type="curve" smooth="yes"/>
			<point x="570" y="78"/>
			<point x="571" y="77"/>
		</contour>
		<contour>
			<point x="675" y="-28" type="curve" smooth="yes"/>
			<point x="675" y="-33"/>
			<point x="671" y="-22"/>
			<point x="675" y="-23" type="curve" smooth="yes"/>
			<point x="677" y="-24"/>
			<point x="675" y="-26"/>
		</contour>
		<contour>
			<point x="722" y="-77" type="curve" smooth="yes"/>
			<point x="720" y="-77"/>
			<point x="718" y="-77"/>
			<point x="719" y="-74" type="curve" smooth="yes"/>
			<point x="721" y="-71"/>
			<point x="724" y="-77"/>
		</contour>
		<contour>
			<point x="608" y="40" type="curve" smooth="yes"/>
			<point x="605" y="40"/>
			<point x="604" y="42"/>
			<point x="602" y="42" type="curve" smooth="yes"/>
			<point x="602" y="42" type="line" smooth="yes"/>
			<point x="602" y="45"/>
			<point x="604" y="48"/>
			<point x="606" y="45" type="curve" smooth="yes"/>
			<point x="608" y="44"/>
			<point x="609" y="40"/>
		</contour>
		<contour>
			<point x="481" y="168" type="curve" smooth="yes"/>
			<point x="481" y="169"/>
			<point x="481" y="169"/>
			<point x="482" y="170" type="curve" smooth="yes"/>
			<point x="482" y="170"/>
			<point x="482" y="169"/>
			<point x="483" y="169" type="curve"/>
			<point x="483" y="169"/>
			<point x="481" y="166"/>
		</contour>
		<contour>
			<point x="654" y="-1" type="curve" smooth="yes"/>
			<point x="653" y="-1"/>
			<point x="653" y="0"/>
			<point x="653" y="0" type="curve" smooth="yes"/>
			<point x="653" y="0"/>
			<point x="653" y="1"/>
			<point x="653" y="1" type="curve" smooth="yes"/>
			<point x="654" y="3"/>
			<point x="655" y="-1"/>
		</contour>
		<contour>
			<point x="515" y="138" type="curve" smooth="yes"/>
			<point x="517" y="140"/>
			<point x="520" y="143"/>
			<point x="520" y="141" type="curve" smooth="yes"/>
			<point x="520" y="139"/>
			<point x="522" y="139"/>
			<point x="521" y="138" type="curve" smooth="yes"/>
			<point x="520" y="137"/>
			<point x="514" y="137"/>
		</contour>
		<contour>
			<point x="615" y="49" type="curve" smooth="yes"/>
			<point x="616" y="49"/>
			<point x="617" y="49"/>
			<point x="617" y="49" type="curve" smooth="yes"/>
			<point x="619" y="47"/>
			<point x="613" y="49"/>
		</contour>
		<contour>
			<point x="605" y="55" type="curve" smooth="yes"/>
			<point x="603" y="56"/>
			<point x="609" y="58"/>
			<point x="610" y="58" type="curve" smooth="yes"/>
			<point x="613" y="58"/>
			<point x="608" y="54"/>
		</contour>
		<contour>
			<point x="632" y="30" type="curve" smooth="yes"/>
			<point x="632" y="31"/>
			<point x="631" y="32"/>
			<point x="632" y="33" type="curve" smooth="yes"/>
			<point x="633" y="34"/>
			<point x="637" y="34"/>
			<point x="636" y="33" type="curve" smooth="yes"/>
			<point x="635" y="32"/>
			<point x="632" y="28"/>
		</contour>
		<contour>
			<point x="719" y="-56" type="curve" smooth="yes"/>
			<point x="719" y="-50"/>
			<point x="725" y="-55"/>
			<point x="722" y="-56" type="curve" smooth="yes"/>
			<point x="720" y="-57"/>
			<point x="719" y="-57"/>
		</contour>
		<contour>
			<point x="637" y="33" type="curve" smooth="yes"/>
			<point x="637" y="34" type="line" smooth="yes"/>
			<point x="637" y="36"/>
			<point x="638" y="33"/>
			<point x="639" y="33" type="curve" smooth="yes"/>
			<point x="639" y="33"/>
			<point x="637" y="32"/>
		</contour>
		<contour>
			<point x="590" y="81" type="curve" smooth="yes"/>
			<point x="590" y="82"/>
			<point x="587" y="84"/>
			<point x="589" y="84" type="curve" smooth="yes"/>
			<point x="590" y="84"/>
			<point x="595" y="85"/>
			<point x="594" y="84" type="curve" smooth="yes"/>
			<point x="592" y="82"/>
			<point x="590" y="78"/>
		</contour>
		<contour>
			<point x="694" y="-23" type="curve" smooth="yes"/>
			<point x="694" y="-22"/>
			<point x="693" y="-23"/>
			<point x="693" y="-22" type="curve" smooth="yes"/>
			<point x="693" y="-19"/>
			<point x="696" y="-19"/>
			<point x="696" y="-18" type="curve"/>
			<point x="697" y="-18"/>
			<point x="700" y="-19"/>
			<point x="699" y="-21" type="curve" smooth="yes"/>
			<point x="698" y="-22"/>
			<point x="694" y="-24"/>
		</contour>
		<contour>
			<point x="597" y="80" type="curve" smooth="yes"/>
			<point x="598" y="80"/>
			<point x="604" y="81"/>
			<point x="603" y="80" type="curve" smooth="yes"/>
			<point x="601" y="77"/>
			<point x="593" y="80"/>
		</contour>
		<contour>
			<point x="220" y="458" type="curve" smooth="yes"/>
			<point x="220" y="458"/>
			<point x="223" y="458"/>
			<point x="223" y="458" type="curve" smooth="yes"/>
			<point x="223" y="456"/>
			<point x="219" y="456"/>
		</contour>
		<contour>
			<point x="542" y="137" type="curve" smooth="yes"/>
			<point x="540" y="139"/>
			<point x="543" y="140"/>
			<point x="543" y="138" type="curve" smooth="yes"/>
			<point x="543" y="137"/>
			<point x="542" y="137"/>
		</contour>
		<contour>
			<point x="561" y="115" type="curve" smooth="yes"/>
			<point x="561" y="115"/>
			<point x="560" y="115"/>
			<point x="560" y="116" type="curve" smooth="yes"/>
			<point x="560" y="120"/>
			<point x="568" y="119"/>
			<point x="566" y="117" type="curve" smooth="yes"/>
			<point x="565" y="116"/>
			<point x="564" y="115"/>
		</contour>
		<contour>
			<point x="587" y="103" type="curve" smooth="yes"/>
			<point x="587" y="105"/>
			<point x="592" y="106"/>
			<point x="592" y="103" type="curve" smooth="yes"/>
			<point x="592" y="100"/>
			<point x="587" y="99"/>
		</contour>
		<contour>
			<point x="543" y="153" type="curve" smooth="yes"/>
			<point x="542" y="153"/>
			<point x="542" y="155"/>
			<point x="543" y="155" type="curve" smooth="yes"/>
			<point x="544" y="155"/>
			<point x="544" y="153"/>
		</contour>
		<contour>
			<point x="573" y="132" type="curve" smooth="yes"/>
			<point x="572" y="131"/>
			<point x="570" y="133"/>
			<point x="571" y="133" type="curve" smooth="yes"/>
			<point x="572" y="133"/>
			<point x="575" y="133"/>
		</contour>
		<contour>
			<point x="663" y="44" type="curve" smooth="yes"/>
			<point x="663" y="44"/>
			<point x="663" y="45"/>
			<point x="663" y="45" type="curve" smooth="yes"/>
			<point x="664" y="45"/>
			<point x="664" y="45"/>
			<point x="664" y="44" type="curve" smooth="yes"/>
			<point x="664" y="44"/>
			<point x="664" y="44"/>
		</contour>
		<contour>
			<point x="268" y="469" type="curve" smooth="yes"/>
			<point x="267" y="470"/>
			<point x="269" y="474"/>
			<point x="267" y="474" type="curve" smooth="yes"/>
			<point x="264" y="474"/>
			<point x="262" y="474"/>
			<point x="262" y="476" type="curve" smooth="yes"/>
			<point x="262" y="479"/>
			<point x="264" y="481"/>
			<point x="265" y="478" type="curve"/>
			<point x="268" y="480"/>
			<point x="272" y="483"/>
			<point x="272" y="480" type="curve" smooth="yes"/>
			<point x="272" y="479"/>
			<point x="273" y="478"/>
			<point x="273" y="477" type="curve"/>
			<point x="274" y="477"/>
			<point x="274" y="477"/>
			<point x="275" y="477" type="curve"/>
			<point x="275" y="476"/>
			<point x="274" y="476"/>
			<point x="276" y="473" type="curve" smooth="yes"/>
			<point x="276" y="472" type="line"/>
			<point x="273" y="472"/>
			<point x="270" y="467"/>
		</contour>
		<contour>
			<point x="263" y="485" type="curve" smooth="yes"/>
			<point x="259" y="485"/>
			<point x="267" y="493"/>
			<point x="267" y="487" type="curve" smooth="yes"/>
			<point x="267" y="485"/>
			<point x="265" y="485"/>
		</contour>
		<contour>
			<point x="281" y="477" type="curve" smooth="yes"/>
			<point x="280" y="477"/>
			<point x="280" y="479"/>
			<point x="280" y="478" type="curve"/>
			<point x="281" y="478" type="line"/>
			<point x="281" y="480"/>
			<point x="280" y="481"/>
			<point x="281" y="481" type="curve" smooth="yes"/>
			<point x="283" y="481"/>
			<point x="293" y="476"/>
			<point x="293" y="480" type="curve" smooth="yes"/>
			<point x="293" y="481"/>
			<point x="292" y="483"/>
			<point x="293" y="483" type="curve" smooth="yes"/>
			<point x="295" y="483"/>
			<point x="295" y="482"/>
			<point x="296" y="482" type="curve" smooth="yes"/>
			<point x="301" y="482"/>
			<point x="311" y="484"/>
			<point x="307" y="481" type="curve" smooth="yes"/>
			<point x="306" y="480"/>
			<point x="305" y="478"/>
			<point x="304" y="479" type="curve" smooth="yes"/>
			<point x="302" y="481"/>
			<point x="293" y="484"/>
			<point x="293" y="480" type="curve" smooth="yes"/>
			<point x="293" y="479"/>
			<point x="293" y="477"/>
			<point x="292" y="477" type="curve" smooth="yes"/>
			<point x="289" y="477"/>
			<point x="285" y="477"/>
		</contour>
		<contour>
			<point x="344" y="493" type="curve" smooth="yes"/>
			<point x="344" y="495"/>
			<point x="348" y="498"/>
			<point x="348" y="495" type="curve" smooth="yes"/>
			<point x="348" y="494"/>
			<point x="344" y="491"/>
		</contour>
		<contour>
			<point x="612" y="231" type="curve" smooth="yes"/>
			<point x="606" y="231"/>
			<point x="619" y="235"/>
			<point x="617" y="231" type="curve" smooth="yes"/>
			<point x="616" y="229"/>
			<point x="614" y="231"/>
		</contour>
		<contour>
			<point x="669" y="216" type="curve" smooth="yes"/>
			<point x="668" y="218"/>
			<point x="671" y="220"/>
			<point x="671" y="218" type="curve" smooth="yes"/>
			<point x="671" y="217"/>
			<point x="670" y="214"/>
		</contour>
		<contour>
			<point x="694" y="192" type="curve"/>
			<point x="694" y="193"/>
			<point x="696" y="194"/>
			<point x="697" y="194" type="curve"/>
			<point x="697" y="193"/>
			<point x="697" y="192"/>
		</contour>
		<contour>
			<point x="681" y="206" type="curve" smooth="yes"/>
			<point x="681" y="208"/>
			<point x="685" y="208"/>
			<point x="685" y="207" type="curve" smooth="yes"/>
			<point x="685" y="206"/>
			<point x="681" y="205"/>
		</contour>
		<contour>
			<point x="719" y="179" type="curve" smooth="yes"/>
			<point x="718" y="179"/>
			<point x="715" y="180"/>
			<point x="716" y="181" type="curve" smooth="yes"/>
			<point x="719" y="183"/>
			<point x="721" y="179"/>
		</contour>
		<contour>
			<point x="727" y="172" type="curve" smooth="yes"/>
			<point x="725" y="172"/>
			<point x="724" y="173"/>
			<point x="724" y="174" type="curve" smooth="yes"/>
			<point x="724" y="177"/>
			<point x="730" y="177"/>
			<point x="730" y="175" type="curve" smooth="yes"/>
			<point x="730" y="174"/>
			<point x="729" y="172"/>
		</contour>
		<contour>
			<point x="749" y="152" type="curve" smooth="yes"/>
			<point x="748" y="152"/>
			<point x="747" y="154"/>
			<point x="748" y="154" type="curve" smooth="yes"/>
			<point x="749" y="154"/>
			<point x="751" y="152"/>
		</contour>
		<contour>
			<point x="713" y="192" type="curve" smooth="yes"/>
			<point x="713" y="192"/>
			<point x="710" y="193"/>
			<point x="711" y="193" type="curve" smooth="yes"/>
			<point x="712" y="193"/>
			<point x="712" y="195"/>
			<point x="713" y="194" type="curve" smooth="yes"/>
			<point x="714" y="193"/>
			<point x="714" y="193"/>
		</contour>
		<contour>
			<point x="857" y="48" type="curve" smooth="yes"/>
			<point x="857" y="50"/>
			<point x="862" y="48"/>
			<point x="859" y="48" type="curve" smooth="yes"/>
			<point x="858" y="48"/>
			<point x="857" y="48"/>
		</contour>
		<contour>
			<point x="842" y="66" type="curve" smooth="yes"/>
			<point x="841" y="66"/>
			<point x="839" y="66"/>
			<point x="840" y="67" type="curve" smooth="yes"/>
			<point x="841" y="69"/>
			<point x="843" y="66"/>
		</contour>
		<contour>
			<point x="796" y="117" type="curve" smooth="yes"/>
			<point x="796" y="119"/>
			<point x="798" y="120"/>
			<point x="798" y="119" type="curve" smooth="yes"/>
			<point x="798" y="118"/>
			<point x="796" y="116"/>
		</contour>
		<contour>
			<point x="936" y="-22" type="curve" smooth="yes"/>
			<point x="935" y="-22"/>
			<point x="936" y="-19"/>
			<point x="936" y="-19" type="curve" smooth="yes"/>
			<point x="938" y="-19"/>
			<point x="939" y="-18"/>
			<point x="939" y="-19" type="curve" smooth="yes"/>
			<point x="939" y="-22"/>
			<point x="938" y="-22"/>
		</contour>
		<contour>
			<point x="958" y="-18" type="curve" smooth="yes"/>
			<point x="956" y="-23"/>
			<point x="952" y="-14"/>
			<point x="946" y="-14" type="curve"/>
			<point x="946" y="-13"/>
			<point x="945" y="-12"/>
			<point x="945" y="-11" type="curve" smooth="yes"/>
			<point x="945" y="-10"/>
			<point x="942" y="-11"/>
			<point x="941" y="-11" type="curve" smooth="yes"/>
			<point x="940" y="-11"/>
			<point x="941" y="-7"/>
			<point x="939" y="-7" type="curve"/>
			<point x="941" y="-3"/>
			<point x="946" y="-5"/>
			<point x="945" y="-11" type="curve"/>
			<point x="952" y="-8"/>
			<point x="956" y="-13"/>
			<point x="961" y="-13" type="curve" smooth="yes"/>
			<point x="963" y="-13"/>
			<point x="960" y="-16"/>
		</contour>
		<contour>
			<point x="957" y="-7" type="curve" smooth="yes"/>
			<point x="956" y="-7"/>
			<point x="956" y="-5"/>
			<point x="957" y="-5" type="curve" smooth="yes"/>
			<point x="958" y="-5"/>
			<point x="958" y="-7"/>
		</contour>
		<contour>
			<point x="452" y="527" type="curve" smooth="yes"/>
			<point x="451" y="526"/>
			<point x="450" y="527"/>
			<point x="449" y="528" type="curve" smooth="yes"/>
			<point x="448" y="529"/>
			<point x="450" y="532"/>
			<point x="451" y="532" type="curve" smooth="yes"/>
			<point x="452" y="532"/>
			<point x="454" y="528"/>
		</contour>
		<contour>
			<point x="767" y="227" type="curve" smooth="yes"/>
			<point x="767" y="229"/>
			<point x="770" y="234"/>
			<point x="770" y="231" type="curve" smooth="yes"/>
			<point x="770" y="229"/>
			<point x="767" y="225"/>
		</contour>
		<contour>
			<point x="919" y="82" type="curve" smooth="yes"/>
			<point x="916" y="80"/>
			<point x="913" y="83"/>
			<point x="913" y="85" type="curve"/>
			<point x="916" y="84"/>
			<point x="919" y="85"/>
			<point x="919" y="84" type="curve" smooth="yes"/>
			<point x="919" y="83"/>
			<point x="919" y="82"/>
		</contour>
		<contour>
			<point x="866" y="138" type="curve" smooth="yes"/>
			<point x="865" y="138"/>
			<point x="864" y="139"/>
			<point x="864" y="139" type="curve" smooth="yes"/>
			<point x="863" y="140"/>
			<point x="864" y="141"/>
			<point x="864" y="141" type="curve" smooth="yes"/>
			<point x="865" y="141"/>
			<point x="867" y="141"/>
			<point x="867" y="140" type="curve" smooth="yes"/>
			<point x="867" y="139"/>
			<point x="867" y="138"/>
		</contour>
		<contour>
			<point x="522" y="481" type="curve" smooth="yes"/>
			<point x="516" y="476"/>
			<point x="522" y="490"/>
			<point x="524" y="492" type="curve"/>
			<point x="526" y="490"/>
			<point x="525" y="483"/>
			<point x="525" y="483" type="curve" smooth="yes"/>
			<point x="524" y="482"/>
			<point x="523" y="482"/>
		</contour>
		<contour>
			<point x="872" y="135" type="curve"/>
			<point x="870" y="136"/>
			<point x="873" y="139"/>
			<point x="873" y="137" type="curve" smooth="yes"/>
			<point x="873" y="136"/>
			<point x="872" y="136"/>
		</contour>
		<contour>
			<point x="534" y="494" type="curve" smooth="yes"/>
			<point x="533" y="492"/>
			<point x="531" y="496"/>
			<point x="532" y="498" type="curve"/>
			<point x="533" y="498"/>
			<point x="535" y="496"/>
		</contour>
		<contour>
			<point x="536" y="493" type="curve" smooth="yes"/>
			<point x="535" y="492"/>
			<point x="532" y="494"/>
			<point x="534" y="494" type="curve" smooth="yes"/>
			<point x="535" y="494"/>
			<point x="536" y="493"/>
		</contour>
		<contour>
			<point x="527" y="501" type="curve" smooth="yes"/>
			<point x="527" y="501"/>
			<point x="529" y="503"/>
			<point x="529" y="502" type="curve" smooth="yes"/>
			<point x="529" y="500"/>
			<point x="526" y="499"/>
		</contour>
		<contour>
			<point x="539" y="566" type="curve" smooth="yes"/>
			<point x="538" y="566"/>
			<point x="538" y="568"/>
			<point x="538" y="568" type="curve" smooth="yes"/>
			<point x="539" y="568"/>
			<point x="540" y="566"/>
		</contour>
		<contour>
			<point x="845" y="271" type="curve" smooth="yes"/>
			<point x="844" y="271"/>
			<point x="843" y="273"/>
			<point x="844" y="273" type="curve" smooth="yes"/>
			<point x="845" y="273"/>
			<point x="846" y="271"/>
		</contour>
		<contour>
			<point x="742" y="397" type="curve" smooth="yes"/>
			<point x="738" y="394"/>
			<point x="736" y="400"/>
			<point x="734" y="402" type="curve" smooth="yes"/>
			<point x="731" y="405"/>
			<point x="740" y="402"/>
			<point x="742" y="402" type="curve" smooth="yes"/>
			<point x="743" y="402"/>
			<point x="743" y="399"/>
		</contour>
		<contour>
			<point x="853" y="286" type="curve" smooth="yes"/>
			<point x="852" y="286"/>
			<point x="850" y="286"/>
			<point x="851" y="287" type="curve" smooth="yes"/>
			<point x="852" y="289"/>
			<point x="855" y="286"/>
		</contour>
		<contour>
			<point x="748" y="399" type="curve" smooth="yes"/>
			<point x="747" y="399"/>
			<point x="747" y="403"/>
			<point x="748" y="404" type="curve" smooth="yes"/>
			<point x="749" y="405"/>
			<point x="749" y="404"/>
			<point x="751" y="404" type="curve" smooth="yes"/>
			<point x="752" y="404"/>
			<point x="751" y="407"/>
			<point x="752" y="407" type="curve" smooth="yes"/>
			<point x="755" y="407"/>
			<point x="753" y="403"/>
			<point x="753" y="400" type="curve" smooth="yes"/>
			<point x="753" y="399"/>
			<point x="749" y="399"/>
		</contour>
		<contour>
			<point x="946" y="221" type="curve"/>
			<point x="946" y="221"/>
			<point x="946" y="221"/>
			<point x="945" y="223" type="curve" smooth="yes"/>
			<point x="944" y="224"/>
			<point x="946" y="224"/>
			<point x="947" y="223" type="curve" smooth="yes"/>
			<point x="947" y="223"/>
			<point x="946" y="223"/>
		</contour>
		<contour>
			<point x="983" y="209" type="curve" smooth="yes"/>
			<point x="982" y="209"/>
			<point x="982" y="209"/>
			<point x="982" y="210" type="curve" smooth="yes"/>
			<point x="982" y="210"/>
			<point x="983" y="210"/>
			<point x="983" y="210" type="curve" smooth="yes"/>
			<point x="984" y="209"/>
			<point x="984" y="209"/>
		</contour>
		<contour>
			<point x="832" y="370" type="curve" smooth="yes"/>
			<point x="832" y="371"/>
			<point x="834" y="372"/>
			<point x="834" y="371" type="curve" smooth="yes"/>
			<point x="834" y="369"/>
			<point x="832" y="369"/>
		</contour>
		<contour>
			<point x="1023" y="185" type="curve" smooth="yes"/>
			<point x="1019" y="185"/>
			<point x="1023" y="193"/>
			<point x="1027" y="190" type="curve" smooth="yes"/>
			<point x="1029" y="187"/>
			<point x="1026" y="185"/>
		</contour>
		<contour>
			<point x="889" y="340" type="curve" smooth="yes"/>
			<point x="888" y="341"/>
			<point x="887" y="342"/>
			<point x="888" y="344" type="curve" smooth="yes"/>
			<point x="889" y="345"/>
			<point x="890" y="345"/>
			<point x="890" y="344" type="curve" smooth="yes"/>
			<point x="890" y="342"/>
			<point x="890" y="339"/>
		</contour>
		<contour>
			<point x="826" y="406" type="curve" smooth="yes"/>
			<point x="825" y="406"/>
			<point x="825" y="408"/>
			<point x="825" y="411" type="curve" smooth="yes"/>
			<point x="825" y="412"/>
			<point x="828" y="411"/>
			<point x="828" y="411" type="curve"/>
			<point x="828" y="408"/>
			<point x="830" y="408"/>
			<point x="830" y="407" type="curve" smooth="yes"/>
			<point x="830" y="405"/>
			<point x="828" y="406"/>
		</contour>
		<contour>
			<point x="918" y="322" type="curve" smooth="yes"/>
			<point x="917" y="322"/>
			<point x="914" y="322"/>
			<point x="914" y="323" type="curve" smooth="yes"/>
			<point x="914" y="324"/>
			<point x="913" y="326"/>
			<point x="916" y="326" type="curve" smooth="yes"/>
			<point x="919" y="326"/>
			<point x="920" y="322"/>
		</contour>
		<contour>
			<point x="826" y="413" type="curve" smooth="yes"/>
			<point x="826" y="414"/>
			<point x="828" y="414"/>
			<point x="828" y="414" type="curve" smooth="yes"/>
			<point x="829" y="414"/>
			<point x="829" y="414"/>
			<point x="829" y="413" type="curve" smooth="yes"/>
			<point x="829" y="413"/>
			<point x="826" y="412"/>
		</contour>
		<contour>
			<point x="952" y="302" type="curve" smooth="yes"/>
			<point x="951" y="302"/>
			<point x="947" y="302"/>
			<point x="949" y="303" type="curve" smooth="yes"/>
			<point x="950" y="304"/>
			<point x="954" y="302"/>
		</contour>
		<contour>
			<point x="960" y="298" type="curve"/>
			<point x="958" y="300"/>
			<point x="954" y="302"/>
			<point x="956" y="302" type="curve" smooth="yes"/>
			<point x="958" y="302"/>
			<point x="960" y="301"/>
		</contour>
		<contour>
			<point x="1083" y="192" type="curve" smooth="yes"/>
			<point x="1082" y="192"/>
			<point x="1082" y="193"/>
			<point x="1083" y="193" type="curve" smooth="yes"/>
			<point x="1083" y="193"/>
			<point x="1084" y="193"/>
			<point x="1084" y="192" type="curve" smooth="yes"/>
			<point x="1084" y="192"/>
			<point x="1083" y="192"/>
		</contour>
		<contour>
			<point x="973" y="295" type="curve" smooth="yes"/>
			<point x="973" y="297"/>
			<point x="975" y="297"/>
			<point x="974" y="300" type="curve"/>
			<point x="976" y="301"/>
			<point x="980" y="305"/>
			<point x="980" y="302" type="curve" smooth="yes"/>
			<point x="980" y="298"/>
			<point x="982" y="297"/>
			<point x="978" y="296" type="curve" smooth="yes"/>
			<point x="976" y="295"/>
			<point x="973" y="293"/>
		</contour>
		<contour>
			<point x="996" y="283" type="curve" smooth="yes"/>
			<point x="994" y="283"/>
			<point x="991" y="283"/>
			<point x="991" y="285" type="curve" smooth="yes"/>
			<point x="991" y="286"/>
			<point x="991" y="287"/>
			<point x="991" y="289" type="curve"/>
			<point x="993" y="287"/>
			<point x="995" y="289"/>
			<point x="996" y="287" type="curve" smooth="yes"/>
			<point x="997" y="286"/>
			<point x="997" y="283"/>
		</contour>
		<contour>
			<point x="999" y="286" type="curve" smooth="yes"/>
			<point x="998" y="286"/>
			<point x="996" y="287"/>
			<point x="997" y="289" type="curve" smooth="yes"/>
			<point x="998" y="290"/>
			<point x="1001" y="286"/>
		</contour>
		<contour>
			<point x="1018" y="270" type="curve" smooth="yes"/>
			<point x="1012" y="270"/>
			<point x="1013" y="279"/>
			<point x="1019" y="273" type="curve" smooth="yes"/>
			<point x="1020" y="272"/>
			<point x="1019" y="270"/>
		</contour>
		<contour>
			<point x="1048" y="258" type="curve" smooth="yes"/>
			<point x="1046" y="256"/>
			<point x="1045" y="260"/>
			<point x="1046" y="261" type="curve" smooth="yes"/>
			<point x="1048" y="262"/>
			<point x="1050" y="262"/>
			<point x="1050" y="263" type="curve"/>
			<point x="1052" y="263"/>
			<point x="1055" y="264"/>
			<point x="1055" y="261" type="curve" smooth="yes"/>
			<point x="1055" y="258"/>
			<point x="1049" y="260"/>
		</contour>
		<contour>
			<point x="1046" y="269" type="curve" smooth="yes"/>
			<point x="1044" y="269"/>
			<point x="1044" y="270"/>
			<point x="1045" y="270" type="curve" smooth="yes"/>
			<point x="1045" y="270"/>
			<point x="1045" y="270"/>
			<point x="1046" y="271" type="curve"/>
			<point x="1046" y="270"/>
			<point x="1048" y="269"/>
		</contour>
		<contour>
			<point x="1062" y="253" type="curve" smooth="yes"/>
			<point x="1060" y="253"/>
			<point x="1057" y="253"/>
			<point x="1057" y="254" type="curve" smooth="yes"/>
			<point x="1057" y="257"/>
			<point x="1061" y="260"/>
			<point x="1061" y="258" type="curve" smooth="yes"/>
			<point x="1061" y="257"/>
			<point x="1063" y="253"/>
		</contour>
		<contour>
			<point x="1075" y="242" type="curve" smooth="yes"/>
			<point x="1068" y="242"/>
			<point x="1077" y="252"/>
			<point x="1077" y="247" type="curve" smooth="yes"/>
			<point x="1077" y="246"/>
			<point x="1076" y="242"/>
		</contour>
		<contour>
			<point x="1093" y="235" type="curve" smooth="yes"/>
			<point x="1092" y="235"/>
			<point x="1092" y="237"/>
			<point x="1089" y="238" type="curve" smooth="yes"/>
			<point x="1089" y="238"/>
			<point x="1092" y="240"/>
			<point x="1092" y="239" type="curve" smooth="yes"/>
			<point x="1092" y="238"/>
			<point x="1092" y="238"/>
			<point x="1092" y="237" type="curve"/>
			<point x="1093" y="237"/>
			<point x="1095" y="238"/>
			<point x="1095" y="237" type="curve" smooth="yes"/>
			<point x="1095" y="236"/>
			<point x="1094" y="235"/>
		</contour>
		<contour>
			<point x="1105" y="229" type="line"/>
			<point x="1103" y="228"/>
			<point x="1103" y="231"/>
			<point x="1104" y="231" type="curve" smooth="yes"/>
			<point x="1105" y="231" type="line"/>
		</contour>
		<contour>
			<point x="1097" y="235" type="curve" smooth="yes"/>
			<point x="1095" y="237"/>
			<point x="1100" y="240"/>
			<point x="1100" y="238" type="curve" smooth="yes"/>
			<point x="1100" y="236"/>
			<point x="1098" y="234"/>
		</contour>
		<contour>
			<point x="1088" y="248" type="curve" smooth="yes"/>
			<point x="1088" y="250"/>
			<point x="1092" y="248"/>
			<point x="1090" y="248" type="curve" smooth="yes"/>
			<point x="1089" y="248"/>
			<point x="1088" y="247"/>
		</contour>
		<contour>
			<point x="862" y="481" type="curve" smooth="yes"/>
			<point x="862" y="481"/>
			<point x="857" y="483"/>
			<point x="859" y="483" type="curve" smooth="yes"/>
			<point x="861" y="483"/>
			<point x="862" y="483"/>
		</contour>
		<contour>
			<point x="1095" y="245" type="curve" smooth="yes"/>
			<point x="1095" y="245"/>
			<point x="1095" y="246"/>
			<point x="1095" y="246" type="curve" smooth="yes"/>
			<point x="1093" y="246"/>
			<point x="1093" y="246"/>
			<point x="1092" y="246" type="curve" smooth="yes"/>
			<point x="1092" y="246"/>
			<point x="1090" y="246"/>
			<point x="1090" y="247" type="curve" smooth="yes"/>
			<point x="1090" y="248"/>
			<point x="1092" y="248"/>
			<point x="1093" y="249" type="curve" smooth="yes"/>
			<point x="1094" y="250"/>
			<point x="1094" y="248"/>
			<point x="1095" y="248" type="curve" smooth="yes"/>
			<point x="1097" y="248"/>
			<point x="1097" y="250"/>
			<point x="1098" y="250" type="curve" smooth="yes"/>
			<point x="1100" y="250"/>
			<point x="1101" y="249"/>
			<point x="1104" y="249" type="curve" smooth="yes"/>
			<point x="1106" y="249"/>
			<point x="1109" y="251"/>
			<point x="1109" y="249" type="curve" smooth="yes"/>
			<point x="1109" y="247"/>
			<point x="1109" y="245"/>
			<point x="1108" y="245" type="curve" smooth="yes"/>
			<point x="1106" y="245"/>
			<point x="1105" y="247"/>
			<point x="1104" y="246" type="curve" smooth="yes"/>
			<point x="1101" y="243"/>
			<point x="1099" y="243"/>
		</contour>
		<contour>
			<point x="933" y="413" type="curve" smooth="yes"/>
			<point x="931" y="413"/>
			<point x="930" y="414"/>
			<point x="929" y="417" type="curve"/>
			<point x="931" y="417"/>
			<point x="934" y="417"/>
			<point x="934" y="416" type="curve" smooth="yes"/>
			<point x="934" y="414"/>
			<point x="934" y="413"/>
		</contour>
		<contour>
			<point x="1106" y="231" type="curve"/>
			<point x="1107" y="234"/>
			<point x="1108" y="236"/>
			<point x="1109" y="238" type="curve" smooth="yes"/>
			<point x="1110" y="241"/>
			<point x="1114" y="240"/>
			<point x="1116" y="241" type="curve"/>
			<point x="1117" y="235"/>
			<point x="1110" y="236"/>
			<point x="1110" y="232" type="curve" smooth="yes"/>
			<point x="1110" y="231"/>
			<point x="1109" y="232"/>
			<point x="1108" y="234" type="curve" smooth="yes"/>
			<point x="1107" y="235"/>
			<point x="1108" y="231"/>
			<point x="1108" y="231" type="curve" smooth="yes"/>
			<point x="1107" y="231"/>
			<point x="1107" y="231"/>
		</contour>
		<contour>
			<point x="883" y="483" type="curve" smooth="yes"/>
			<point x="883" y="483"/>
			<point x="883" y="485"/>
			<point x="883" y="485" type="curve" smooth="yes"/>
			<point x="884" y="485"/>
			<point x="885" y="484"/>
			<point x="885" y="483" type="curve" smooth="yes"/>
			<point x="885" y="483"/>
			<point x="884" y="483"/>
		</contour>
		<contour>
			<point x="978" y="417" type="curve" smooth="yes"/>
			<point x="977" y="417"/>
			<point x="974" y="419"/>
			<point x="976" y="419" type="curve" smooth="yes"/>
			<point x="977" y="419"/>
			<point x="979" y="417"/>
		</contour>
		<contour>
			<point x="913" y="480" type="curve" smooth="yes"/>
			<point x="913" y="482"/>
			<point x="908" y="487"/>
			<point x="911" y="485" type="curve" smooth="yes"/>
			<point x="913" y="484"/>
			<point x="914" y="485"/>
			<point x="916" y="483" type="curve" smooth="yes"/>
			<point x="917" y="481"/>
			<point x="913" y="477"/>
		</contour>
		<contour>
			<point x="939" y="477" type="curve" smooth="yes"/>
			<point x="935" y="473"/>
			<point x="932" y="478"/>
			<point x="929" y="479" type="curve" smooth="yes"/>
			<point x="927" y="480"/>
			<point x="923" y="483"/>
			<point x="925" y="484" type="curve" smooth="yes"/>
			<point x="929" y="487"/>
			<point x="929" y="485"/>
			<point x="931" y="483" type="curve" smooth="yes"/>
			<point x="933" y="481"/>
			<point x="941" y="479"/>
		</contour>
		<contour>
			<point x="951" y="472" type="curve" smooth="yes"/>
			<point x="949" y="472"/>
			<point x="946" y="473"/>
			<point x="946" y="474" type="curve" smooth="yes"/>
			<point x="946" y="478"/>
			<point x="955" y="472"/>
		</contour>
		<contour>
			<point x="953" y="477" type="curve"/>
			<point x="953" y="483"/>
			<point x="963" y="481"/>
			<point x="963" y="479" type="curve" smooth="yes"/>
			<point x="963" y="478"/>
			<point x="963" y="477"/>
			<point x="962" y="477" type="curve" smooth="yes"/>
			<point x="961" y="477"/>
			<point x="961" y="478"/>
			<point x="961" y="478" type="curve" smooth="yes"/>
			<point x="960" y="477"/>
			<point x="956" y="477"/>
		</contour>
		<contour>
			<point x="986" y="487" type="curve" smooth="yes"/>
			<point x="986" y="489"/>
			<point x="988" y="490"/>
			<point x="988" y="489" type="curve" smooth="yes"/>
			<point x="988" y="488"/>
			<point x="988" y="488"/>
			<point x="988" y="487" type="curve"/>
			<point x="988" y="487"/>
			<point x="986" y="485"/>
		</contour>
		<contour>
			<point x="1001" y="478" type="curve" smooth="yes"/>
			<point x="1001" y="479"/>
			<point x="1001" y="480"/>
			<point x="1001" y="481" type="curve"/>
			<point x="1004" y="481"/>
			<point x="1002" y="483"/>
			<point x="1005" y="483" type="curve" smooth="yes"/>
			<point x="1006" y="483"/>
			<point x="1006" y="481"/>
			<point x="1007" y="481" type="curve"/>
			<point x="1007" y="481"/>
			<point x="1008" y="478"/>
			<point x="1007" y="478" type="curve" smooth="yes"/>
			<point x="1005" y="478"/>
			<point x="1001" y="477"/>
		</contour>
		<contour>
			<point x="1018" y="469" type="curve" smooth="yes"/>
			<point x="1016" y="469"/>
			<point x="1015" y="471"/>
			<point x="1016" y="471" type="curve" smooth="yes"/>
			<point x="1018" y="471"/>
			<point x="1019" y="469"/>
		</contour>
		<contour>
			<point x="1024" y="466" type="curve"/>
			<point x="1024" y="466"/>
			<point x="1023" y="467"/>
			<point x="1024" y="467" type="curve" smooth="yes"/>
			<point x="1026" y="467"/>
			<point x="1028" y="467"/>
			<point x="1027" y="466" type="curve" smooth="yes"/>
			<point x="1027" y="466"/>
			<point x="1026" y="466"/>
		</contour>
		<contour>
			<point x="1016" y="472" type="curve" smooth="yes"/>
			<point x="1009" y="472"/>
			<point x="1017" y="485"/>
			<point x="1017" y="479" type="curve" smooth="yes"/>
			<point x="1017" y="477"/>
			<point x="1018" y="472"/>
		</contour>
		<contour>
			<point x="1026" y="474" type="curve" smooth="yes"/>
			<point x="1026" y="476"/>
			<point x="1026" y="476"/>
			<point x="1026" y="477" type="curve"/>
			<point x="1022" y="477"/>
			<point x="1022" y="481"/>
			<point x="1022" y="485" type="curve" smooth="yes"/>
			<point x="1022" y="487"/>
			<point x="1021" y="487"/>
			<point x="1020" y="487" type="curve" smooth="yes"/>
			<point x="1020" y="487"/>
			<point x="1020" y="488"/>
			<point x="1020" y="488" type="curve"/>
			<point x="1024" y="488"/>
			<point x="1029" y="488"/>
			<point x="1029" y="482" type="curve" smooth="yes"/>
			<point x="1029" y="481"/>
			<point x="1028" y="481"/>
			<point x="1028" y="480" type="curve" smooth="yes"/>
			<point x="1028" y="478"/>
			<point x="1032" y="480"/>
			<point x="1032" y="479" type="curve" smooth="yes"/>
			<point x="1032" y="478"/>
			<point x="1034" y="477"/>
			<point x="1033" y="476" type="curve" smooth="yes"/>
			<point x="1032" y="474"/>
			<point x="1026" y="472"/>
		</contour>
	</outline>
</glyph>
<glyph name="logo.ulkaa" format="1">
	<advance width="2667"/>
	<outline>
		<contour>
			<point x="516" y="534" type="line"/>
			<point x="515" y="541"/>
			<point x="512" y="547"/>
			<point x="506" y="554" type="curve"/>
			<point x="435" y="543"/>
			<point x="379" y="536"/>
			<point x="339" y="533" type="curve"/>
			<point x="336" y="518"/>
			<point x="336" y="505"/>
			<point x="339" y="495" type="curve"/>
			<point x="418" y="485" type="line"/>
			<point x="420" y="464"/>
			<point x="421" y="415"/>
			<point x="421" y="340" type="curve" smooth="yes"/>
			<point x="421" y="138" type="line"/>
			<point x="376" y="71"/>
			<point x="325" y="38"/>
			<point x="269" y="38" type="curve" smooth="yes"/>
			<point x="209" y="38"/>
			<point x="191" y="74"/>
			<point x="191" y="167" type="curve" smooth="yes"/>
			<point x="191" y="394"/>
			<point x="193" y="517"/>
			<point x="196" y="534" type="curve"/>
			<point x="195" y="541"/>
			<point x="192" y="547"/>
			<point x="186" y="554" type="curve"/>
			<point x="117" y="543"/>
			<point x="60" y="536"/>
			<point x="14" y="533" type="curve"/>
			<point x="11" y="518"/>
			<point x="11" y="505"/>
			<point x="14" y="495" type="curve"/>
			<point x="93" y="485" type="line"/>
			<point x="95" y="464"/>
			<point x="96" y="415"/>
			<point x="96" y="339" type="curve" smooth="yes"/>
			<point x="96" y="117" type="line" smooth="yes"/>
			<point x="96" y="17"/>
			<point x="159" y="-20"/>
			<point x="240" y="-20" type="curve" smooth="yes"/>
			<point x="320" y="-20"/>
			<point x="375" y="22"/>
			<point x="431" y="94" type="curve"/>
			<point x="436" y="5" type="line"/>
			<point x="438" y="-3"/>
			<point x="441" y="-9"/>
			<point x="446" y="-14" type="curve"/>
			<point x="499" y="-7"/>
			<point x="549" y="-2"/>
			<point x="598" y="0" type="curve"/>
			<point x="600" y="15"/>
			<point x="600" y="27"/>
			<point x="598" y="38" type="curve"/>
			<point x="519" y="48" type="line"/>
			<point x="517" y="66"/>
			<point x="516" y="97"/>
			<point x="516" y="142" type="curve" smooth="yes"/>
		</contour>
		<contour>
			<point x="847" y="634" type="line" smooth="yes"/>
			<point x="847" y="725"/>
			<point x="849" y="779"/>
			<point x="852" y="796" type="curve"/>
			<point x="851" y="803"/>
			<point x="848" y="809"/>
			<point x="842" y="816" type="curve"/>
			<point x="773" y="805"/>
			<point x="716" y="798"/>
			<point x="670" y="795" type="curve"/>
			<point x="667" y="780"/>
			<point x="667" y="767"/>
			<point x="670" y="757" type="curve"/>
			<point x="752" y="747" type="line"/>
			<point x="752" y="174" type="line" smooth="yes"/>
			<point x="752" y="126"/>
			<point x="751" y="84"/>
			<point x="748" y="47" type="curve"/>
			<point x="669" y="36" type="line"/>
			<point x="665" y="23"/>
			<point x="665" y="10"/>
			<point x="669" y="-3" type="curve"/>
			<point x="725" y="-2"/>
			<point x="768" y="-1"/>
			<point x="799" y="-1" type="curve" smooth="yes"/>
			<point x="843" y="-1"/>
			<point x="886" y="-2"/>
			<point x="928" y="-4" type="curve"/>
			<point x="931" y="12"/>
			<point x="931" y="25"/>
			<point x="928" y="36" type="curve"/>
			<point x="847" y="51" type="line"/>
		</contour>
		<contour>
			<point x="1408" y="46" type="line"/>
			<point x="1342" y="37" type="line"/>
			<point x="1338" y="24"/>
			<point x="1338" y="11"/>
			<point x="1342" y="-2" type="curve"/>
			<point x="1398" y="-1"/>
			<point x="1440" y="0"/>
			<point x="1469" y="0" type="curve" smooth="yes"/>
			<point x="1511" y="0"/>
			<point x="1553" y="-1"/>
			<point x="1595" y="-3" type="curve"/>
			<point x="1598" y="13"/>
			<point x="1598" y="26"/>
			<point x="1595" y="37" type="curve"/>
			<point x="1517" y="57" type="line"/>
			<point x="1299" y="318" type="line"/>
			<point x="1476" y="484" type="line"/>
			<point x="1555" y="498" type="line"/>
			<point x="1559" y="511"/>
			<point x="1559" y="524"/>
			<point x="1555" y="536" type="curve"/>
			<point x="1512" y="534"/>
			<point x="1477" y="533"/>
			<point x="1451" y="533" type="curve" smooth="yes"/>
			<point x="1419" y="533"/>
			<point x="1385" y="534"/>
			<point x="1348" y="537" type="curve"/>
			<point x="1345" y="522"/>
			<point x="1345" y="509"/>
			<point x="1348" y="498" type="curve"/>
			<point x="1414" y="490" type="line"/>
			<point x="1205" y="288" type="line"/>
		</contour>
		<contour>
			<point x="1194" y="634" type="line" smooth="yes"/>
			<point x="1194" y="725"/>
			<point x="1196" y="779"/>
			<point x="1199" y="796" type="curve"/>
			<point x="1198" y="803"/>
			<point x="1195" y="809"/>
			<point x="1189" y="816" type="curve"/>
			<point x="1120" y="805"/>
			<point x="1063" y="798"/>
			<point x="1018" y="795" type="curve"/>
			<point x="1015" y="780"/>
			<point x="1015" y="767"/>
			<point x="1018" y="757" type="curve"/>
			<point x="1100" y="747" type="line"/>
			<point x="1100" y="174" type="line" smooth="yes"/>
			<point x="1100" y="126"/>
			<point x="1099" y="84"/>
			<point x="1096" y="47" type="curve"/>
			<point x="1017" y="36" type="line"/>
			<point x="1013" y="23"/>
			<point x="1013" y="10"/>
			<point x="1017" y="-3" type="curve"/>
			<point x="1073" y="-2"/>
			<point x="1116" y="-1"/>
			<point x="1147" y="-1" type="curve" smooth="yes"/>
			<point x="1190" y="-1"/>
			<point x="1233" y="-2"/>
			<point x="1275" y="-4" type="curve"/>
			<point x="1278" y="12"/>
			<point x="1278" y="25"/>
			<point x="1275" y="36" type="curve"/>
			<point x="1194" y="51" type="line"/>
		</contour>
		<contour>
			<point x="1735" y="133" type="curve" smooth="yes"/>
			<point x="1735" y="221"/>
			<point x="1811" y="258"/>
			<point x="1948" y="266" type="curve"/>
			<point x="1948" y="110" type="line"/>
			<point x="1907" y="63"/>
			<point x="1854" y="38"/>
			<point x="1814" y="38" type="curve" smooth="yes"/>
			<point x="1759" y="38"/>
			<point x="1735" y="64"/>
		</contour>
		<contour>
			<point x="1948" y="302" type="line"/>
			<point x="1760" y="298"/>
			<point x="1640" y="236"/>
			<point x="1640" y="113" type="curve" smooth="yes"/>
			<point x="1640" y="32"/>
			<point x="1690" y="-20"/>
			<point x="1774" y="-20" type="curve" smooth="yes"/>
			<point x="1842" y="-20"/>
			<point x="1904" y="12"/>
			<point x="1959" y="75" type="curve"/>
			<point x="1964" y="6" type="line"/>
			<point x="1965" y="-2"/>
			<point x="1969" y="-9"/>
			<point x="1974" y="-14" type="curve"/>
			<point x="2027" y="-7"/>
			<point x="2078" y="-2"/>
			<point x="2125" y="0" type="curve"/>
			<point x="2128" y="15"/>
			<point x="2128" y="28"/>
			<point x="2125" y="38" type="curve"/>
			<point x="2046" y="48" type="line"/>
			<point x="2044" y="60"/>
			<point x="2043" y="74"/>
			<point x="2043" y="91" type="curve" smooth="yes"/>
			<point x="2043" y="373" type="line" smooth="yes"/>
			<point x="2043" y="509"/>
			<point x="1994" y="554"/>
			<point x="1865" y="554" type="curve" smooth="yes"/>
			<point x="1748" y="554"/>
			<point x="1659" y="497"/>
			<point x="1659" y="406" type="curve"/>
			<point x="1664" y="387"/>
			<point x="1679" y="378"/>
			<point x="1705" y="378" type="curve" smooth="yes"/>
			<point x="1715" y="378"/>
			<point x="1731" y="380"/>
			<point x="1752" y="385" type="curve"/>
			<point x="1765" y="480"/>
			<point x="1803" y="515"/>
			<point x="1864" y="515" type="curve" smooth="yes"/>
			<point x="1924" y="515"/>
			<point x="1948" y="466"/>
			<point x="1948" y="353" type="curve" smooth="yes"/>
		</contour>
		<contour>
			<point x="2255" y="133" type="curve" smooth="yes"/>
			<point x="2255" y="221"/>
			<point x="2331" y="258"/>
			<point x="2468" y="266" type="curve"/>
			<point x="2468" y="110" type="line"/>
			<point x="2427" y="63"/>
			<point x="2374" y="38"/>
			<point x="2334" y="38" type="curve" smooth="yes"/>
			<point x="2279" y="38"/>
			<point x="2255" y="64"/>
		</contour>
		<contour>
			<point x="2468" y="302" type="line"/>
			<point x="2280" y="298"/>
			<point x="2160" y="236"/>
			<point x="2160" y="113" type="curve" smooth="yes"/>
			<point x="2160" y="32"/>
			<point x="2210" y="-20"/>
			<point x="2294" y="-20" type="curve" smooth="yes"/>
			<point x="2362" y="-20"/>
			<point x="2424" y="12"/>
			<point x="2479" y="75" type="curve"/>
			<point x="2484" y="6" type="line"/>
			<point x="2485" y="-2"/>
			<point x="2489" y="-9"/>
			<point x="2494" y="-14" type="curve"/>
			<point x="2547" y="-7"/>
			<point x="2598" y="-2"/>
			<point x="2645" y="0" type="curve"/>
			<point x="2648" y="15"/>
			<point x="2648" y="28"/>
			<point x="2645" y="38" type="curve"/>
			<point x="2566" y="48" type="line"/>
			<point x="2564" y="60"/>
			<point x="2563" y="74"/>
			<point x="2563" y="91" type="curve" smooth="yes"/>
			<point x="2563" y="373" type="line" smooth="yes"/>
			<point x="2563" y="509"/>
			<point x="2514" y="554"/>
			<point x="2385" y="554" type="curve" smooth="yes"/>
			<point x="2268" y="554"/>
			<point x="2179" y="497"/>
			<point x="2179" y="406" type="curve"/>
			<point x="2184" y="387"/>
			<point x="2199" y="378"/>
			<point x="2225" y="378" type="curve" smooth="yes"/>
			<point x="2235" y="378"/>
			<point x="2251" y="380"/>
			<point x="2272" y="385" type="curve"/>
			<point x="2285" y="480"/>
			<point x="2323" y="515"/>
			<point x="2384" y="515" type="curve" smooth="yes"/>
			<point x="2444" y="515"/>
			<point x="2468" y="466"/>
			<point x="2468" y="353" type="curve" smooth="yes"/>
		</contour>
		<contour>
			<point x="1854" y="2167" type="curve"/>
			<point x="1539" y="1971"/>
			<point x="966" y="1690"/>
			<point x="898" y="1657" type="curve" smooth="yes"/>
			<point x="785" y="1602"/>
			<point x="653" y="1417"/>
			<point x="751" y="1240" type="curve" smooth="yes"/>
			<point x="849" y="1063"/>
			<point x="1127" y="1018"/>
			<point x="1271" y="1217" type="curve" smooth="yes"/>
			<point x="1478" y="1502"/>
			<point x="1670" y="1850"/>
		</contour>
	</outline>
</glyph>
